DBRep_DrawableShape

CASCADE Topology V3, (c) Open Cascade
Locations 6
1
              1               0               0               0 
              0               1               0               0 
              0               0               1             1.5 
2  1 -1 0
1
              1               0               0               0 
              0               1               0             1.5 
              0               0               1               0 
2  3 -1 0
1
              1               0               0               0 
              0               1               0            -1.5 
              0               0               1               0 
2  5 -1 0
Curve2ds 80
1 0 0 1 0 
1 0 -1.5 1 0 
1 -40 25 0 -1 
1 0 80 1 0 
2 2 -3.4999999999999996 0 1 -1 0 2
1 -3.1415926535897931 0 1 0 
2 48 -3.4999999999999996 0 -1 -1 -0 2
1 0 0 0 -1 
1 25 0 -1 -0 
1 50 0 0 -1 
1 25 0 -1 0 
1 80 0 0 -1 
1 12.5 -40 -1 0 
1 0 0 0 -1 
1 12.5 -40 -1 0 
1 0 0 1 0 
1 0 -1.5 1 0 
1 40 -25 0 1 
1 0 0 0 1 
1 40 23 -1 0 
1 0 0 0 1 
1 -40 -23 1 0 
1 0 0 1 0 
2 48 -3.4999999999999996 0 1 1 -0 2
1 1.5707963267948966 0 0 1 
1 9 40 0 -1 
1 1.5707963267948966 0 0 1 
1 9 -40 0 1 
1 -3.1415926535897931 80 1 0 
2 1.9999999999999996 -3.4999999999999996 0 -1 1 0 2
1 -12.5 -40 1 0 
1 0 -0 1 0 
1 0 -1.5 1 0 
1 0 -0 0 -1 
1 0 0 0 -1 
1 25 0 0 -1 
1 0 0 1 0 
1 0 -1.5 1 0 
1 -12.5 -40 1 0 
1 0 0 0 -1 
1 0 0 0 -1 
1 25 0 0 -1 
1 0 0 1 0 
1 0 -1.5 1 0 
1 -40 -25 1 0 
1 11 -40 0 1 
1 12.5 -40 0 1 
1 40 25 -1 0 
1 0 -0 1 0 
1 0 -1.5 1 0 
1 11 40 0 -1 
1 12.5 40 0 -1 
1 50 0 0 -1 
1 0 0 1 0 
1 0 0 0 -1 
1 0 0 1 0 
1 0 -0 0 -1 
1 12.5 40 -1 0 
1 80 0 0 -1 
1 12.5 40 -1 0 
1 -12.5 40 0 -1 
1 0 0 1 0 
1 0 -1.5 1 0 
1 12.5 40 -1 0 
1 -12.5 40 0 -1 
1 12.5 40 -1 0 
1 0 0 1 0 
1 0 -1.5 1 0 
1 25 0 0 -1 
1 0 0 1 0 
1 0 -1.5 1 0 
1 12.5 -40 0 1 
1 80 0 0 -1 
1 0 0 0 -1 
1 25 0 0 -1 
1 0 0 1 0 
1 0 -1.5 1 0 
1 12.5 -40 0 1 
1 80 0 0 -1 
1 0 0 0 -1 
Curves 36
1 0 50 0 0 -1 0 
8 0 1.5707963267948966
2 0 48 3.4999999999999996 1 -0 -0 0 0 -1 0 1 0 2
8 3.1415926535897931 4.7123889803846897
2 0 1.9999999999999996 3.4999999999999996 -1 -0 -0 -0 0 1 0 1 -0 2
8 1.5 3.4999999999999996
1 0 50 0 0 0 1 
8 1.5 3.4999999999999996
1 0 0 0 0 0 1 
1 0 50 0 0 0 1 
1 0 0 0 0 0 1 
1 80 0 0 0 1 0 
1 80 48 1.4999999999999996 -1 0 0 
1 0 1.9999999999999996 1.4999999999999996 1 0 0 
8 0 1.5707963267948966
2 80 48 3.4999999999999996 1 -0 -0 0 0 -1 0 1 0 2
1 80 50 3.4999999999999996 -1 0 0 
1 0 -4.4408920985006262e-16 3.4999999999999996 1 0 0 
8 3.1415926535897931 4.7123889803846897
2 80 1.9999999999999996 3.4999999999999996 -1 -0 -0 -0 0 1 0 1 -0 2
1 0 50 25 0 0 -1 
1 0 50 25 0 1 0 
1 0 50 0 0 1 0 
1 0 0 25 0 0 -1 
1 0 0 25 0 -1 0 
1 0 0 0 0 -1 0 
1 0 0 0 1 0 0 
1 80 50 0 -1 0 0 
8 1.5 3.4999999999999996
1 80 50 0 0 0 1 
8 1.5 3.4999999999999996
1 80 0 0 0 0 1 
1 80 50 0 0 0 1 
1 80 0 0 0 0 1 
1 80 50 25 -1 0 0 
1 80 50 0 0 0 1 
1 80 0 25 -1 0 0 
1 80 0 0 0 0 1 
1 80 50 25 0 1 0 
1 0 50 0 1 0 0 
1 80 50 0 0 1 0 
1 80 0 25 0 -1 0 
1 0 0 0 1 0 0 
1 80 0 0 0 -1 0 
Polygon3D 0
PolygonOnTriangulations 0
Surfaces 17
1 0 50 0 1 0 -0 0 -1 0 0 -0 -1 
1 40 25 0 0 0 1 1 0 -0 -0 1 0 
2 80 48 3.4999999999999996 -1 0 0 -0 0 -1 0 1 -0 2
2 0 1.9999999999999996 3.4999999999999996 1 0 0 0 0 -1 0 -1 -0 2
1 0 50 25 -1 0 0 0 0 -1 -0 -1 -0 
1 0 0 25 1 0 0 0 0 -1 -0 1 0 
1 80 50 0 0 -1 0 -1 0 0 -0 -0 -1 
1 40 50 12.5 -0 -1 -0 0 0 -1 1 -0 0 
1 0 0 0 0 1 0 1 0 0 0 0 -1 
1 40 0 12.5 -0 -1 -0 0 0 -1 1 -0 0 
1 80 0 0 -1 0 0 0 1 0 0 0 -1 
1 0 50 0 0 0 -1 1 0 0 0 -1 0 
1 0 0 0 -0 0 1 1 0 0 0 1 -0 
1 80 50 0 1 0 0 0 0 1 0 -1 0 
1 80 0 0 -1 0 0 0 0 1 0 1 -0 
1 80 50 25 0 -0 1 -1 0 0 -0 -1 0 
1 80 0 25 -0 -0 -1 -1 0 0 0 1 -0 
Triangulations 0

TShapes 105
Ve
1e-07
0 48 1.5
0 0

0101101
*
Ve
1e-07
0 2 1.5
0 0

0101101
*
Ed
 1e-07 1 1 0
1  1 0 2 48
2  1 1 0 2 48
2  2 1 2 2 48
2  3 2 0 2 48
0

0101000
+105 2 -104 2 *
Ve
1e-06
0 50 3.5
0 0

0101101
*
Ed
 1e-07 1 1 0
1  2 0 0 1.5707963267949
2  4 3 0 0 1.5707963267949
2  5 1 0 0 1.5707963267949
0

0101000
+105 0 -102 0 *
Ve
1e-06
0 -4.44089209850063e-16 3.5
0 0

0101101
*
Ed
 1e-07 1 1 0
1  3 0 3.14159265358979 4.71238898038469
2  6 4 0 3.14159265358979 4.71238898038469
2  7 1 0 3.14159265358979 4.71238898038469
0

0101000
+104 0 -100 0 *
Ve
1e-06
0 50 0
0 0

0101101
*
Ed
 1e-06 1 1 0
1  4 0 1.5 3.5
2  8 1 0 1.5 3.5
2  9 5 0 1.5 3.5
0

0101000
+98 1 -102 0 *
Ve
1e-06
0 0 0
0 0

0101101
*
Ed
 1e-06 1 1 0
1  5 0 1.5 3.5
2  10 1 0 1.5 3.5
2  11 6 0 1.5 3.5
0

0101000
+96 1 -100 0 *
Ve
1e-07
0 50 0
0 0

0101101
*
Ed
 1e-07 1 1 0
1  6 0 0 1.5
2  8 1 0 0 1.5
2  12 7 0 0 1.5
2  13 8 0 0 1.5
0

0101000
+94 0 -98 1 *
Ve
1e-07
0 0 0
0 0

0101101
*
Ed
 1e-07 1 1 0
1  7 0 0 1.5
2  14 9 0 0 1.5
2  10 1 0 0 1.5
2  15 10 0 0 1.5
0

0101000
+92 0 -96 1 *
Ed
 1e-07 1 1 0
1  1 0 0 50
2  1 1 0 0 50
2  2 1 2 0 50
2  3 2 0 0 50
0

0101000
+94 0 -92 0 *
Wi

0101100
+103 1 -101 0 +99 0 +97 0 -95 0 +93 0 -91 0 -90 0 *
Fa
0  1e-07 1 0

0101000
+89 0 *
Ve
1e-07
80 48 1.5
0 0

0101101
*
Ve
1e-07
80 2 1.5
0 0

0101101
*
Ed
 1e-07 1 1 0
1  8 0 2 48
2  16 11 0 2 48
2  17 11 2 2 48
2  18 2 0 2 48
0

0101000
-87 2 +86 2 *
Ed
 1e-07 1 1 0
1  9 0 -0 80
2  19 3 0 -0 80
2  20 2 1 -0 80
4 G1 3 0 2 1
0

0101000
+87 0 -105 0 *
Ed
 1e-07 1 1 0
1  10 0 0 80
2  21 4 0 0 80
2  22 2 1 0 80
4 G1 4 0 2 1
0

0101000
+104 0 -86 0 *
Wi

0101100
+85 1 +84 0 +83 0 +103 1 *
Fa
0  1e-07 2 0

0101000
+82 2 *
Ve
1e-06
80 50 3.5
0 0

0101101
*
Ed
 1e-07 1 1 0
1  11 0 0 1.5707963267949
2  23 3 0 0 1.5707963267949
2  24 11 0 0 1.5707963267949
0

0101000
+87 0 -80 0 *
Ed
 1e-07 1 1 0
1  12 0 -0 80
2  25 3 0 -0 80
2  26 8 0 -0 80
4 G1 3 0 8 0
0

0101000
+80 0 -102 0 *
Wi

0101100
+79 0 -84 0 +78 0 -101 0 *
Fa
0  0 3 0

0101000
+77 0 *
Ve
1e-06
80 -4.44089209850063e-16 3.5
0 0

0101101
*
Ed
 1e-07 1 1 0
1  13 0 0 80
2  27 4 0 0 80
2  28 10 0 0 80
4 G1 4 0 10 0
0

0101000
+100 0 -75 0 *
Ed
 1e-07 1 1 0
1  14 0 3.14159265358979 4.71238898038469
2  29 4 0 3.14159265358979 4.71238898038469
2  30 11 0 3.14159265358979 4.71238898038469
0

0101000
+86 0 -75 0 *
Wi

0101100
+99 0 -83 0 +74 0 -73 0 *
Fa
0  0 4 0

0101000
+72 0 *
Ve
1e-07
0 50 25
0 0

0101101
*
Ed
 1e-07 1 1 0
1  15 0 0 21.5
2  31 8 0 0 21.5
2  32 5 0 0 21.5
2  33 5 4 0 21.5
0

0101000
-102 0 +70 0 *
Ed
 1e-07 1 1 0
1  16 0 0 1.5
2  34 5 0 0 1.5
0

0101000
+70 0 -70 3 *
Ve
1e-07
0 50 0
0 0

0101101
*
Ed
 1e-07 1 1 0
1  15 0 0 25
2  31 8 0 0 25
2  32 5 0 0 25
2  33 5 4 0 25
0

0101000
+70 0 -67 0 *
Ed
 1e-07 1 1 0
1  17 0 0 1.5
2  35 12 0 0 1.5
2  36 5 0 0 1.5
0

0101000
+94 0 -67 3 *
Wi

0101100
-69 0 +97 0 +68 0 +93 0 +66 3 -65 0 *
Fa
0  1e-07 5 0

0101000
+64 0 *
Ve
1e-07
0 0 25
0 0

0101101
*
Ed
 1e-07 1 1 0
1  18 0 0 21.5
2  37 6 0 0 21.5
2  38 6 6 0 21.5
2  39 10 0 0 21.5
0

0101000
-100 0 +62 0 *
Ed
 1e-07 1 1 0
1  19 0 0 1.5
2  40 6 0 0 1.5
0

0101000
+62 0 -62 5 *
Ve
1e-07
0 0 0
0 0

0101101
*
Ed
 1e-07 1 1 0
1  18 0 0 25
2  37 6 0 0 25
2  38 6 6 0 25
2  39 10 0 0 25
0

0101000
+62 0 -59 0 *
Ed
 1e-07 1 1 0
1  20 0 0 1.5
2  41 13 0 0 1.5
2  42 6 0 0 1.5
0

0101000
+92 0 -59 5 *
Wi

0101100
-61 0 +95 0 +60 0 +91 0 +58 5 -57 0 *
Fa
0  1e-07 6 0

0101000
+56 0 *
Ve
1e-07
80 0 0
0 0

0101101
*
Ed
 1e-07 1 1 0
1  21 0 0 80
2  43 9 0 0 80
2  44 9 2 0 80
2  45 2 0 0 80
2  46 10 2 0 80
2  47 10 0 0 80
0

0101000
+92 0 -54 0 *
Ve
1e-07
80 50 0
0 0

0101101
*
Ed
 1e-07 1 1 0
1  8 0 0 50
2  16 11 0 0 50
2  17 11 2 0 50
2  18 2 0 0 50
0

0101000
+54 0 -52 0 *
Ed
 1e-07 1 1 0
1  22 0 0 80
2  48 2 0 0 80
2  49 7 0 0 80
2  50 7 2 0 80
2  51 8 2 0 80
2  52 8 0 0 80
0

0101000
+52 0 -94 0 *
Wi

0101100
+53 0 +51 0 +50 0 +90 0 *
Fa
0  1e-07 2 0

0101000
+49 0 *
Ve
1e-06
80 50 0
0 0

0101101
*
Ed
 1e-06 1 1 0
1  23 0 1.5 3.5
2  53 11 0 1.5 3.5
2  54 14 0 1.5 3.5
0

0101000
+47 1 -80 0 *
Ve
1e-06
80 0 0
0 0

0101101
*
Ed
 1e-06 1 1 0
1  24 0 1.5 3.5
2  55 11 0 1.5 3.5
2  56 15 0 1.5 3.5
0

0101000
+45 1 -75 0 *
Ed
 1e-07 1 1 0
1  25 0 0 1.5
2  53 11 0 0 1.5
2  57 7 0 0 1.5
2  58 8 0 0 1.5
0

0101000
+52 0 -47 1 *
Ed
 1e-07 1 1 0
1  26 0 0 1.5
2  59 9 0 0 1.5
2  55 11 0 0 1.5
2  60 10 0 0 1.5
0

0101000
+54 0 -45 1 *
Wi

0101100
+85 1 +79 0 -73 0 -46 0 +44 0 -43 0 +42 0 -51 0 *
Fa
0  1e-07 11 0

0101000
+41 0 *
Ve
1e-07
80 50 25
0 0

0101101
*
Ed
 1e-07 1 1 0
1  27 0 0 80
2  61 8 0 0 80
0

0101000
+39 0 -70 0 *
Ed
 1e-07 1 1 0
1  28 0 3.5 25
2  62 14 0 3.5 25
2  63 14 4 3.5 25
2  64 8 0 3.5 25
0

0101000
+80 0 -39 0 *
Wi

0101100
+69 0 -78 0 +38 0 +37 0 *
Fa
0  1e-07 8 0

0101000
+36 0 *
Ve
1e-07
80 0 25
0 0

0101101
*
Ed
 1e-07 1 1 0
1  29 0 0 80
2  65 10 0 0 80
0

0101000
+34 0 -62 0 *
Ed
 1e-07 1 1 0
1  30 0 3.5 25
2  66 10 0 3.5 25
2  67 15 0 3.5 25
2  68 15 6 3.5 25
0

0101000
+75 0 -34 0 *
Wi

0101100
+61 0 +74 0 +33 0 +32 0 *
Fa
0  1e-07 10 0

0101000
+31 0 *
Ed
 1e-07 1 1 0
1  31 0 0 1.5
2  69 14 0 0 1.5
0

0101000
+39 0 -39 3 *
Wi

0101100
+29 0 -68 0 -38 0 +38 3 *
Fa
0  1e-07 16 0

0101000
+28 0 *
Ve
1e-07
80 50 0
0 0

0101101
*
Ed
 1e-07 1 1 0
1  32 0 0 80
2  70 12 0 0 80
2  71 12 4 0 80
2  72 8 0 0 80
0

0101000
+67 0 -26 0 *
Ed
 1e-07 1 1 0
1  28 0 0 25
2  62 14 0 0 25
2  63 14 4 0 25
2  64 8 0 0 25
0

0101000
+26 0 -39 0 *
Wi

0101100
+25 0 +24 0 +38 0 +66 0 *
Fa
0  1e-07 8 0

0101000
+23 0 *
Ed
 1e-07 1 1 0
1  33 0 0 1.5
2  73 12 0 0 1.5
2  74 14 0 0 1.5
0

0101000
+52 0 -26 3 *
Wi

0101100
+65 0 -21 0 +50 0 +25 3 *
Fa
0  1e-07 12 0

0101000
+20 0 *
Ed
 1e-07 1 1 0
1  34 0 0 1.5
2  75 15 0 0 1.5
0

0101000
+34 0 -34 5 *
Wi

0101100
+18 0 -60 0 -33 0 +33 5 *
Fa
0  1e-07 17 0

0101000
+17 0 *
Ve
1e-07
80 0 0
0 0

0101101
*
Ed
 1e-07 1 1 0
1  35 0 0 80
2  76 13 0 0 80
2  77 13 6 0 80
2  78 10 0 0 80
0

0101000
+59 0 -15 0 *
Ed
 1e-07 1 1 0
1  30 0 0 25
2  66 10 0 0 25
2  67 15 0 0 25
2  68 15 6 0 25
0

0101000
+15 0 -34 0 *
Wi

0101100
+14 0 +13 0 +33 0 +58 0 *
Fa
0  1e-07 10 0

0101000
+12 0 *
Ed
 1e-07 1 1 0
1  36 0 0 1.5
2  79 13 0 0 1.5
2  80 15 0 0 1.5
0

0101000
+54 0 -15 5 *
Wi

0101100
+57 0 -10 0 -53 0 +14 5 *
Fa
0  1e-07 13 0

0101000
+9 0 *
Wi

0101100
-37 0 -46 0 -29 0 -43 0 +24 3 +21 0 *
Fa
0  1e-07 14 0

0101000
+7 0 *
Wi

0101100
-32 0 -44 0 -18 0 -42 0 +13 5 +10 0 *
Fa
0  1e-07 15 0

0101000
+5 0 *
Sh

0101100
-88 0 +81 1 +76 0 +71 0 +63 0 -55 0 -48 0 -40 0 +35 0 -30 0 
+27 0 -22 3 +19 0 -16 0 +11 5 -8 0 +6 0 -4 0 *
So

0100000
+3 0 *
Co

1100000
+2 0 *

+1 0 