DBRep_DrawableShape

CASCADE Topology V3, (c) Open Cascade
Locations 0
Curve2ds 24
8 0 6.2831853071795862
1 6.2831853071795862 0 0 1 
1 0 0 0 1 
1 0 0 1 0 
1 0 6.2831853071795862 1 0 
8 0 6.2831853071795862
1 0 0 1 0 
8 0 6.2831853071795862
1 6.2831853071795862 0 0 1 
1 0 0 0 1 
1 0 6.2831853071795862 1 0 
8 0 6.2831853071795862
1 0 0 1 0 
8 0 6.2831853071795862
1 6.2831853071795862 0 0 1 
1 0 0 0 1 
1 0 6.2831853071795862 1 0 
8 0 6.2831853071795862
1 0 0 1 0 
8 0 6.2831853071795862
1 6.2831853071795862 0 0 1 
1 0 0 0 1 
1 0 6.2831853071795862 1 0 
8 0 6.2831853071795862
1 0 0 1 0 
8 0 6.2831853071795862
1 6.2831853071795862 0 0 1 
1 0 0 0 1 
1 0 6.2831853071795862 1 0 
8 0 6.2831853071795862
1 0 0 1 0 
8 0 6.2831853071795862
1 6.2831853071795862 0 0 1 
1 0 0 0 1 
1 0 6.2831853071795862 1 0 
Curves 13
7 1 0  8 17 3  -17.981645427977348 0.84042479581638307 7.9220273534400798  1.6690784610682365 -17.651525746634203 7.9017901844604577 7.1720282178533461  1.6690784610682363 -14.151654723836403 14.815211272597905 6.4220176486073202  1.669078461068235 -7.565719127310512 19.920196011290212 5.6720540063761264  1.669078461068239 1.010800390546561 21.610435431606462 4.921990994118576  1.6690784610682357 9.3897650711165497 19.12810248963525 4.1720538760121739  1.6690784610682354 15.471968343321269 13.430437818599531 3.422017899710359  1.6690784610682377 18.311649940172344 6.2209404266564272 2.6720280296821808  1.6690784610682368 17.981645427977362 -0.84042479581636342 1.9220273534400825  1.6690784610682365 17.651520194607123 -7.901790183108985 1.1720282305890279  1.669078461068231 14.151676524040745 -14.8152112779044 0.4220175986002514  1.6690784610682536 7.5656689223818292 -19.920195999070245 -0.32794587845969753  1.6690784610682063 -1.0107178972447652 -21.610435451684385 -1.0780091951113446  1.6690784610682667 -9.3898681877429553 -19.128102464538504 -1.8279458874503698  1.6690784610682168 -15.471867933466303 -13.430437843037685 -2.5779823306181822  1.6690784610682459 -18.311726240884774 -6.2209404080857142 -3.3279717952927421  1.6690784610682345 -17.981601011762418 0.84042478500589646 -4.0779727484456618  1.6690784610682365
 0 9 3.1415926535897931 8 6.2831853071795862 9
7 1 1  6 6 2  -17.981645427977348 0.84042479581638307 7.9220273534400798  1.6690784610682365 -21.302697966129521 0.95666423173145976 7.922010511520071  1.0367296232096095 -21.794689359051336 0.54006415268315333 3.8358481100945641  1.0383466998475139 -18.009281437167871 0.049761820772909499 0.46564759779054737  0.85353433019613967 -14.198891036479008 0.27420527144072698 3.8358866303607408  1.0383466998475139 -14.660592889825161 0.72418535990130772 7.9220441953600975  1.036729623209609
 0 6 6.2831853071795862 6
7 1 1  6 6 2  -17.981601011762418 0.84042478500589646 -4.0779727484456618  1.6690784610682365 -21.30265348157679 0.95666617457940151 -4.0779711775688918  1.0367296232096095 -21.794667774331305 0.54006638495909953 -8.1641308512000208  1.0383466998475139 -18.00927882622068 0.049761826232070309 -11.534352350757937  0.85353433019613967 -14.198869608058903 0.27420303537561397 -8.1641344440558967  1.0383466998475139 -14.660548541948049 0.72418339543239341 -4.0779743193224256  1.036729623209609
 0 6 6.2831853071795862 6
7 1 0  8 17 3  -17.981601011762422 0.84042478500591256 -4.07797274844566  1.6690784610682365 -17.651481334665629 7.9017727274930616 -4.8279718841551205  1.6690784610682363 -14.151618145018965 14.81517639586642 -5.5779824533658111  1.669078461068235 -7.5656981997410986 19.920147745521252 -6.3279460959010763  1.669078461068239 1.0108003775285432 21.610382094554989 -7.0780091074318774  1.6690784610682357 9.389744120056351 19.128054234098531 -7.8279462265800586  1.6690784610682354 15.471931747499729 13.430402959655801 -8.5779822016559137  1.6690784610682377 18.311605519702333 6.2209229913777149 -9.3279720727810709  1.6690784610682368 17.981601011762443 -0.84042478500589224 -10.077972748445656  1.6690784610682365 17.651475782638656 -7.9017727261383994 -10.827971871388556  1.669078461068231 14.151639945222831 -14.815176401185434 -11.577982503494111  1.6690784610682536 7.5656479948134034 -19.920147733272273 -12.327945980457901  1.6690784610682063 -1.0107178842281845 -21.610382114680867 -13.078009297119898  1.6690784610682667 -9.3898472366811685 -19.128054208941528 -13.82794598947036  1.6690784610682168 -15.471831337646179 -13.430402984152828 -14.577982432541411  1.6690784610682459 -18.311681820413739 -6.2209229727621693 -15.327971897332898  1.6690784610682345 -17.981556595548057 0.84042477416930628 -16.077972850577659  1.6690784610682365
 0 9 3.1415926535897931 8 6.2831853071795862 9
7 1 1  6 6 2  -17.981556595548057 0.84042477416930628 -16.077972850577659  1.6690784610682365 -21.302608996921393 0.95666811740119206 -16.077952866904482  1.0367296232096095 -21.794646189493321 0.54006861722236821 -20.164109812614274  1.0383466998475139 -18.009276215273218 0.049761831689707277 -23.534352299320901  0.85353433019613967 -14.198848179756961 0.2742007992979073 -20.164155518591343  1.0383466998475139 -14.660504194174742 0.72418143093741028 -16.077992834250825  1.036729623209609
 0 6 6.2831853071795862 6
7 1 0  8 17 3  -17.981556595548064 0.84042477416931349 -16.077972850577655  1.6690784610682365 -17.651436922707909 7.9017552704998106 -16.827971986409722  1.6690784610682363 -14.151581566222374 14.815141519113631 -17.577982555585621  1.669078461068235 -7.565677272200511 19.920099479740987 -18.327946198423724  1.669078461068239 1.0108003644792891 21.610328757503691 -19.078009209229581  1.6690784610682357 9.3897231689679561 19.128005978575185 -19.827946329417752  1.6690784610682354 15.471895151658197 13.430368100733737 -20.577982303268872  1.6690784610682377 18.311561099222587 6.220905556125448 -21.327972175490466  1.6690784610682368 17.981556595548085 -0.84042477416929595 -22.077972850577652  1.6690784610682365 17.651431370681003 -7.9017552691418027 -22.827971973612428  1.669078461068231 14.151603366425944 -14.815141524445746 -23.57798260583461  1.6690784610682536 7.5656270672735495 -19.920099467461998 -24.327946082702546  1.6690784610682063 -1.0107178711801446 -21.610328777678635 -25.078009399374526  1.6690784610682667 -9.3898262855912904 -19.128005953357086 -25.827946091736706  1.6690784610682168 -15.471794741806017 -13.430368125290087 -26.577982534710866  1.6690784610682459 -18.311637399933009 -6.2209055374649322 -27.327971999619319  1.6690784610682345 -17.98151217933427 0.84042476330658145 -28.077972952955907  1.6690784610682365
 0 9 3.1415926535897931 8 6.2831853071795862 9
7 1 1  6 6 2  -17.98151217933427 0.84042476330658145 -28.077972952955907  1.6690784610682365 -21.302564512163315 0.95667006019682888 -28.077934556486706  1.0367296232096095 -21.794624604537383 0.54007084947294304 -32.16408877414819  1.0383466998475139 -18.009273604325458 0.049761837145803046 -35.53435224789834  0.85353433019613967 -14.198826751573165 0.27419856320759906 -32.1641765932456  1.0383466998475139 -14.660459846505233 0.72417946641632991 -28.078011349425104  1.036729623209609
 0 6 6.2831853071795862 6
7 1 0  8 17 3  -17.981512179334274 0.84042476330659777 -28.077972952955911  1.6690784610682365 -17.651392510760992 7.9017378134806817 -28.827972088910567  1.6690784610682363 -14.151544987446817 14.815106642339725 -29.577982658051724  1.669078461068235 -7.5656563446885654 19.920051213949069 -30.327946301192675  1.669078461068239 1.010800351398685 21.610275420453149 -31.078009311273391  1.6690784610682357 9.3897022178514007 19.127957723064561 -31.827946432501822  1.6690784610682354 15.471858555796647 13.430333241833845 -32.577982405128026  1.6690784610682377 18.311516678733131 6.2208881208994775 -33.327972278446104  1.6690784610682368 17.981512179334292 -0.84042476330657978 -34.077972952955911  1.6690784610682365 17.651386958734061 -7.9017378121194062 -34.827972076082553  1.669078461068231 14.151566787650477 -14.815106647684685 -35.577982708421388  1.6690784610682536 7.5656061397615959 -19.920051201640543 -36.327946185193419  1.6690784610682063 -1.0107178580999587 -21.610275440676507 -37.078009501875435  1.6690784610682667 -9.3898053344737917 -19.127957697786055 -37.8279461942493  1.6690784610682168 -15.471758145945618 -13.430333266449047 -38.577982637126595  1.6690784610682459 -18.311592979442608 -6.2208881021941487 -39.327972102151982  1.6690784610682345 -17.98146776312106 0.84042475241772485 -40.077973055580415  1.6690784610682365
 0 9 3.1415926535897931 8 6.2831853071795862 9
7 1 1  6 6 2  -17.98146776312106 0.84042475241772485 -40.077973055580415  1.6690784610682365 -21.302520027302581 0.95667200296628163 -40.077916246315567  1.0367296232096095 -21.79460301946348 0.54007308171081425 -44.164067735801787  1.0383466998475139 -18.009270993377413 0.049761842600367923 -47.534352196490246  0.85353433019613967 -14.198805323507534 0.27419632710468295 -44.164197668018659  1.0383466998475139 -14.660415498939546 0.7241775018691734 -40.078029864845256  1.036729623209609
 0 6 6.2831853071795862 6
7 1 0  8 17 3  -17.981467763121064 0.84042475241774195 -40.077973055580415  1.6690784610682365 -17.651348098824968 7.901720356435602 -40.827972191657778  1.6690784610682363 -14.151508408692141 14.815071765544909 -41.577982760763661  1.669078461068235 -7.5656354172054607 19.920002948145257 -42.32794640420866  1.669078461068239 1.0108003382870434 21.610222083403336 -43.078009413562462  1.6690784610682357 9.3896812667062655 19.127909467567058 -43.827946535833028  1.6690784610682354 15.471821959915417 13.430298382955772 -44.577982507232939  1.6690784610682377 18.311472258233881 6.2208706856998877 -45.327972381648166  1.6690784610682368 17.981467763121088 -0.84042475241772407 -46.077973055580415  1.6690784610682365 17.651342546798109 -7.9017203550710597 -46.827972178798916  1.669078461068231 14.151530208895462 -14.815071770902657 -47.577982811254472  1.6690784610682536 7.5655852122792089 -19.920002935807194 -48.327946287930438  1.6690784610682063 -1.0107178449892711 -21.610222103675376 -49.078009604622707  1.6690784610682667 -9.3897843833276742 -19.127909442227619 -49.827946297008062  1.6690784610682168 -15.47172155006535 -13.430298407630239 -50.577982739788581  1.6690784610682459 -18.311548558942498 -6.2208706669496099 -51.327972204930916  1.6690784610682345 -17.981423346908429 0.84042474150274549 -52.077973158451172  1.6690784610682365
 0 9 3.1415926535897931 8 6.2831853071795862 9
7 1 1  6 6 2  -17.981423346908429 0.84042474150274549 -52.077973158451172  1.6690784610682365 -21.302475542339199 0.95667394570956743 -52.077897936391068  1.0367296232096095 -21.794581434271631 0.54007531393598873 -56.164046697575053  1.0383466998475139 -18.009268382429081 0.049761848053397582 -59.534352145096641  0.85353433019613967 -14.198783895560062 0.27419409098916941 -56.164218742910514  1.0383466998475139 -14.66037115147766 0.72417553729592543 -52.078048380511284  1.036729623209609
 0 6 6.2831853071795862 6
7 1 0  8 17 3  -17.981423346908436 0.84042474150276025 -52.077973158451172  1.6690784610682365 -17.651303686899773 7.901702899364615 -52.82797229465114  1.6690784610682363 -14.151471829958467 14.815036888729058 -53.577982863722262  1.669078461068235 -7.5656144897509101 19.919954682329525 -54.327946507470031  1.669078461068239 1.010800325143709 21.610168746354738 -55.078009516098987  1.6690784610682357 9.3896603155335026 19.127861212081889 -55.827946639409433  1.6690784610682354 15.471785364013735 13.430263524100026 -56.577982609584673  1.6690784610682377 18.311427837725113 6.2208532505265657 -57.327972485096325  1.6690784610682368 17.981423346908457 -0.84042474150274704 -58.077973158451172  1.6690784610682365 17.651298134873038 -7.9017028979968487 -58.827972281761525  1.669078461068231 14.151493630161406 -14.81503689409948 -59.577982914333752  1.6690784610682536 7.5655642848254931 -19.91995466996228 -60.327946390913958  1.6690784610682063 -1.0107178318473107 -21.610168766674757 -61.078009707615855  1.6690784610682667 -9.3897634321531775 -19.127861186682274 -61.827946400013374  1.6690784610682168 -15.471684954165285 -13.430263548833294 -62.577982842696727  1.6690784610682459 -18.311504138432603 -6.2208532317314829 -63.327972307956102  1.6690784610682345 -17.981378930696401 0.84042473056162958 -64.077973261568189  1.6690784610682365
 0 9 3.1415926535897931 8 6.2831853071795862 9
7 1 1  6 6 2  -17.981378930696401 0.84042473056162958 -64.077973261568189  1.6690784610682365 -21.302431057273182 0.9566758884266735 -64.077879626713212  1.0367296232096095 -21.794559848961839 0.54007754614846382 -68.16402565946801  1.0383466998475139 -18.009265771480464 0.04976185350488864 -71.534352093717501  0.85353433019613967 -14.198762467730774 0.27419185486104541 -68.164239817921157  1.0383466998475139 -14.660326804119629 0.72417357269658322 -64.078066896423167  1.036729623209609
 0 6 6.2831853071795862 6
Polygon3D 0
PolygonOnTriangulations 0
Surfaces 8
9 1 1 1 0 6 8 6 17 2 3 -17.981645427977348 0.84042479581638307 7.9220273534400798  1.6690784610682365 -17.651525746634203 7.9017901844604568 7.1720282178533461  1.6690784610682363 -14.151654723836403 14.815211272597905 6.4220176486073202  1.669078461068235 -7.565719127310512 19.920196011290212 5.6720540063761264  1.669078461068239 1.010800390546561 21.610435431606462 4.921990994118576  1.6690784610682357 9.3897650711165497 19.12810248963525 4.1720538760121739  1.6690784610682354 15.471968343321269 13.430437818599531 3.422017899710359  1.6690784610682377 18.311649940172344 6.2209404266564272 2.6720280296821803  1.6690784610682368 17.981645427977362 -0.84042479581636331 1.9220273534400825  1.6690784610682365 17.651520194607123 -7.901790183108985 1.1720282305890279  1.669078461068231 14.151676524040745 -14.8152112779044 0.42201759860025145  1.6690784610682536 7.5656689223818292 -19.920195999070245 -0.32794587845969758  1.6690784610682063 -1.0107178972447652 -21.610435451684385 -1.0780091951113446  1.6690784610682667 -9.3898681877429553 -19.128102464538504 -1.8279458874503698  1.6690784610682168 -15.471867933466303 -13.430437843037685 -2.5779823306181826  1.6690784610682459 -18.311726240884774 -6.2209404080857142 -3.3279717952927421  1.6690784610682345 -17.981601011762418 0.84042478500589635 -4.0779727484456618  1.6690784610682365 
-21.302697966129521 0.95666423173145976 7.9220105115200719  1.0367296232096095 -20.926920827240266 9.3224992625060921 7.1720206718299329  1.0367296232096126 -16.796079943872275 17.518070333098894 6.4220060343316083  1.0367296232095986 -9.0050746754239182 23.583502504752364 5.6720700797472139  1.0367296232096301 1.1503872710547158 25.598509399521703 4.9219441128518158  1.0367296232095846 11.081723785551993 22.681807282568585 4.1720935087587163  1.0367296232096292 18.298896816663543 15.941797072017934 3.4219609060865954  1.036729623209599 21.678360526092145 7.4091655404558212 2.6720544899564223  1.0367296232096128 21.302697966129553 -0.95666423173144355 1.9220105115200559  1.0367296232096095 20.926915266670918 -9.3224995053620248 1.1720183829660522  1.036729623209607 16.796101777618034 -17.518069379517378 0.42201502162573146  1.0367296232096181 9.0050243932506326 -23.583504700809971 -0.32795061760313615  1.0367296232095955 -1.1503046508297476 -25.598505791109563 -1.0780218786784213  1.0367296232096217 -11.081827060832289 -22.681811793083675 -1.8279490018286051  1.0367296232096028 -18.298796252319569 -15.941792679902818 -2.5779976992124554  1.0367296232096113 -21.678436944199358 -7.4091688779913349 -3.3279769655731353  1.0367296232096099 -21.30265348157679 0.95666617457940151 -4.0779711775688918  1.0367296232096095 
-21.794689359051336 0.54006415268315333 3.8358481100945641  1.0383466998475139 -21.582553357338913 9.0991519565156889 3.0858591751669016  1.0383466998475122 -17.528589952674476 17.561085426352239 2.3358493981697377  1.038346699847519 -9.6891034659903603 23.921772893660531 1.5858987131569844  1.0383466998475051 0.6493001376095302 26.189329245731088 0.83579610097123336  1.0383466998475235 10.861616042640595 23.412713025460523 0.085925632411224306  1.0383466998475073 18.376909047245007 16.671251016982342 -0.66420245287411639  1.0383466998475175 22.006770271522463 8.0190177383825993 -1.4141019687871683  1.038346699847513 21.794689359051333 -0.54006415268314034 -2.164151889905451  1.0383466998475139 21.582550659248867 -9.099152235549921 -2.9141434546712843  1.0383466998475084 17.528600546807731 -17.56108433071552 -3.6641402756900594  1.0383466998475321 9.6890790681589287 -23.921775416865295 -4.4141250674980741  1.0383466998474844 -0.64926004876298204 -26.189325099772709 -5.1641648242837679  1.0383466998475408 -10.861666153698367 -23.412718207909204 -5.9141232110200326  1.0383466998474993 -18.376860251583107 -16.671245970570684 -6.6641548915639985  1.038346699847519 -22.006807350988112 -8.0190215731138359 -7.4141381102777846  1.0383466998475133 -21.794667774331305 0.54006638495909953 -8.1641308512000208  1.0383466998475139 
-18.009281437167871 0.049761820772909499 0.46564759779054743  0.85353433019613967 -17.98973495002387 7.121990421628662 -0.28435232240090436  0.85353433019614056 -14.795468660970846 14.18553230677265 -1.0343529563403466  0.85353433019613723 -8.4368037404808405 19.577650130193863 -1.784350732898452  0.853534330196145 0.059849136426688432 21.64364713480871 -2.5343546330789182  0.85353433019613245 8.5448070782024068 19.530749873055193 -3.2843506670656382  0.85353433019614688 14.87364450994502 14.103539517419806 -4.0343530831454615  0.85353433019613489 18.02882115664314 7.0224667544291837 -4.7843522273759174  0.85353433019614156 18.009281437167868 -0.049761820772889188 -5.534352402209449  0.85353433019613967 17.989734623655579 -7.1219904223109562 -6.2843523288323455  0.85353433019613456 14.795469942466003 -14.185532304093362 -7.0343529310870672  0.85353433019615799 8.4368007892524908 -19.577650136364628 -7.7843507910557168  0.85353433019610858 -0.059844287169797283 -21.643647124669009 -8.5343545375188015  0.85353433019617031 -8.5448131397737939 -19.530749885729783 -9.2843507865157697  0.85353433019612057 -14.873638607487397 -14.103539505078166 -10.034352966830959  0.85353433019614688 -18.028825641877461 -7.0224667638073628 -10.784352315762344  0.85353433019613867 -18.00927882622068 0.049761826232070309 -11.534352350757938  0.85353433019613967 
-14.198891036479008 0.27420527144072698 3.8358866303607408  1.0383466998475139 -14.091181217567854 5.8497545116056955 3.0858764341747547  1.0383466998475122 -11.480350600913976 11.379198183664707 2.3358759619460345  1.038346699847519 -6.3970584494343807 15.543182974212932 1.5858619506892966  1.0383466998475051 0.33004177579987282 17.067942213224924 0.83590332620934316  1.0383466998475235 6.9918256622314479 15.2848003848167 0.085834985742039294  1.0383466998475073 11.911254466607431 10.92735561474305 -0.66407209899772646  1.0383466998475175 14.306544416213985 5.3013497031582553 -1.4141624878257133  1.038346699847513 14.198891036479008 -0.27420527144070034 -2.1641133696392365  1.0383466998475139 14.091178539015296 -5.8497542320974603 -2.9141209315232151  1.0383466998475084 11.480361118332635 -11.379199281162395 -3.6641343817216696  1.0383466998475321 6.3970342282735446 -15.543180446723506 -4.4141142282905239  1.0383466998474844 -0.33000197724636759 -17.067946366221801 -5.164135814860817  1.0383466998475408 -6.9918754104231926 -15.284795193571194 -5.9141160879202133  1.0383466998474993 -11.911206024286239 -10.927360669720366 -6.6641197410382347  1.038346699847519 -14.306581227178686 -5.3013458619179117 -7.4141262849884795  1.0383466998475133 -14.198869608058903 0.27420303537561397 -8.1641344440558967  1.0383466998475139 
-14.660592889825161 0.72418535990130772 7.9220441953600966  1.036729623209609 -14.376130666028125 6.4810811064146412 7.1720357638767593  1.0367296232096108 -11.507229503800639 12.112352212097603 6.42202926288308  1.0367296232096026 -6.1263635791970685 16.25688951782665 5.6720379330049537  1.0367296232096219 0.87121351003874903 17.622361463693 4.9220378753854712  1.0367296232095928 7.6978063566803643 15.574397696700581 4.1720142432655569  1.0367296232096221 12.645039869979676 10.919078565181778 3.422074893334158  1.0367296232096015 14.944939354252284 5.0327153128568787 2.6720015694079597  1.0367296232096117 14.660592889825182 -0.72418535990128641 1.9220441953601162  1.036729623209609 14.376125122543232 -6.4810808608559034 1.1720380782120063  1.0367296232096064 11.507251270463655 -12.112353176291487 0.42202017557475191  1.0367296232096179 6.1263134515126412 -16.256887297330305 -0.32794113931625279  1.0367296232095975 -0.8711311436593796 -17.622365112259601 -1.0779965115441943  1.0367296232096139 -7.6979093146538862 -15.574393135992928 -1.8279427730722322  1.0367296232096126 -12.644939614612955 -10.91908300617283 -2.5779669620238161  1.0367296232096035 -14.945015537570187 -5.0327119381800243 -3.3279666250123761  1.0367296232096119 -14.660548541948049 0.72418339543239341 -4.0779743193224256  1.036729623209609 

0 6
6.2831853071795862 6

0 9
3.1415926535897931 8
6.2831853071795862 9

9 1 1 1 0 6 8 6 17 2 3 -17.981601011762422 0.84042478500591256 -4.07797274844566  1.6690784610682365 -17.651481334665629 7.9017727274930607 -4.8279718841551205  1.6690784610682363 -14.151618145018965 14.81517639586642 -5.5779824533658111  1.669078461068235 -7.5656981997410986 19.920147745521252 -6.3279460959010763  1.669078461068239 1.0108003775285432 21.610382094554989 -7.0780091074318765  1.6690784610682357 9.389744120056351 19.128054234098531 -7.8279462265800586  1.6690784610682354 15.471931747499729 13.430402959655801 -8.5779822016559137  1.6690784610682377 18.311605519702333 6.2209229913777149 -9.3279720727810709  1.6690784610682368 17.981601011762443 -0.84042478500589224 -10.077972748445656  1.6690784610682365 17.651475782638656 -7.9017727261383994 -10.827971871388556  1.669078461068231 14.151639945222831 -14.815176401185434 -11.577982503494111  1.6690784610682536 7.5656479948134034 -19.920147733272273 -12.327945980457901  1.6690784610682063 -1.0107178842281845 -21.610382114680871 -13.078009297119898  1.6690784610682667 -9.3898472366811685 -19.128054208941528 -13.827945989470361  1.6690784610682168 -15.471831337646179 -13.430402984152829 -14.577982432541411  1.6690784610682459 -18.311681820413739 -6.2209229727621693 -15.327971897332898  1.6690784610682345 -17.981556595548057 0.84042477416930628 -16.077972850577659  1.6690784610682365 
-21.302653481576797 0.95666617457941083 -4.0779711775688909  1.0367296232096095 -20.926875579534922 9.3224837323349412 -4.8279610173797494  1.0367296232096126 -16.796041774205399 17.518037012207387 -5.577975654867604  1.0367296232095986 -9.0050515954553489 23.583455085328985 -6.3279116096710304  1.0367296232096301 1.1503896077509825 25.598455980344106 -7.0780375759866772  1.0367296232095846 11.081704922285907 22.681758032070128 -7.8278881809751617  1.0367296232096292 18.298861699204068 15.941760549858458 -8.5780207825047015  1.036729623209599 21.678316804415623 7.4091461246561483 -9.3279271997088067  1.0367296232096128 21.302653481576819 -0.95666617457940339 -10.0779711775689  1.0367296232096095 20.926870018952734 -9.3224839751875415 -10.827963306212784  1.036729623209607 16.79606360800156 -17.518036058638927 -11.577966667694575  1.0367296232096181 9.0050013131660354 -23.583457281356697 -12.327932306742511  1.0367296232095955 -1.1503069873354343 -25.598452371980894 -13.078003567975147  1.0367296232096217 -11.081808197804362 -22.681762542524236 -13.827930690989708  1.0367296232096028 -18.298761134628194 -15.941756157802638 -14.577979388361451  1.0367296232096113 -21.678393222699128 -7.4091494621466518 -15.327958654814616  1.0367296232096099 -21.302608996921393 0.95666811740119206 -16.077952866904482  1.0367296232096095 
-21.794667774331309 0.5400663849591123 -8.1641308512000208  1.0383466998475139 -21.582530895778675 9.0991457105494042 -8.9141197861848429  1.0383466998475122 -17.528570419122708 17.561070320835334 -9.6641295631932227  1.038346699847519 -9.6890908676769669 23.921750492555422 -10.41408024825615  1.0383466998475051 0.64930282241633464 26.189303325726357 -11.164182860257903  1.0383466998475235 10.861608289214685 23.412688520474507 -11.914053329155088  1.0383466998475073 18.376893020604889 16.671232233317699 -12.664181413942083  1.0383466998475175 22.006749563331802 8.0190070278968104 -13.414080930359958  1.038346699847513 21.794667774331323 -0.54006638495910464 -14.164130851200031  1.0383466998475139 21.582528197673987 -9.0991459895820253 -14.914122416008073  1.0383466998475084 17.528581013313485 -17.561069225204935 -15.664119237111734  1.0383466998475321 9.6890664697128788 -23.921753015745534 -16.414104028775974  1.0383466998474844 -0.64926273335147133 -26.189299179792162 -17.164143785735153  1.0383466998475408 -10.861658400545743 -23.412693702893055 -17.914102172308507  1.0383466998474993 -18.376844224676585 -16.671227186935155 -18.66413385290252  1.038346699847519 -22.006786643000034 -8.0190108626061072 -19.414117071644977  1.0383466998475133 -21.794646189493321 0.54006861722236821 -20.164109812614274  1.0383466998475139 
-18.00927882622069 0.049761826232086553 -11.534352350757938  0.85353433019613967 -17.989732336932367 7.1219894015389649 -12.28435227095661  0.85353433019614056 -14.795466505947147 14.18553026161222 -13.034352904893979  0.85353433019613723 -8.4368025036680461 19.577647295827589 -13.784350681469896  0.853534330196145 0.0598491429919914 21.643643999462185 -14.534354581607754  0.85353433019613245 8.5448058532358342 19.530747033546284 -15.284350615655649  0.85353433019614688 14.873642363496922 14.103537463262761 -16.034353031663382  0.85353433019613489 18.028818547838874 7.0224657234251469 -16.784352175958372  0.85353433019614156 18.00927882622068 -0.049761826232058728 -17.534352350757935  0.85353433019613967 17.989732010563998 -7.1219894022210379 -18.284352277386226  0.85353433019613456 14.795467787442599 -14.185530258933852 -19.034352879647869  0.85353433019615799 8.4367995524390533 -19.577647301996116 -19.784350739610659  0.85353433019610858 -0.059844293734123255 -21.64364398932608 -20.534354486074704  0.85353433019617031 -8.5448119148083226 -19.530747046216661 -21.284350735072035  0.85353433019612057 -14.873636461038377 -14.103537450924904 -22.034352915381664  0.85353433019614688 -18.02882303307377 -7.0224657328006064 -22.784352264319914  0.85353433019613867 -18.009276215273218 0.049761831689707284 -23.534352299320901  0.85353433019613967 
-14.198869608058907 0.27420303537562513 -8.1641344440558967  1.0383466998475139 -14.091160667476331 5.8497438587369057 -8.9141446403035189  1.0383466998475122 -11.480334705898676 11.379179519682602 -9.6641451124871445  1.038346699847519 -6.3970507740154829 15.543158637376516 -10.414159123987254  1.0383466998475051 0.33003908642052693 17.067916481054759 -11.16411774794885  1.0383466998475235 6.9918131336737908 15.284778155474456 -11.914186089086424  1.0383466998475073 11.911235058707829 10.927340635128141 -12.664093173138207  1.0383466998475175 14.306522109766695 5.3013435224528225 -13.414183562523364  1.038346699847513 14.198869608058908 -0.27420303537560531 -14.164134444055879  1.0383466998475139 14.091157988938479 -5.8497435792270931 -14.914142005986601  1.0383466998475084 11.480345223259542 -11.379180617186419 -15.664155456213264  1.0383466998475321 6.3970265529878141 -15.543156109873067 -16.414135302832637  1.0383466998474844 -0.32999928808601275 -17.067920634074678 -17.164156889239788  1.0383466998475408 -6.9918628815915751 -15.284772964199995 -17.914137162472816  1.0383466998474993 -11.91118661665357 -10.927345690133825 -18.664140815447286  1.038346699847519 -14.306558920528484 -5.3013396811908544 -19.414147359482044  1.0383466998475133 -14.198848179756961 0.2742007992979073 -20.164155518591343  1.0383466998475139 
-14.660548541948049 0.72418339543241483 -4.0779743193224238  1.036729623209609 -14.376087089796282 6.4810617226511855 -4.8279827509303939  1.0367296232096108 -11.507194515832689 12.112315779525483 -5.5779892518643379  1.0367296232096026 -6.1263448040266688 16.256840405713227 -6.3279805821305377  1.0367296232096219 0.87121114730613947 17.622308208766412 -7.0779806388777509  1.0367296232095928 7.697783317826465 15.574350436126592 -7.8280042721843923  1.0367296232096221 12.645001795795784 10.919045369453183 -8.5779436208074173  1.0367296232096015 14.944894234988878 5.0326998580993312 -9.3280169458532409  1.0367296232096117 14.660548541948073 -0.72418339543238852 -10.077974319322408  1.036729623209609 14.376081546324395 -6.4810614770891455 -10.827980436564371  1.0367296232096064 11.50721628244459 -12.112316743732281 -11.577998339293462  1.0367296232096179 6.1262946764599544 -16.256838185187235 -12.327959654173656  1.0367296232095975 -0.87112878112010872 -17.6223118573816 -13.078015026264204  1.0367296232096139 -7.6978862755584965 -15.574345875358302 -13.827961287951318  1.0367296232096126 -12.644901540663987 -10.91904981050325 -14.577985476721221  1.0367296232096035 -14.944970418128385 -5.0326964833776398 -15.32798513985121  1.0367296232096119 -14.660504194174742 0.72418143093741028 -16.077992834250825  1.036729623209609 

0 6
6.2831853071795862 6

0 9
3.1415926535897931 8
6.2831853071795862 9

9 1 1 1 0 6 8 6 17 2 3 -17.981556595548064 0.84042477416931349 -16.077972850577655  1.6690784610682365 -17.651436922707909 7.9017552704998106 -16.827971986409722  1.6690784610682363 -14.151581566222372 14.815141519113631 -17.577982555585621  1.669078461068235 -7.565677272200511 19.920099479740983 -18.327946198423724  1.669078461068239 1.0108003644792891 21.610328757503691 -19.078009209229581  1.6690784610682357 9.3897231689679561 19.128005978575185 -19.827946329417752  1.6690784610682354 15.471895151658197 13.430368100733737 -20.577982303268868  1.6690784610682377 18.311561099222587 6.220905556125448 -21.327972175490466  1.6690784610682368 17.981556595548085 -0.84042477416929595 -22.077972850577652  1.6690784610682365 17.651431370681003 -7.9017552691418027 -22.827971973612428  1.669078461068231 14.151603366425944 -14.815141524445746 -23.57798260583461  1.6690784610682536 7.5656270672735495 -19.920099467461998 -24.327946082702546  1.6690784610682063 -1.0107178711801446 -21.610328777678635 -25.078009399374526  1.6690784610682667 -9.3898262855912904 -19.128005953357086 -25.827946091736706  1.6690784610682168 -15.471794741806015 -13.430368125290087 -26.577982534710866  1.6690784610682459 -18.311637399933009 -6.2209055374649322 -27.327971999619322  1.6690784610682345 -17.98151217933427 0.84042476330658145 -28.077972952955907  1.6690784610682365 
-21.302608996921386 0.95666811740120483 -16.077952866904482  1.0367296232096095 -20.926830331737197 9.3224682020971947 -16.827942706836055  1.0367296232096126 -16.796003604474407 17.518003691214112 -17.577957344313472  1.0367296232095986 -9.0050285154670071 23.583407665781003 -18.327893299335855  1.0367296232096301 1.1503919444161657 25.598402561044075 -19.078019265071894  1.0367296232095846 11.0816860589426 22.681708781471613 -19.827869870955542  1.0367296232096292 18.298826581639773 15.941724027640461 -20.578002471342757  1.036729623209599 21.678273082626035 7.4091267088421411 -21.327908889620595  1.0367296232096128 21.302608996921414 -0.95666811740119573 -22.077952866904493  1.0367296232096095 20.926824771142293 -9.3224684449464768 -22.827944995638255  1.036729623209607 16.796025438320584 -17.518002737658612 -23.577948357261484  1.0367296232096181 9.0049782330623298 -23.583409861778922 -24.32791399612859  1.0367296232095955 -1.1503093238107622 -25.598398952729671 -25.077985257518357  1.0367296232096217 -11.08178933469873 -22.681713291864902 -25.82791238039756  1.0367296232096028 -18.298726016832148 -15.941719635643786 -26.577961077757028  1.0367296232096113 -21.678349501085826 -7.4091300462877223 -27.327940344302739  1.0367296232096099 -21.302564512163315 0.95667006019682888 -28.077934556486706  1.0367296232096095 
-21.794646189493328 0.54006861722238786 -20.164109812614271  1.0383466998475139 -21.582508434105556 9.0991394645238692 -20.914098747656269  1.0383466998475122 -17.528550885483355 17.561055215216157 -21.664108524675783  1.038346699847519 -9.6890782693224775 23.92172809131463 -22.414059209789006  1.0383466998475051 0.64930550720871949 26.189277405581912 -23.164161821606761  1.0383466998475235 10.861600535718813 23.412664015364644 -23.914032290840893  1.0383466998475073 18.376876993857813 16.671213449571802 -24.664160375129882  1.0383466998475175 22.006728855018203 8.0189963173771481 -25.414059892052343  1.038346699847513 21.794646189493335 -0.54006861722237165 -26.164109812614281  1.0383466998475139 21.582505735986047 -9.0991397435552273 -26.914101377464533  1.0383466998475084 17.528561479732431 -17.561054119590839 -27.66409819865304  1.0383466998475321 9.6890538712242407 -23.921730614492638 -28.414082990173611  1.0383466998474844 -0.6492654179238162 -26.189273259668429 -29.164122747306141  1.0383466998475408 -10.861650647324415 -23.41266919775618 -29.914081133716657  1.0383466998474993 -18.376828197662554 -16.671208403216653 -30.664112814360731  1.038346699847519 -22.006765934889117 -8.0190001520650025 -31.414096033131838  1.0383466998475133 -21.794624604537383 0.54007084947294304 -32.16408877414819  1.0383466998475139 
-18.009276215273225 0.049761831689716131 -23.534352299320901  0.85353433019613967 -17.989729723841116 7.1219883814476672 -24.284352219526777  0.85353433019614056 -14.7954643509246 14.185528216450155 -25.034352853462167  0.85353433019613723 -8.4368012668563761 19.577644461460419 -25.784350630055624  0.853534330196145 0.059849149554774606 21.643640864115177 -26.534354530151347  0.85353433019613245 8.5448046282682402 19.530744194037929 -27.284350564259867  0.85353433019614688 14.873640217046818 14.103535409106616 -28.034352980195926  0.85353433019613489 18.028815939033905 7.0224646924225658 -28.784352124555262  0.85353433019614156 18.009276215273218 -0.04976183168969768 -29.534352299320897  0.85353433019613967 17.989729397472743 -7.1219883821295484 -30.284352225954581  0.85353433019613456 14.795465632420031 -14.185528213772523 -31.034352828223149  0.85353433019615799 8.4367983156274438 -19.577644467627334 -31.784350688180073  0.85353433019610858 -0.05984430029696064 -21.643640853981683 -32.534354434645124  0.85353433019617031 -8.5448106898408192 -19.530744206704941 -33.2843506836427  0.85353433019612057 -14.873634314587978 -14.103535396772163 -34.034352863946914  0.85353433019614688 -18.028820424269192 -7.0224647017954078 -34.784352212891946  0.85353433019613867 -18.009273604325458 0.04976183714580304 -35.53435224789834  0.85353433019613967 
-14.198848179756961 0.27420079929792857 -20.164155518591343  1.0383466998475139 -14.091140117507869 5.8497332059019005 -20.914165714900545  1.0383466998475122 -11.480318810990772 11.379160855782875 -21.66416618703931  1.038346699847519 -6.3970430986655495 15.543134300662643 -22.414180198782347  1.0383466998475051 0.33003639702539722 17.067890749026226 -23.164138822226086  1.0383466998475235 6.9918006051587511 15.284755926266818 -23.914207164033606  1.0383466998475073 11.911215650895302 10.927325655616189 -24.664114247397507  1.0383466998475175 14.306499803432738 5.3013373418064766 -25.414204637339822  1.038346699847513 14.198848179756959 -0.27420079929790386 -26.164155518591329  1.0383466998475139 14.091137438984768 -5.8497329263904971 -26.914163080568787  1.0383466998475084 11.480329328293633 -11.379161953292961 -27.664176530823664  1.0383466998475321 6.3970188777715951 -15.543131773144736 -28.414156377493608  1.0383466998474844 -0.32999659891064326 -17.067894902069842 -29.16417796373749  1.0383466998475408 -6.9918503528019134 -15.28475073496285 -29.914158237144282  1.0383466998474993 -11.911167209108335 -10.927330710650493 -30.664161889975151  1.038346699847519 -14.306536613991481 -5.301333500522813 -31.41416843409441  1.0383466998475133 -14.198826751573165 0.27419856320759906 -32.1641765932456  1.0383466998475139 
-14.660504194174752 0.72418143093742648 -16.077992834250821  1.036729623209609 -14.37604351367855 6.4810423389023573 -16.828001265983424  1.0367296232096108 -11.507159527970416 12.112279347013514 -17.578007766857674  1.0367296232096026 -6.1263260289341739 16.256791293699973 -18.327999097511842  1.0367296232096219 0.87120878454305561 17.622254953964831 -19.077999153386827  1.0367296232095928 7.6977602789923729 15.57430317567737 -19.828022787880357  1.0367296232096221 12.64496372167733 10.919012173827745 -20.577962135194738  1.0367296232096015 14.944849115818903 5.0326844034085596 -21.328035461360379  1.0367296232096117 14.660504194174765 -0.72418143093740539 -22.077992834250807  1.036729623209609 14.376037970219622 -6.4810420933371207 -22.827998951586611  1.0367296232096064 11.507181294531476 -12.112280311232926 -23.578016854407647  1.0367296232096179 6.1262759014845933 -16.256789073144834 -24.327978169276747  1.0367296232095975 -0.87112641854952688 -17.622258602628087 -25.078033541230319  1.0367296232096139 -7.6978632364836628 -15.574298614848823 -25.827979803076122  1.0367296232096126 -12.644863466780102 -10.91901661493662 -26.578003991664598  1.0367296232096035 -14.944925298780101 -5.0326810286421164 -27.328003654935905  1.0367296232096119 -14.660459846505233 0.72417946641632991 -28.078011349425104  1.036729623209609 

0 6
6.2831853071795862 6

0 9
3.1415926535897931 8
6.2831853071795862 9

9 1 1 1 0 6 8 6 17 2 3 -17.981512179334274 0.84042476330659766 -28.077972952955911  1.6690784610682365 -17.651392510760992 7.9017378134806808 -28.827972088910567  1.6690784610682363 -14.151544987446817 14.815106642339725 -29.577982658051724  1.669078461068235 -7.5656563446885645 19.920051213949069 -30.327946301192675  1.669078461068239 1.010800351398685 21.610275420453149 -31.078009311273391  1.6690784610682357 9.3897022178514007 19.127957723064561 -31.827946432501825  1.6690784610682354 15.471858555796647 13.430333241833845 -32.577982405128026  1.6690784610682377 18.311516678733131 6.2208881208994775 -33.327972278446104  1.6690784610682368 17.981512179334292 -0.84042476330657978 -34.077972952955911  1.6690784610682365 17.651386958734061 -7.9017378121194062 -34.827972076082553  1.669078461068231 14.151566787650477 -14.815106647684685 -35.577982708421388  1.6690784610682536 7.5656061397615959 -19.92005120164054 -36.327946185193419  1.6690784610682063 -1.0107178580999587 -21.610275440676507 -37.078009501875435  1.6690784610682667 -9.3898053344737917 -19.127957697786055 -37.8279461942493  1.6690784610682168 -15.471758145945618 -13.430333266449047 -38.577982637126595  1.6690784610682459 -18.311592979442608 -6.2208881021941487 -39.327972102151982  1.6690784610682345 -17.98146776312106 0.84042475241772485 -40.077973055580415  1.6690784610682365 
-21.302564512163308 0.95667006019684209 -28.07793455648671  1.0367296232096095 -20.926785083847118 9.3224526717929841 -28.827924396539018  1.0367296232096126 -16.79596543467942 17.517970370118565 -29.577939034005869  1.0367296232095986 -9.0050054354585498 23.583360246109493 -30.327874989247498  1.0367296232096301 1.1503942810496897 25.598349141620222 -31.078000954403539  1.0367296232095846 11.081667195522662 22.681659530774549 -31.827851561182715  1.0367296232096292 18.298791463970272 15.941687505362991 -32.577984160427349  1.036729623209599 21.678229360723535 7.4091072930141468 -33.327890579779051  1.0367296232096128 21.302564512163343 -0.95667006019682033 -34.077934556486724  1.0367296232096095 20.92677952323934 -9.3224529146389443 -34.827926685310359  1.036729623209607 16.795987268576123 -17.517969416576069 -35.57793004707505  1.0367296232096181 9.0049551529375691 -23.583362442077483 -36.327895685761305  1.0367296232095955 -1.1503116602532941 -25.59834553335487 -37.077966947308205  1.0367296232096217 -11.081770471517395 -22.681664041106583 -37.827894070052068  1.0367296232096028 -18.29869089893041 -15.941683113425798 -38.577942767399229  1.0367296232096113 -21.678305779359732 -7.4091106304146397 -39.327922034037499  1.0367296232096099 -21.302520027302581 0.95667200296628163 -40.077916246315567  1.0367296232096095 
-21.794624604537386 0.54007084947295625 -32.16408877414819  1.0383466998475139 -21.582485972319436 9.0991332184395173 -32.914077709247366  1.0383466998475122 -17.528531351757028 17.561040109493202 -33.664087486278035  1.038346699847519 -9.6890656709257357 23.921705689941007 -34.414038171441646  1.0383466998475051 0.64930819198544842 26.189251485294239 -35.16414078307497  1.0383466998475235 10.86159278215364 23.412639510133864 -35.914011252646802  1.0383466998475073 18.376860967003715 16.671194665743155 -36.664139336437053  1.0383466998475175 22.006708146581566 8.0189856068240122 -37.414038853864504  1.038346699847513 21.79462460453739 -0.54007084947294459 -38.164088774148205  1.0383466998475139 21.582483274185112 -9.0991334974691469 -38.914080339040659  1.0383466998475084 17.528541946064177 -17.561039013874566 -39.664077160314108  1.0383466998475321 9.6890412726939275 -23.921708213103859 -40.414061951690769  1.0383466998474844 -0.64926810248116773 -26.189247339405295 -41.164101708996945  1.0383466998475408 -10.861642894033364 -23.412644692495185 -41.914060095244416  1.0383466998474993 -18.376812170541637 -16.671189619417063 -42.66409177593863  1.038346699847519 -22.006745226655166 -8.0189894414899481 -43.414074994738364  1.0383466998475133 -21.79460301946348 0.54007308171081425 -44.164067735801787  1.0383466998475139 
-18.009273604325472 0.049761837145821081 -35.53435224789834  0.85353433019613967 -17.989727110750195 7.1219873613547096 -36.284352168111418  0.85353433019614056 -14.795462195902928 14.1855261712866 -37.034352802044808  0.85353433019613723 -8.4368000300465376 19.577641627092277 -37.784350578655904  0.853534330196145 0.059849156116241531 21.643637728767708 -38.534354478709297  0.85353433019613245 8.5448034032982747 19.530741354530022 -39.284350512878689  0.85353433019614688 14.873638070595643 14.103533354951546 -40.034352928742884  0.85353433019613489 18.028813330227919 7.022463661421412 -40.78435207316663  0.85353433019614156 18.009273604325458 -0.049761837145799848 -41.53435224789834  0.85353433019613967 17.989726784381752 -7.1219873620364655 -42.284352174537418  0.85353433019613456 14.795463477398634 -14.185526168609476 -43.034352776812902  0.85353433019615799 8.4367970788169053 -19.577641633257947 -43.784350636763961  0.85353433019610858 -0.059844306857321783 -21.643637718636469 -44.534354383230024  0.85353433019617031 -8.5448094648720563 -19.530741367193993 -45.284350632227842  0.85353433019612057 -14.873632168135847 -14.103533342620278 -46.034352812526635  0.85353433019614688 -18.028817815463796 -7.0224636707916819 -46.784352161478445  0.85353433019613867 -18.009270993377413 0.049761842600367923 -47.534352196490246  0.85353433019613967 
-14.198826751573161 0.27419856320761904 -32.1641765932456  1.0383466998475139 -14.091119567662586 5.849722553100702 -32.914186789616402  1.0383466998475122 -11.480302916189874 11.379142191965517 -33.664187261710147  1.038346699847519 -6.3970354233855078 15.543109964071213 -34.414201273696534  1.0383466998475051 0.33003370761587281 17.067865017139567 -35.164159896621783  1.0383466998475235 6.9917880766849949 15.284733697193527 -35.914228239099828  1.0383466998475073 11.91119624317064 10.927310676207377 -36.664135321775518  1.0383466998475175 14.306477497211844 5.3013311612191236 -37.414225712275112  1.038346699847513 14.198826751573172 -0.27419856320759717 -38.164176593245585  1.0383466998475139 14.091116889154222 -5.8497222735877523 -38.914184155269801  1.0383466998475084 11.480313433434809 -11.379143289481732 -39.664197605552836  1.0383466998475321 6.3970112026249462 -15.543107436539099 -40.414177452273407  1.0383466998474844 -0.32999390972029463 -17.067869170206624 -41.164199038354006  1.0383466998475408 -6.9918378240541328 -15.28472850586021 -41.914179311934561  1.0383466998474993 -11.911147801650596 -10.927315731270255 -42.664182964621801  1.038346699847519 -14.306514307567678 -5.3013273199137858 -43.414189508825594  1.0383466998475133 -14.198805323507534 0.27419632710468295 -44.164197668018659  1.0383466998475139 
-14.660459846505239 0.72417946641635 -28.078011349425104  1.036729623209609 -14.375999937674855 6.4810229551683074 -28.828019781282222  1.0367296232096108 -11.507124540214253 12.112242914561266 -29.578026282097177  1.0367296232096026 -6.1263072539187178 16.256742181787757 -30.328017613138556  1.0367296232096219 0.87120642174833574 17.622201699287281 -31.078017668142351  1.0367296232095928 7.6977372401791291 15.574255915353747 -31.828041303821703  1.0367296232096221 12.644925647623779 10.918978978305024 -32.577980649828234  1.0367296232096015 14.944803996742507 5.0326689487847434 -33.328053977113299  1.0367296232096117 14.660459846505258 -0.72417946641632991 -34.07801134942509  1.036729623209609 14.375994394228943 -6.4810227095997979 -34.828017466854732  1.0367296232096064 11.507146306724259 -12.112243878793514 -35.578035369767711  1.0367296232096179 6.1262571265865491 -16.256739961203021 -36.327996684625681  1.0367296232095975 -0.87112405594762166 -17.622205347999117 -37.07805205644236  1.0367296232096139 -7.6978401974294455 -15.574251354464524 -37.82799831844676  1.0367296232096126 -12.644825392961224 -10.918983419472923 -38.578022506853856  1.0367296232096035 -14.944880179525374 -5.0326655739734685 -39.328022170266472  1.0367296232096119 -14.660415498939546 0.7241775018691734 -40.078029864845256  1.036729623209609 

0 6
6.2831853071795862 6

0 9
3.1415926535897931 8
6.2831853071795862 9

9 1 1 1 0 6 8 6 17 2 3 -17.981467763121064 0.84042475241774195 -40.077973055580415  1.6690784610682365 -17.651348098824968 7.901720356435602 -40.827972191657778  1.6690784610682363 -14.151508408692141 14.815071765544909 -41.577982760763661  1.669078461068235 -7.5656354172054607 19.920002948145257 -42.32794640420866  1.669078461068239 1.0108003382870434 21.610222083403336 -43.078009413562462  1.6690784610682357 9.3896812667062655 19.127909467567058 -43.827946535833036  1.6690784610682354 15.471821959915417 13.430298382955771 -44.577982507232939  1.6690784610682377 18.311472258233881 6.2208706856998877 -45.327972381648166  1.6690784610682368 17.981467763121088 -0.84042475241772407 -46.077973055580415  1.6690784610682365 17.651342546798109 -7.9017203550710597 -46.827972178798916  1.669078461068231 14.151530208895462 -14.815071770902655 -47.577982811254472  1.6690784610682536 7.5655852122792089 -19.920002935807194 -48.327946287930445  1.6690784610682063 -1.0107178449892711 -21.610222103675376 -49.078009604622707  1.6690784610682667 -9.3897843833276742 -19.127909442227619 -49.827946297008062  1.6690784610682168 -15.47172155006535 -13.430298407630239 -50.577982739788581  1.6690784610682459 -18.311548558942498 -6.2208706669496099 -51.327972204930916  1.6690784610682345 -17.981423346908429 0.8404247415027456 -52.077973158451172  1.6690784610682365 
-21.302520027302585 0.9566720029662954 -40.077916246315567  1.0367296232096095 -20.926739835864666 9.3224371414221743 -40.827906086488618  1.0367296232096126 -16.795927264820303 17.517937048921166 -41.577920723944956  1.0367296232095986 -9.0049823554303856 23.583312826313538 -42.327856679405691  1.0367296232096301 1.1503966176521212 25.598295722073711 -43.077982643981919  1.0367296232095846 11.081648332025583 22.681610279977654 -43.827833251656415  1.0367296232096292 18.298756346195848 15.941650983026875 -44.577965849758634  1.036729623209599 21.678185638708033 7.4090878771718423 -45.32787227018413  1.0367296232096128 21.302520027302617 -0.95667200296628385 -46.077916246315581  1.0367296232096095 20.926734275244016 -9.3224373842650241 -46.827908375229121  1.036729623209607 16.795949098767554 -17.517936095391033 -47.577911737135153  1.0367296232096181 9.0049320727930429 -23.58331502225283 -48.327877375640796  1.0367296232095955 -1.1503139966646554 -25.598292113855898 -49.077948637344548  1.0367296232096217 -11.081751608259003 -22.68161479024992 -49.827875759953322  1.0367296232096028 -18.298655780923703 -15.941646591148254 -50.577924457287978  1.0367296232096113 -21.678262057520648 -7.4090912145275745 -51.327903724018924  1.0367296232096099 -21.302475542339199 0.95667394570956743 -52.077897936391068  1.0367296232096095 
-21.79460301946348 0.54007308171083479 -44.164067735801787  1.0383466998475139 -21.582463510420286 9.0991269722962258 -44.914056670958118  1.0383466998475122 -17.528511817943716 17.561025003666831 -45.664066448000014  1.038346699847519 -9.6890530724867823 23.921683288434039 -46.414017133213783  1.0383466998475051 0.64931087674635091 26.189225564863836 -47.164119744663147  1.0383466998475235 10.861585028519642 23.412615004781895 -47.913990214572046  1.0383466998475073 18.376844940042147 16.671175881831818 -48.664118297864121  1.0383466998475175 22.006687438022073 8.0189748962374008 -49.414017815796264  1.038346699847513 21.794603019463494 -0.54007308171081969 -50.164067735801801  1.0383466998475139 21.58246081227119 -9.0991272513241519 -50.914059300736469  1.0383466998475084 17.52852241230876 -17.561023908054811 -51.664056122094763  1.0383466998475321 9.689028674121662 -23.921685811581789 -52.414040913327767  1.0383466998474844 -0.64927078702308094 -26.189221418999342 -53.164080670807252  1.0383466998475408 -10.861635140673116 -23.412620187113028 -53.914039056891937  1.0383466998474993 -18.376796143313438 -16.671170835534788 -54.664070737636173  1.038346699847519 -22.006724518298316 -8.0189787308814147 -55.414053956464564  1.0383466998475133 -21.794581434271631 0.54007531393598873 -56.164046697575053  1.0383466998475139 
-18.00927099337742 0.049761842600382487 -47.534352196490246  0.85353433019613967 -17.989724497659612 7.1219863412600732 -48.284352116710537  0.85353433019614056 -14.795460040882173 14.18552412612174 -49.034352750641958  0.85353433019613723 -8.4367987932382604 19.577638792722698 -49.784350527270604  0.853534330196145 0.059849162675867262 21.643634593420447 -50.534354427281755  0.85353433019613245 8.5448021783264778 19.53073851502203 -51.284350461511963  0.85353433019614688 14.873635924143063 14.103531300797794 -52.034352877304293  0.85353433019613489 18.028810721421046 7.0224626304215825 -52.784352021792508  0.85353433019614156 18.00927099337741 -0.049761842600363336 -53.534352196490246  0.85353433019613967 17.989724171291108 -7.121986341941656 -54.284352123134724  0.85353433019613456 14.795461322378145 -14.185524123445262 -55.034352725417172  0.85353433019615799 8.4367958420081237 -19.577638798886827 -55.784350585362269  0.85353433019610858 -0.059844313416238748 -21.643634583291838 -56.534354331829398  0.85353433019617031 -8.5448082399010623 -19.53073852768264 -57.284350580827486  0.85353433019612057 -14.873630021682541 -14.103531288469865 -58.034352761120786  0.85353433019614688 -18.02881520665742 -7.0224626397892687 -58.784352110079453  0.85353433019613867 -18.009268382429081 0.049761848053397582 -59.534352145096641  0.85353433019613967 
-14.198805323507537 0.27419632710470521 -44.164197668018659  1.0383466998475139 -14.091099017940342 5.8497119003333529 -44.914207864451043  1.0383466998475122 -11.480287021496423 11.379123528230449 -45.664208336499883  1.038346699847519 -6.397027748174418 15.543085627602277 -46.414222348729261  1.0383466998475051 0.33003101819054859 17.06783928539485 -47.164180971136645  1.0383466998475235 6.9917755482538917 15.28471146825445 -47.914249314284547  1.0383466998475073 11.911176835533027 10.927295696901805 -48.664156396272475  1.0383466998475175 14.306455191104284 5.3013249806907652 -49.414246787329155  1.038346699847513 14.198805323507543 -0.27419632710468161 -50.164197668018637  1.0383466998475139 14.091096339446771 -5.8497116208187512 -50.9142052300896  1.0383466998475084 11.48029753868332 -11.379124625753041 -51.664218680400872  1.0383466998475321 6.397003527547505 -15.543083100055608 -52.414198527171884  1.0383466998474844 -0.32999122051457963 -17.067843438485657 -53.164220113089456  1.0383466998475408 -6.9918252953485256 -15.284706276891599 -53.914200386843511  1.0383466998474993 -11.91112839428023 -10.927300751993293 -54.664204039387307  1.038346699847519 -14.306492001257091 -5.3013211393637389 -55.414210583675569  1.0383466998475133 -14.198783895560062 0.27419409098916941 -56.164218742910514  1.0383466998475139 
-14.660415498939553 0.72417750186918883 -40.078029864845256  1.036729623209609 -14.375956361785244 6.4810035714488556 -40.82803829682701  1.0367296232096108 -11.50708955256402 12.112206482169308 -41.578044797582187  1.0367296232096026 -6.1262884789806016 16.256693069975498 -42.328036129011814  1.0367296232096219 0.87120405892228892 17.622148444734997 -43.078036183142963  1.0367296232095928 7.6977142013864972 15.574208655154777 -43.828059820009514  1.0367296232096221 12.644887573635295 10.918945782885483 -44.577999164707308  1.0367296232096015 14.944758877759661 5.0326534942277341 -45.328072493112181  1.0367296232096117 14.660415498939567 -0.72417750186916707 -46.078029864845242  1.036729623209609 14.375950818352223 -6.4810033258771478 -46.828035982368746  1.0367296232096064 11.507111319023338 -12.112207446414146 -47.578053885373492  1.0367296232096179 6.1262383517653651 -16.256690849361721 -48.328015200220882  1.0367296232095975 -0.87112169331398714 -17.622152093494702 -49.078070571899765  1.0367296232096139 -7.6978171583960489 -15.574204094205488 -49.828016834063689  1.0367296232096126 -12.644787319207296 -10.9189502241121 -50.57804102228878  1.0367296232096035 -14.944835060364234 -5.0326501193717155 -51.328040685842971  1.0367296232096119 -14.66037115147766 0.72417553729592543 -52.078048380511284  1.036729623209609 

0 6
6.2831853071795862 6

0 9
3.1415926535897931 8
6.2831853071795862 9

9 1 1 1 0 6 8 6 17 2 3 -17.981423346908436 0.84042474150276025 -52.077973158451172  1.6690784610682365 -17.651303686899773 7.9017028993646141 -52.82797229465114  1.6690784610682363 -14.151471829958467 14.815036888729058 -53.577982863722262  1.669078461068235 -7.5656144897509101 19.919954682329529 -54.327946507470031  1.669078461068239 1.010800325143709 21.610168746354738 -55.078009516098987  1.6690784610682357 9.3896603155335026 19.127861212081889 -55.827946639409433  1.6690784610682354 15.471785364013735 13.430263524100026 -56.577982609584666  1.6690784610682377 18.311427837725113 6.2208532505265648 -57.327972485096325  1.6690784610682368 17.981423346908457 -0.84042474150274704 -58.077973158451172  1.6690784610682365 17.651298134873038 -7.9017028979968487 -58.827972281761525  1.669078461068231 14.151493630161406 -14.81503689409948 -59.577982914333752  1.6690784610682536 7.5655642848254931 -19.91995466996228 -60.327946390913958  1.6690784610682063 -1.0107178318473107 -21.610168766674757 -61.078009707615863  1.6690784610682667 -9.3897634321531775 -19.127861186682274 -61.827946400013367  1.6690784610682168 -15.471684954165285 -13.430263548833294 -62.577982842696734  1.6690784610682459 -18.311504138432603 -6.2208532317314829 -63.327972307956102  1.6690784610682345 -17.981378930696401 0.84042473056162958 -64.077973261568189  1.6690784610682365 
-21.302475542339206 0.95667394570958242 -52.077897936391061  1.0367296232096095 -20.926694587789818 9.3224216109850602 -52.827887776684825  1.0367296232096126 -16.795889094897209 17.517903727621015 -53.577902414130676  1.0367296232095986 -9.004959275382177 23.583265406394705 -54.327838369810578  1.0367296232096301 1.1503989542229949 25.598242302402969 -55.07796433380679  1.0367296232095846 11.081629468451863 22.681561029082236 -55.827814942376982  1.0367296232096292 18.298721228316154 15.941614460631362 -56.577947539336414  1.036729623209599 21.678141916579655 7.4090684613155053 -57.327853960835888  1.0367296232096128 21.302475542339245 -0.95667394570957187 -58.077897936391082  1.0367296232096095 20.926689027156364 -9.3224218538243466 -58.827890065394492  1.036729623209607 16.795910928894806 -17.517902774104719 -59.577893427442042  1.0367296232096181 9.0049089926288683 -23.583267602302751 -60.327859065766646  1.0367296232095955 -1.1503163330449473 -25.598238694235558 -61.07793032762784  1.0367296232096217 -11.081732744923523 -22.681565539292382 -61.827857450100893  1.0367296232096028 -18.298620662812006 -15.941610068812587 -62.577906147423562  1.0367296232096113 -21.678218335568602 -7.4090717986260932 -63.327885414246921  1.0367296232096099 -21.302431057273182 0.9566758884266735 -64.077879626713212  1.0367296232096095 
-21.794581434271635 0.54007531393601049 -56.164046697575053  1.0383466998475139 -21.582441048408242 9.0991207260936875 -56.914035632788568  1.0383466998475122 -17.528492284042891 17.561009897738192 -57.664045409841563  1.038346699847519 -9.6890404740065925 23.921660886791315 -58.413996095105738  1.0383466998475051 0.64931356149267039 26.189199644293829 -59.164098706370865  1.0383466998475235 10.861577274815749 23.41259049930601 -59.913969176617115  1.0383466998475073 18.376828912973615 16.67115709783922 -60.664097259410724  1.0383466998475175 22.006666729339642 8.018964185616916 -61.413996777847743  1.038346699847513 21.794581434271649 -0.54007531393599639 -62.164046697575074  1.0383466998475139 21.582438350244459 -9.0991210051200557 -62.914038262551948  1.0383466998475084 17.528502878465709 -17.561008802132331 -63.664035083995103  1.0383466998475321 9.6890160755083077 -23.921663409924886 -64.414019875084392  1.0383466998474844 -0.64927347155042803 -26.189195498452705 -65.164059632737221  1.0383466998475408 -10.861627387243024 -23.412595681607819 -65.914018018659135  1.0383466998474993 -18.376780115978292 -16.671152051570832 -66.664049699453372  1.038346699847519 -22.006703809818468 -8.0189680202391465 -67.41403291831044  1.0383466998475133 -21.794559848961839 0.54007754614846382 -68.16402565946801  1.0383466998475139 
-18.009268382429084 0.049761848053409469 -59.534352145096641  0.85353433019613967 -17.989721884569278 7.1219853211639137 -60.284352065324128  0.85353433019614056 -14.795457885862643 14.185522080954886 -61.03435269925356  0.85353433019613723 -8.4367975564309923 19.577635958353035 -61.784350475899807  0.853534330196145 0.059849169232926158 21.643631458071592 -62.53435437586873  0.85353433019613245 8.5448009533535636 19.530735675515619 -63.284350410159654  0.85353433019614688 14.87363377768864 14.10352924664441 -64.034352825880234  0.85353433019613489 18.028808112613369 7.0224615994233757 -64.784351970432837  0.85353433019614156 18.009268382429084 -0.049761848053393606 -65.534352145096634  0.85353433019613967 17.989721558200792 -7.1219853218452087 -66.284352071746511  0.85353433019613456 14.795459167358521 -14.18552207827951 -67.034352674035901  0.85353433019615799 8.4367946052010634 -19.577635964514752 -67.784350533975072  0.85353433019610858 -0.059844319973462845 -21.643631447946753 -68.534354280443239  0.85353433019617031 -8.544807014928212 -19.530735688171774 -69.284350529441596  0.85353433019612057 -14.873627875227788 -14.10352923432046 -70.034352709729433  0.85353433019614688 -18.02881259785018 -7.0224616087882685 -70.784352058694921  0.85353433019613867 -18.009265771480464 0.04976185350488864 -71.534352093717501  0.85353433019613967 
-14.198783895560071 0.27419409098918945 -56.164218742910514  1.0383466998475139 -14.091078468341244 5.8497012475997598 -56.914228939404481  1.0383466998475122 -11.480271126910047 11.379104864577872 -57.664229411408435  1.038346699847519 -6.3970200730330617 15.543061291255638 -58.414243423880791  1.0383466998475051 0.33002832875057919 17.067813553792195 -59.164202045770267  1.0383466998475235 6.9917630198642851 15.284689239449543 -59.914270389588125  1.0383466998475073 11.911157427983211 10.927280717699459 -60.664177470888212  1.0383466998475175 14.306432885109766 5.3013188002213978 -61.414267862502022  1.038346699847513 14.198783895560082 -0.27419409098916175 -62.164218742910492  1.0383466998475139 14.091075789862456 -5.8497009680836713 -62.914226305028194  1.0383466998475084 11.480281644038969 -11.379105962106365 -63.664239755367646  1.0383466998475321 6.3969958525396446 -15.543058763695276 -64.414219602189334  1.0383466998474844 -0.32998853129395034 -17.067817706905679 -65.164241187943475  1.0383466998475408 -6.9918127666847409 -15.284684048058105 -65.914221461871421  1.0383466998474993 -11.911108986997412 -10.927285772819049 -66.664225114271545  1.038346699847519 -14.306469695059665 -5.3013149588728448 -67.414231658644368  1.0383466998475133 -14.198762467730774 0.27419185486104541 -68.164239817921157  1.0383466998475139 
-14.660371151477655 0.72417553729594031 -52.078048380511277  1.036729623209609 -14.375912786009616 6.4809841877441592 -52.828056812617618  1.0367296232096108 -11.507054565020022 12.112170049837111 -53.578063313313301  1.0367296232096026 -6.1262697041193634 16.256643958264178 -54.328054645130493  1.0367296232096219 0.87120169606449949 17.622095190306894 -55.078054698389955  1.0367296232095928 7.6976911626147277 15.574161395081186 -55.828078336442886  1.0367296232096221 12.644849499711723 10.918912587568828 -56.578017679832371  1.0367296232096015 14.944713758870398 5.0326380397376083 -57.32809100935691  1.0367296232096117 14.660371151477696 -0.72417553729591788 -58.078048380511262  1.036729623209609 14.375907242589617 -6.4809839421691837 -58.828054498128594  1.0367296232096064 11.507076331428303 -12.112171014094784 -59.57807240122532  1.0367296232096179 6.126219577021585 -16.256641737620861 -60.328033716061526  1.0367296232095975 -0.87111933064907721 -17.622098839115125 -61.078089087603601  1.0367296232096139 -7.6977941193832677 -15.57415683407126 -61.828035349926004  1.0367296232096126 -12.644749245518378 -10.918917028854443 -62.578059537969828  1.0367296232096035 -14.944789941296655 -5.0326346648367766 -63.328059201665283  1.0367296232096119 -14.660326804119629 0.72417357269658322 -64.078066896423167  1.036729623209609 

0 6
6.2831853071795862 6

0 9
3.1415926535897931 8
6.2831853071795862 9

1 -17.989015598496628 0.62956508343253303 5.9335061499341517 -0.034784647283530576 -0.99380957274300352 0.10551095411249596 1.1358075826780451e-19 -0.10557484473127868 -0.99441135962938731 0.99939483104194626 -0.034590248399444308 0.0036723837359910346 
1 -17.988815994796553 0.62956504430958793 -66.066494218788407 -0.034784645119012039 -0.99380944996750142 0.10551211124433463 -3.125479721775522e-20 -0.10557600255584298 -0.99441123670457832 0.99939483111728389 -0.034590241971126631 0.0036724237819889052 
Triangulations 0

TShapes 38
Ve
4.8625352787909e-05
-17.9816454279773 0.840424795816383 7.92202735344008
0 0

0101101
*
Ve
4.86253527915444e-05
-17.9816010117624 0.840424785005909 -4.07797274844566
0 0

0101101
*
Ed
 1e-07 1 1 0
1  1 0 0 6.28318530717959
3  1 2G1 1 0 0 6.28318530717959
0

0101000
+38 0 -37 0 *
Ed
 1e-07 1 1 0
1  2 0 0 6.28318530717959
2  3 1 0 0 6.28318530717959
0

0101000
+38 0 -38 0 *
Ed
 1e-07 1 1 0
1  3 0 0 6.28318530717959
2  4 1 0 0 6.28318530717959
2  5 2 0 0 6.28318530717959
4 G1 2 0 1 0
0

0101100
+37 0 -37 0 *
Wi

0101100
+36 0 +35 0 -36 0 -34 0 *
Fa
0  1e-07 1 0

0101000
+33 0 *
Ve
4.86255790186068e-05
-17.9815565955481 0.840424774169314 -16.0779728505777
0 0

0101101
*
Ed
 1e-07 1 1 0
1  4 0 0 6.28318530717959
3  6 7G1 2 0 0 6.28318530717959
0

0101000
+37 0 -31 0 *
Ed
 1e-07 1 1 0
1  5 0 0 6.28318530717959
2  8 2 0 0 6.28318530717959
2  9 3 0 0 6.28318530717959
4 G1 3 0 2 0
0

0101100
+31 0 -31 0 *
Wi

0101100
+30 0 +34 0 -30 0 -29 0 *
Fa
0  1e-07 2 0

0101000
+28 0 *
Ve
4.8625805246486e-05
-17.9815121793343 0.84042476330659 -28.0779729529559
0 0

0101101
*
Ed
 1e-07 1 1 0
1  6 0 0 6.28318530717959
3  10 11G1 3 0 0 6.28318530717959
0

0101000
+31 0 -26 0 *
Ed
 1e-07 1 1 0
1  7 0 0 6.28318530717959
2  12 3 0 0 6.28318530717959
2  13 4 0 0 6.28318530717959
4 G1 4 0 3 0
0

0101100
+26 0 -26 0 *
Wi

0101100
+25 0 +29 0 -25 0 -24 0 *
Fa
0  1e-07 3 0

0101000
+23 0 *
Ve
4.86260314721378e-05
-17.9814677631211 0.840424752417738 -40.0779730555804
0 0

0101101
*
Ed
 1e-07 1 1 0
1  8 0 0 6.28318530717959
3  14 15G1 4 0 0 6.28318530717959
0

0101000
+26 0 -21 0 *
Ed
 1e-07 1 1 0
1  9 0 0 6.28318530717959
2  16 4 0 0 6.28318530717959
2  17 5 0 0 6.28318530717959
4 G1 5 0 4 0
0

0101100
+21 0 -21 0 *
Wi

0101100
+20 0 +24 0 -20 0 -19 0 *
Fa
0  1e-07 4 0

0101000
+18 0 *
Ve
4.8626257694568e-05
-17.9814233469084 0.840424741502758 -52.0779731584512
0 0

0101101
*
Ed
 1e-07 1 1 0
1  10 0 0 6.28318530717959
3  18 19G1 5 0 0 6.28318530717959
0

0101000
+21 0 -16 0 *
Ed
 1e-07 1 1 0
1  11 0 0 6.28318530717959
2  20 5 0 0 6.28318530717959
2  21 6 0 0 6.28318530717959
4 G1 6 0 5 0
0

0101100
+16 0 -16 0 *
Wi

0101100
+15 0 +19 0 -15 0 -14 0 *
Fa
0  1e-07 5 0

0101000
+13 0 *
Ve
4.86264839104557e-05
-17.9813789306964 0.84042473056163 -64.0779732615682
0 0

0101101
*
Ed
 1e-07 1 1 0
1  12 0 0 6.28318530717959
3  22 23G1 6 0 0 6.28318530717959
0

0101000
+16 0 -11 0 *
Ed
 1e-07 1 1 0
1  13 0 0 6.28318530717959
2  24 6 0 0 6.28318530717959
0

0101000
+11 0 -11 0 *
Wi

0101100
+10 0 +14 0 -10 0 -9 0 *
Fa
0  1e-07 6 0

0101000
+8 0 *
Wi

0101100
+35 0 *
Fa
0  1e-07 7 0

0101000
+6 0 *
Wi

0101100
+9 0 *
Fa
0  1e-07 8 0

0101000
+4 0 *
Sh

0101100
+32 0 +27 0 +22 0 +17 0 +12 0 +7 0 -5 0 +3 0 *
So

1100100
-2 0 *

+1 0 