DBRep_DrawableShape

CASCADE Topology V3, (c) Open Cascade
Locations 2
1
              1               0               0               0 
              0               1               0               0 
              0               0               1              40 
2  1 -1 0
Curve2ds 56
1 0 -0 0 -1 
1 0 -0 1 0 
1 0 -40 1 0 
1 0 0 1 0 
1 0 -40 1 0 
1 45 0 0 -1 
1 45 0 0 -1 
1 0 0 0 -1 
8 7.7499999999999964 14.749999999999996
1 11.25 -28 1 0 
8 7.7499999999999964 14.749999999999996
1 11.249999999999996 -1 -1 0 
8 -5.999999999062311e-07 7.0000005999999999
1 19.145898033750314 -28 0 -1 
8 -5.999999999062311e-07 7.0000005999999999
1 5.9934336057435385 0 0 1 
8 7.7499999999999964 14.749999999999996
1 11.25 -35 1 0 
8 7.7499999999999964 14.749999999999996
1 11.249999999999996 -1 -1 0 
8 -5.999999999062311e-07 7.0000005999999999
1 25.854101966249679 -28 0 -1 
8 -5.999999999062311e-07 7.0000005999999999
1 3.4313443550258405 0 0 1 
8 7.7499999999999964 14.749999999999996
1 11.25 -12 1 0 
8 7.7499999999999964 14.749999999999996
1 11.249999999999996 -1 -1 0 
8 -5.999999999062311e-07 7.0000005999999999
1 19.145898033750314 -12 0 -1 
8 -5.999999999062311e-07 7.0000005999999999
1 5.9934336057435385 0 0 1 
8 -5.999999999062311e-07 7.0000005999999999
1 25.854101966249679 -12 0 -1 
8 -5.999999999062311e-07 7.0000005999999999
1 3.4313443550258405 0 0 1 
8 7.7499999999999964 14.749999999999996
1 11.25 -19 1 0 
8 7.7499999999999964 14.749999999999996
1 11.249999999999996 -1 -1 0 
8 7.7500000000000036 14.750000000000004
1 11.25 -28 1 0 
8 7.7500000000000036 14.750000000000004
1 -1 -11.250000000000004 0 1 
8 -5.999999999062311e-07 7.0000005999999999
1 19.145898033750321 -28 0 -1 
8 -5.999999999062311e-07 7.0000005999999999
1 4.4226372789486419 0 0 1 
8 7.7500000000000036 14.750000000000004
1 11.25 -35 1 0 
8 7.7500000000000036 14.750000000000004
1 -1 -11.250000000000004 0 1 
8 -5.999999999062311e-07 7.0000005999999999
1 25.854101966249686 -28 0 -1 
8 -5.999999999062311e-07 7.0000005999999999
1 1.8605480282309441 0 0 1 
8 7.7500000000000036 14.750000000000004
1 11.25 -12 1 0 
8 7.7500000000000036 14.750000000000004
1 -1 -11.250000000000004 0 1 
8 -5.999999999062311e-07 7.0000005999999999
1 19.145898033750321 -12 0 -1 
8 -5.999999999062311e-07 7.0000005999999999
1 4.4226372789486419 0 0 1 
8 -5.999999999062311e-07 7.0000005999999999
1 25.854101966249686 -12 0 -1 
8 -5.999999999062311e-07 7.0000005999999999
1 1.8605480282309441 0 0 1 
8 7.7500000000000036 14.750000000000004
1 11.25 -19 1 0 
8 7.7500000000000036 14.750000000000004
1 -1 -11.250000000000004 0 1 
1 0 0 1 0 
2 0 0 1 0 -0 1 3.5
1 0 7 1 0 
2 0 0 1 0 -0 1 3.5
1 0 0 1 0 
2 0 0 1 0 -0 1 3.5
1 0 7 1 0 
2 0 0 1 0 -0 1 3.5
1 0 0 1 0 
2 0 0 1 0 -0 1 3.5
1 0 7 1 0 
2 0 0 1 0 -0 1 3.5
1 0 0 1 0 
2 0 0 1 0 -0 1 3.5
1 0 7 1 0 
2 0 0 1 0 -0 1 3.5
Curves 36
1 0 0 0 0 0 1 
1 50 0 0 0 0 1 
1 0 0 0 1 0 0 
1 0 50 0 0 0 1 
1 0 50 0 0 -1 0 
1 50 5 0 0 0 1 
1 50 0 0 0 1 0 
1 50 5 0 -1 0 0 
1 5 5 0 0 1 0 
1 5 50 0 -1 0 0 
1 5 50 0 0 0 1 
1 5 5 0 0 0 1 
1 38.75 5 28 -1 0 0 
1 30.854101966249686 5 28 0 0 1 
1 38.75 5 35 -1 0 0 
1 24.145898033750321 5 28 0 0 1 
1 38.75 5 12 -1 0 0 
1 30.854101966249686 5 12 0 0 1 
1 24.145898033750321 5 12 0 0 1 
1 38.75 5 19 -1 0 0 
1 5 16.25 28 0 1 -0 
1 5 24.145898033750321 28 0 0 1 
1 5 16.25 35 0 1 -0 
1 5 30.854101966249686 28 0 0 1 
1 5 16.25 12 0 1 -0 
1 5 24.145898033750321 12 0 0 1 
1 5 30.854101966249686 12 0 0 1 
1 5 16.25 19 0 1 -0 
2 27.500000000000004 6 28 0 0 1 1 0 -0 -0 1 0 3.5
2 27.500000000000004 6 35 0 0 1 1 0 -0 -0 1 0 3.5
2 27.500000000000004 6 12 0 0 1 1 0 -0 -0 1 0 3.5
2 27.500000000000004 6 19 0 0 1 1 0 -0 -0 1 0 3.5
2 6 27.500000000000004 28 0 0 1 1 0 -0 -0 1 0 3.5
2 6 27.500000000000004 35 0 0 1 1 0 -0 -0 1 0 3.5
2 6 27.500000000000004 12 0 0 1 1 0 -0 -0 1 0 3.5
2 6 27.500000000000004 19 0 0 1 1 0 -0 -0 1 0 3.5
Polygon3D 0
PolygonOnTriangulations 0
Surfaces 19
1 0 0 0 0 1 0 1 0 0 0 0 -1 
1 0 50 0 1 0 -0 0 -1 0 0 -0 -1 
1 50 0 0 -1 0 0 0 1 0 0 0 -1 
1 50 5 0 0 -1 0 -1 0 0 -0 -0 -1 
1 14.875 14.875 0 0 0 1 1 0 -0 -0 1 0 
1 5 5 0 -1 0 0 0 1 0 0 0 -1 
1 5 50 0 0 -1 0 -1 0 0 -0 -0 -1 
1 27.500000000000004 6 28 0 0 1 1 0 -0 -0 1 0 
2 27.500000000000004 6 28 0 0 1 1 0 -0 -0 1 0 3.5
1 27.500000000000004 6 35 0 0 1 1 0 -0 -0 1 0 
1 27.500000000000004 6 12 0 0 1 1 0 -0 -0 1 0 
2 27.500000000000004 6 12 0 0 1 1 0 -0 -0 1 0 3.5
1 27.500000000000004 6 19 0 0 1 1 0 -0 -0 1 0 
1 6 27.500000000000004 28 0 0 1 1 0 -0 -0 1 0 
2 6 27.500000000000004 28 0 0 1 1 0 -0 -0 1 0 3.5
1 6 27.500000000000004 35 0 0 1 1 0 -0 -0 1 0 
1 6 27.500000000000004 12 0 0 1 1 0 -0 -0 1 0 
2 6 27.500000000000004 12 0 0 1 1 0 -0 -0 1 0 3.5
1 6 27.500000000000004 19 0 0 1 1 0 -0 -0 1 0 
Triangulations 0

TShapes 103
Ve
1e-07
0 0 0
0 0

0101101
*
Ed
 1e-07 1 1 0
1  1 0 0 40
0

0101000
+103 0 -103 1 *
Ve
1e-07
50 0 0
0 0

0101101
*
Ed
 1e-07 1 1 0
1  2 0 0 40
0

0101000
+101 0 -101 1 *
Ed
 1e-07 1 1 0
1  3 0 0 50
0

0101000
+103 0 -101 0 *
Wi

0101100
+102 0 -100 0 -99 0 +99 1 *
Fa
0  1e-07 1 0

0101000
+98 0 *
Ve
1e-07
0 50 0
0 0

0101101
*
Ed
 1e-07 1 1 0
1  4 0 0 40
0

0101000
+96 0 -96 1 *
Ed
 1e-07 1 1 0
1  5 0 0 50
0

0101000
+96 0 -103 0 *
Wi

0101100
+95 0 -102 0 -94 0 +94 1 *
Fa
0  1e-07 2 0

0101000
+93 0 *
Ve
1e-07
50 5 0
0 0

0101101
*
Ed
 1e-07 1 1 0
1  6 0 0 40
2  1 4 0 0 40
0

0101000
+91 0 -91 1 *
Ed
 1e-07 1 1 0
1  7 0 0 5
0

0101000
+101 0 -91 0 *
Wi

0101100
+100 0 -90 0 -89 0 +89 1 *
Fa
0  1e-07 3 0

0101000
+88 0 *
Ve
1e-07
5 5 0
0 0

0101101
*
Ed
 1e-07 1 1 0
1  8 0 0 45
2  2 4 0 0 45
2  3 4 2 0 45
0

0101000
+91 0 -86 0 *
Ve
1e-07
5 50 0
0 0

0101101
*
Ed
 1e-07 1 1 0
1  9 0 0 45
2  4 6 0 0 45
2  5 6 2 0 45
0

0101000
+86 0 -84 0 *
Ed
 1e-07 1 1 0
1  10 0 0 5
0

0101000
+84 0 -96 0 *
Wi

0101100
+99 0 +89 0 +85 0 +83 0 +82 0 +94 0 *
Fa
0  1e-07 5 0

0101000
+81 0 *
Ed
 1e-07 1 1 0
1  11 0 0 40
2  6 6 0 0 40
0

0101000
+84 0 -84 1 *
Wi

0101100
+79 0 -95 0 -82 0 +82 1 *
Fa
0  1e-07 7 0

0101000
+78 0 *
Ed
 1e-07 1 1 0
1  12 0 0 40
2  7 4 0 0 40
2  8 6 0 0 40
0

0101000
+86 0 -86 1 *
Wi

0101100
+90 0 -85 0 +85 1 -76 0 *
Ve
1.50000001776357e-07
30.8541019662497 5 28
0 0

0101101
*
Ve
1.50000000888178e-07
24.1458980337503 5 28
0 0

0101101
*
Ed
 1.5e-07 1 1 0
1  13 0 7.89589803375031 14.6041019662497
2  9 4 0 7.89589803375031 14.6041019662497
2  10 8 0 7.89589803375031 14.6041019662497
0

0101000
+74 0 -73 0 *
Ve
1.50000001776357e-07
30.8541019662497 5 35
0 0

0101101
*
Ed
 1e-07 1 1 0
1  14 0 0 7
2  11 4 0 0 7
2  12 9 0 0 7
0

0101000
+74 0 -71 0 *
Ve
1.50000000888178e-07
24.1458980337503 5 35
0 0

0101101
*
Ed
 1.5e-07 1 1 0
1  15 0 7.89589803375031 14.6041019662497
2  13 4 0 7.89589803375031 14.6041019662497
2  14 10 0 7.89589803375031 14.6041019662497
0

0101000
+71 0 -69 0 *
Ed
 1e-07 1 1 0
1  16 0 0 7
2  15 4 0 0 7
2  16 9 0 0 7
0

0101000
+73 0 -69 0 *
Wi

0101100
+72 0 -70 0 -68 0 +67 0 *
Ve
1.50000001776357e-07
30.8541019662497 5 12
0 0

0101101
*
Ve
1.50000000888178e-07
24.1458980337503 5 12
0 0

0101101
*
Ed
 1.5e-07 1 1 0
1  17 0 7.89589803375031 14.6041019662497
2  17 4 0 7.89589803375031 14.6041019662497
2  18 11 0 7.89589803375031 14.6041019662497
0

0101000
+65 0 -64 0 *
Ve
1.50000001776357e-07
30.8541019662497 5 19
0 0

0101101
*
Ed
 1e-07 1 1 0
1  18 0 0 7
2  19 4 0 0 7
2  20 12 0 0 7
0

0101000
+65 0 -62 0 *
Ve
1.50000000888178e-07
24.1458980337503 5 19
0 0

0101101
*
Ed
 1e-07 1 1 0
1  19 0 0 7
2  21 4 0 0 7
2  22 12 0 0 7
0

0101000
+64 0 -60 0 *
Ed
 1.5e-07 1 1 0
1  20 0 7.89589803375031 14.6041019662497
2  23 4 0 7.89589803375031 14.6041019662497
2  24 13 0 7.89589803375031 14.6041019662497
0

0101000
+62 0 -60 0 *
Wi

0101100
+63 0 -61 0 +59 0 -58 0 *
Fa
0  1e-07 4 0

0101000
+75 0 +66 0 +57 0 *
Wi

0101100
+76 0 -83 0 +83 1 -79 0 *
Ve
1.50000001776357e-07
5 24.1458980337503 28
0 0

0101101
*
Ve
1.50000000888178e-07
5 30.8541019662497 28
0 0

0101101
*
Ed
 1.5e-07 1 1 0
1  21 0 7.89589803375032 14.6041019662497
2  25 6 0 7.89589803375032 14.6041019662497
2  26 14 0 7.89589803375032 14.6041019662497
0

0101000
+54 0 -53 0 *
Ve
1.50000001776357e-07
5 24.1458980337503 35
0 0

0101101
*
Ed
 1e-07 1 1 0
1  22 0 0 7
2  27 6 0 0 7
2  28 15 0 0 7
0

0101000
+54 0 -51 0 *
Ve
1.50000000888178e-07
5 30.8541019662497 35
0 0

0101101
*
Ed
 1.5e-07 1 1 0
1  23 0 7.89589803375032 14.6041019662497
2  29 6 0 7.89589803375032 14.6041019662497
2  30 16 0 7.89589803375032 14.6041019662497
0

0101000
+51 0 -49 0 *
Ed
 1e-07 1 1 0
1  24 0 0 7
2  31 6 0 0 7
2  32 15 0 0 7
0

0101000
+53 0 -49 0 *
Wi

0101100
+52 0 -50 0 -48 0 +47 0 *
Ve
1.50000001776357e-07
5 24.1458980337503 12
0 0

0101101
*
Ve
1.50000000888178e-07
5 30.8541019662497 12
0 0

0101101
*
Ed
 1.5e-07 1 1 0
1  25 0 7.89589803375032 14.6041019662497
2  33 6 0 7.89589803375032 14.6041019662497
2  34 17 0 7.89589803375032 14.6041019662497
0

0101000
+45 0 -44 0 *
Ve
1.50000001776357e-07
5 24.1458980337503 19
0 0

0101101
*
Ed
 1e-07 1 1 0
1  26 0 0 7
2  35 6 0 0 7
2  36 18 0 0 7
0

0101000
+45 0 -42 0 *
Ve
1.50000000888178e-07
5 30.8541019662497 19
0 0

0101101
*
Ed
 1e-07 1 1 0
1  27 0 0 7
2  37 6 0 0 7
2  38 18 0 0 7
0

0101000
+44 0 -40 0 *
Ed
 1.5e-07 1 1 0
1  28 0 7.89589803375032 14.6041019662497
2  39 6 0 7.89589803375032 14.6041019662497
2  40 19 0 7.89589803375032 14.6041019662497
0

0101000
+42 0 -40 0 *
Wi

0101100
+43 0 -41 0 +39 0 -38 0 *
Fa
0  1e-07 6 0

0101000
+55 0 +46 0 +37 0 *
Ed
 1e-07 1 1 0
1  29 0 3.43134435502584 5.99343360574354
2  41 9 0 3.43134435502584 5.99343360574354
2  42 8 0 3.43134435502584 5.99343360574354
0

0101000
+73 0 -74 0 *
Wi

0101100
+72 0 +35 0 *
Fa
0  1e-07 8 0

0101000
+34 0 *
Ed
 1e-07 1 1 0
1  30 0 3.43134435502584 5.99343360574354
2  43 9 0 3.43134435502584 5.99343360574354
2  44 10 0 3.43134435502584 5.99343360574354
0

0101000
+69 0 -71 0 *
Wi

0101100
-32 0 +70 0 +35 0 -67 0 *
Fa
0  1e-07 9 0

0101000
+31 0 *
Wi

0101100
+68 0 +32 0 *
Fa
0  1e-07 10 0

0101000
+29 0 *
Ed
 1e-07 1 1 0
1  31 0 3.43134435502584 5.99343360574354
2  45 12 0 3.43134435502584 5.99343360574354
2  46 11 0 3.43134435502584 5.99343360574354
0

0101000
+64 0 -65 0 *
Wi

0101100
+63 0 +27 0 *
Fa
0  1e-07 11 0

0101000
+26 0 *
Ed
 1e-07 1 1 0
1  32 0 3.43134435502584 5.99343360574354
2  47 12 0 3.43134435502584 5.99343360574354
2  48 13 0 3.43134435502584 5.99343360574354
0

0101000
+60 0 -62 0 *
Wi

0101100
-24 0 +61 0 +27 0 -59 0 *
Fa
0  1e-07 12 0

0101000
+23 0 *
Wi

0101100
+58 0 +24 0 *
Fa
0  1e-07 13 0

0101000
+21 0 *
Ed
 1e-07 1 1 0
1  33 0 1.86054802823094 4.42263727894864
2  49 15 0 1.86054802823094 4.42263727894864
2  50 14 0 1.86054802823094 4.42263727894864
0

0101000
+53 0 -54 0 *
Wi

0101100
+52 0 +19 0 *
Fa
0  1e-07 14 0

0101000
+18 0 *
Ed
 1e-07 1 1 0
1  34 0 1.86054802823094 4.42263727894864
2  51 15 0 1.86054802823094 4.42263727894864
2  52 16 0 1.86054802823094 4.42263727894864
0

0101000
+49 0 -51 0 *
Wi

0101100
-16 0 +50 0 +19 0 -47 0 *
Fa
0  1e-07 15 0

0101000
+15 0 *
Wi

0101100
+48 0 +16 0 *
Fa
0  1e-07 16 0

0101000
+13 0 *
Ed
 1e-07 1 1 0
1  35 0 1.86054802823094 4.42263727894864
2  53 18 0 1.86054802823094 4.42263727894864
2  54 17 0 1.86054802823094 4.42263727894864
0

0101000
+44 0 -45 0 *
Wi

0101100
+43 0 +11 0 *
Fa
0  1e-07 17 0

0101000
+10 0 *
Ed
 1e-07 1 1 0
1  36 0 1.86054802823094 4.42263727894864
2  55 18 0 1.86054802823094 4.42263727894864
2  56 19 0 1.86054802823094 4.42263727894864
0

0101000
+40 0 -42 0 *
Wi

0101100
-8 0 +41 0 +11 0 -39 0 *
Fa
0  1e-07 18 0

0101000
+7 0 *
Wi

0101100
+38 0 +8 0 *
Fa
0  1e-07 19 0

0101000
+5 0 *
Sh

0101100
-97 0 -92 0 -87 0 -80 0 +80 1 -77 0 -56 0 -36 0 +33 0 -30 0 
-28 0 +25 0 -22 0 -20 0 +17 0 -14 0 -12 0 +9 0 -6 0 -4 0 
*
So

0100000
+3 0 *
Co

1100000
+2 0 *

+1 0 