DBRep_DrawableShape

CASCADE Topology V3, (c) Open Cascade
Locations 2
1
              1               0               0               0 
              0               1               0               0 
              0               0               1              40 
2  1 -1 0
Curve2ds 46
1 0 -0 1 0 
1 0 0 0 1 
1 37 0 0 -1 
1 0 -0 0 -1 
1 0 -40 1 0 
2 22.499999999999996 -28 0 -1 -1 -0 3.5
1 0 6 1 0 
2 22.499999999999996 -12 0 -1 -1 -0 3.5
1 0 6 1 0 
1 0 0 1 0 
2 -1.8750000000000018 -1.8750000000000018 0 -1 -1 -0 8
1 0 0 1 0 
1 0 0 1 0 
1 0 -40 1 0 
1 0 0 1 0 
1 0 -40 1 0 
1 1.5707963267948966 0 0 1 
1 7.9999999999999982 0 0 -1 
1 0 40 1 0 
2 -1.8750000000000018 -1.8750000000000018 0 -1 -1 -0 8
1 50 0 0 -1 
1 0 -40 1 0 
1 6.2831853071795862 -0 0 1 
1 0 -0 0 1 
2 27.500000000000004 -28 0 -1 1 0 3.5
1 0 1 1 0 
1 6.2831853071795862 -0 0 1 
1 0 -0 0 1 
2 27.500000000000004 -12 0 -1 1 0 3.5
1 0 1 1 0 
1 45 0 0 -1 
2 22.500000000000004 -28 0 -1 -1 -0 3.5
1 0 6 1 0 
2 22.500000000000004 -12 0 -1 -1 -0 3.5
1 0 6 1 0 
1 0 0 0 -1 
1 50 0 0 -1 
1 0 0 0 -1 
2 22.499999999999996 -28 0 -1 1 0 3.5
1 0 1 1 0 
2 22.499999999999996 -12 0 -1 1 0 3.5
1 0 1 1 0 
1 6.2831853071795862 -0 0 1 
1 0 -0 0 1 
1 6.2831853071795862 -0 0 1 
1 0 -0 0 1 
Curves 27
1 50 5 0 -1 0 0 
1 12.999999999999998 4.9999999999999982 0 0 0 1 
1 50 5 0 0 0 1 
2 27.500000000000004 5 28 0 1 0 0 -0 1 1 0 -0 3.5
2 27.500000000000004 5 12 0 1 0 0 -0 1 1 0 -0 3.5
8 0 1.5707963267948966
2 12.999999999999998 12.999999999999998 0 -0 -0 -1 0 -1 0 -1 0 0 8
1 50 0 0 0 1 0 
1 5 5 0 0 1 0 
1 0 0 0 1 0 0 
1 5 50 0 -1 0 0 
1 0 50 0 0 -1 0 
1 4.9999999999999982 12.999999999999998 0 0 0 1 
8 0 1.5707963267948966
2 12.999999999999998 12.999999999999998 40 -0 -0 -1 0 -1 0 -1 0 0 8
1 50 0 0 0 0 1 
1 27.500000000000004 -1 31.5 0 1 0 
2 27.500000000000004 0 28 0 1 0 0 -0 1 1 0 -0 3.5
1 27.500000000000004 -1 15.5 0 1 0 
2 27.500000000000004 0 12 0 1 0 0 -0 1 1 0 -0 3.5
1 5 50 0 0 0 1 
2 5 27.500000000000004 28 1 0 0 -0 0 1 0 -1 0 3.5
2 5 27.500000000000004 12 1 0 0 -0 0 1 0 -1 0 3.5
1 0 0 0 0 0 1 
1 0 50 0 0 0 1 
2 0 27.500000000000004 28 1 0 0 -0 0 1 0 -1 0 3.5
2 0 27.500000000000004 12 1 0 0 -0 0 1 0 -1 0 3.5
1 -1 27.500000000000004 31.5 1 0 0 
1 -1 27.500000000000004 15.5 1 0 0 
Polygon3D 0
PolygonOnTriangulations 0
Surfaces 12
1 50 5 0 0 -1 0 -1 0 0 -0 -0 -1 
2 12.999999999999998 12.999999999999998 0 0 0 1 0 -1 0 -1 -0 0 8
2 27.500000000000004 -1 28 0 1 0 0 -0 1 1 0 -0 3.5
2 27.500000000000004 -1 12 0 1 0 0 -0 1 1 0 -0 3.5
1 14.875 14.875 0 0 0 1 1 0 -0 -0 1 0 
1 5 5 0 -1 0 0 0 1 0 0 0 -1 
1 0 0 0 0 1 0 1 0 0 0 0 -1 
1 0 50 0 1 0 -0 0 -1 0 0 -0 -1 
1 50 0 0 -1 0 0 0 1 0 0 0 -1 
2 -1 27.500000000000004 28 1 0 0 -0 0 1 0 -1 0 3.5
2 -1 27.500000000000004 12 1 0 0 -0 0 1 0 -1 0 3.5
1 5 50 0 0 -1 0 -1 0 0 -0 -0 -1 
Triangulations 0

TShapes 83
Ve
1e-07
13 5 0
0 0

0101101
*
Ve
1e-07
50 5 0
0 0

0101101
*
Ed
 1e-07 1 1 0
1  1 0 0 37
2  1 1 0 0 37
0

0101000
-83 0 +82 0 *
Ve
1e-07
13 5 40
0 0

0101101
*
Ed
 1e-07 1 1 0
1  2 0 -0 40
2  2 2 0 -0 40
2  3 1 0 -0 40
4 G1 2 0 1 0
0

0101000
+83 0 -80 0 *
Ed
 1e-07 1 1 0
1  3 0 0 40
2  4 1 0 0 40
0

0101000
+82 0 -82 1 *
Ed
 1e-07 1 1 0
1  1 0 0 37
2  5 1 2 0 37
0

0101000
-80 2 +82 0 *
Wi

0101100
-81 0 -79 0 +78 0 +77 1 *
Ve
1e-07
27.5 5 31.5
0 0

0101101
*
Ed
 1e-07 1 1 0
1  4 0 0 6.28318530717959
2  6 1 0 0 6.28318530717959
2  7 3 0 0 6.28318530717959
0

0101100
+75 0 -75 0 *
Wi

0101100
+74 0 *
Ve
1e-07
27.5 5 15.5
0 0

0101101
*
Ed
 1e-07 1 1 0
1  5 0 0 6.28318530717959
2  8 1 0 0 6.28318530717959
2  9 4 0 0 6.28318530717959
0

0101100
+72 0 -72 0 *
Wi

0101100
+71 0 *
Fa
0  1e-07 1 0

0101000
+76 0 +73 0 +70 0 *
Ve
1e-07
5 13 0
0 0

0101101
*
Ed
 1e-07 1 1 0
1  6 0 0 1.5707963267949
2  10 2 0 0 1.5707963267949
2  11 5 0 0 1.5707963267949
0

0101000
+83 0 -68 0 *
Ve
1e-07
50 0 0
0 0

0101101
*
Ed
 1e-07 1 1 0
1  7 0 0 5
0

0101000
+66 0 -82 0 *
Ve
1e-07
5 50 0
0 0

0101101
*
Ed
 1e-07 1 1 0
1  8 0 8 45
2  12 6 0 8 45
0

0101000
+68 0 -64 0 *
Ve
1e-07
0 0 0
0 0

0101101
*
Ed
 1e-07 1 1 0
1  9 0 0 50
2  13 7 0 0 50
2  14 7 2 0 50
0

0101000
+62 0 -66 0 *
Ve
1e-07
0 50 0
0 0

0101101
*
Ed
 1e-07 1 1 0
1  10 0 0 5
0

0101000
+64 0 -60 0 *
Ed
 1e-07 1 1 0
1  11 0 0 50
2  15 8 0 0 50
2  16 8 2 0 50
0

0101000
+60 0 -62 0 *
Wi

0101100
+81 0 +67 0 +65 0 +63 0 +61 0 +59 0 +58 0 *
Fa
0  1e-07 5 0

0101000
+57 0 *
Ve
1e-07
5 13 40
0 0

0101101
*
Ed
 1e-07 1 1 0
1  12 0 -0 40
2  17 2 0 -0 40
2  18 6 0 -0 40
4 G1 2 0 6 0
0

0101000
+68 0 -55 0 *
Ed
 1e-07 1 1 0
1  13 0 0 1.5707963267949
2  19 2 0 0 1.5707963267949
2  20 5 1 0 1.5707963267949
0

0101000
+80 0 -55 0 *
Wi

0101100
+67 0 -79 0 +54 0 -53 0 *
Fa
0  0 2 0

0101000
+52 0 *
Ed
 1e-07 1 1 0
1  14 0 0 40
2  21 7 0 0 40
0

0101000
+66 0 -66 1 *
Wi

0101100
+50 0 -78 0 -65 0 +65 1 *
Fa
0  1e-07 9 0

0101000
+49 0 *
Ed
 1e-07 1 1 0
1  8 0 8 45
2  22 6 2 8 45
0

0101000
+55 2 -64 0 *
Wi

0101100
+77 1 +53 0 +65 1 +47 1 +61 1 +59 1 +58 1 *
Fa
0  1e-07 5 0

0101000
+46 2 *
Ve
1e-07
27.5 0 31.5
0 0

0101101
*
Ed
 1e-07 1 1 0
1  15 0 1 6
3  23 24CN 3 0 1 6
0

0101000
+44 0 -75 0 *
Ed
 1e-07 1 1 0
1  16 0 0 6.28318530717959
2  25 7 0 0 6.28318530717959
2  26 3 0 0 6.28318530717959
0

0101100
+44 0 -44 0 *
Wi

0101100
-74 0 +43 0 +42 0 -43 0 *
Fa
0  1e-07 3 0

0101000
+41 0 *
Ve
1e-07
27.5 0 15.5
0 0

0101101
*
Ed
 1e-07 1 1 0
1  17 0 1 6
3  27 28CN 4 0 1 6
0

0101000
+39 0 -72 0 *
Ed
 1e-07 1 1 0
1  18 0 0 6.28318530717959
2  29 7 0 0 6.28318530717959
2  30 4 0 0 6.28318530717959
0

0101100
+39 0 -39 0 *
Wi

0101100
-71 0 +38 0 +37 0 -38 0 *
Fa
0  1e-07 4 0

0101000
+36 0 *
Ed
 1e-07 1 1 0
1  19 0 0 40
2  31 6 0 0 40
0

0101000
+64 0 -64 1 *
Wi

0101100
-63 0 +54 0 -34 0 +47 1 *
Ve
1e-07
5 27.5 31.5
0 0

0101101
*
Ed
 1e-07 1 1 0
1  20 0 0 6.28318530717959
2  32 6 0 0 6.28318530717959
2  33 10 0 0 6.28318530717959
0

0101100
+32 0 -32 0 *
Wi

0101100
+31 0 *
Ve
1e-07
5 27.5 15.5
0 0

0101101
*
Ed
 1e-07 1 1 0
1  21 0 0 6.28318530717959
2  34 6 0 0 6.28318530717959
2  35 11 0 0 6.28318530717959
0

0101100
+29 0 -29 0 *
Wi

0101100
+28 0 *
Fa
0  1e-07 6 0

0101000
+33 0 +30 0 +27 0 *
Ed
 1e-07 1 1 0
1  22 0 0 40
2  36 7 0 0 40
2  37 8 0 0 40
0

0101000
+62 0 -62 1 *
Wi

0101100
+25 0 -61 0 +61 1 -50 0 *
Wi

0101100
-42 0 *
Wi

0101100
-37 0 *
Fa
0  1e-07 7 0

0101000
+24 0 +23 0 +22 0 *
Ed
 1e-07 1 1 0
1  23 0 0 40
2  38 8 0 0 40
0

0101000
+60 0 -60 1 *
Wi

0101100
+34 0 -20 0 -59 0 +59 1 *
Fa
0  1e-07 12 0

0101000
+19 0 *
Wi

0101100
+20 0 -58 0 +58 1 -25 0 *
Ve
1e-07
0 27.5 31.5
0 0

0101101
*
Ed
 1e-07 1 1 0
1  24 0 0 6.28318530717959
2  39 8 0 0 6.28318530717959
2  40 10 0 0 6.28318530717959
0

0101100
+16 0 -16 0 *
Wi

0101100
-15 0 *
Ve
1e-07
0 27.5 15.5
0 0

0101101
*
Ed
 1e-07 1 1 0
1  25 0 0 6.28318530717959
2  41 8 0 0 6.28318530717959
2  42 11 0 0 6.28318530717959
0

0101100
+13 0 -13 0 *
Wi

0101100
-12 0 *
Fa
0  1e-07 8 0

0101000
+17 0 +14 0 +11 0 *
Ed
 1e-07 1 1 0
1  26 0 1 6
3  43 44CN 10 0 1 6
0

0101000
+16 0 -32 0 *
Wi

0101100
-31 0 +9 0 +15 0 -9 0 *
Fa
0  1e-07 10 0

0101000
+8 0 *
Ed
 1e-07 1 1 0
1  27 0 1 6
3  45 46CN 11 0 1 6
0

0101000
+13 0 -29 0 *
Wi

0101100
-28 0 +6 0 +12 0 -6 0 *
Fa
0  1e-07 11 0

0101000
+5 0 *
Sh

0101100
-69 0 -56 0 +51 0 -48 0 +45 1 -40 0 -35 0 -26 0 -21 0 -18 0 
-10 0 -7 0 -4 0 *
So

0100000
+3 0 *
Co

1100000
+2 0 *

+1 0 