DBRep_DrawableShape

CASCADE Topology V3, (c) Open Cascade
Locations 0
Curve2ds 114
2 0 0 -1 0 0 1 25
1 0 17 1 0 
2 0 0 -1 0 0 1 75
1 0 0 1 0 
2 0 0 1 0 -0 1 25
1 0 0 1 0 
1 6.2831853071795862 0 0 1 
1 0 0 0 1 
1 6.2831853071795862 0 0 1 
1 0 0 0 1 
1 0 15 1 0 
2 0 0 1 0 -0 1 75
7 0 0  5 22 6  4.0047876565288973 15.000000600062029  4.0066443606229267 14.77690935518071  4.0086638228347642 14.559222459675874  4.0108382355766246 14.347387671845306  4.0131593377143258 14.141831118459711  4.0171674336306342 13.817677744630757  4.018771369852824 13.695038947086974  4.0204281578040924 13.575130331894162  4.0221358276699188 13.458034964220809  4.0278740452228767 13.084972657861506  4.0321066527286495 12.840998962942043  4.0365689995308234 12.612732048295777  4.0412403449746899 12.401007255604959  4.0526481886284067 11.94485167560987  4.0595406876084281 11.714510652234047  4.0667275150920785 11.517816689079922  4.0741582886656067 11.356999492900808  4.0856036356433858 11.172917629842678  4.0894750147882295 11.121048859040746  4.0933857711527164 11.079128575926044  4.0973274661341055 11.047451252872264  4.1012914176134361 11.026288982215693 
 0 6 0.16816336337262847 4 0.27409697533194294 4 0.51420497496216055 4 0.83769942994828939 4 1 6
7 0 0  5 22 6  3.5845036027881352 14.567835448961581  3.6197774241940643 14.658351560578938  3.6549344930382714 14.756556686365238  3.6899856476493369 14.86198344416481  3.7249397149004775 14.97413477188438  3.7817646664641709 15.167047741360667  3.8036923865025125 15.244074013068309  3.8255896309053719 15.323446667216297  3.8474606659895749 15.405046130197169  3.918834728341317 15.678490948628134  3.9682427016858171 15.879040891917096  4.0176042224741391 16.08909518369143  4.0669824668663335 16.307378224113741  4.1830808718111721 16.836193944294298  4.249890553395403 17.152539032745878  4.3170222023160187 17.478675816131592  4.3846240217268333 17.811683551094152  4.4870990864576514 18.317828434975532  4.5214916473599756 18.487924591836624  4.5560486014423383 18.658594146484624  4.5907794141461427 18.82942183913125  4.625695013336367 19.0000006 
 0 6 0.16816336337262847 4 0.27409697533194294 4 0.51420497496216055 4 0.83769942994828939 4 1 6
8 9.5999999999999996 15.000000600062029
1 4.1012914036703503 0 0 1 
8 9.5999999999999996 15.000000600062029
1 -0.60609873671559455 -18 0 1 
7 0 0  7 38 7  4.6279613075174915 15.000000600062029  4.6311307609015682 14.50065088656838  4.6349777029689552 14.0131922332092  4.6395298520278754 13.541657110315699  4.6448195400308308 13.091446692678359  4.6508796726895607 12.669621316365102  4.6577372768771026 12.285396120846018  4.6687333991129281 11.805658642467938  4.6722171550228229 11.669720938964558  4.6758468108520459 11.544522119317881  4.6796132003511968 11.431352429205585  4.6835056253214598 11.331408836959625  4.6875119785176631 11.245792230576459  4.6944897439682185 11.12637078702763  4.6974078148584013 11.084761046702539  4.7003642284112521 11.051069134938871  4.7033499202898472 11.025592927617099  4.7063556202866019 11.008534468096434  4.7093718599788943 11  4.7154061007905259 11  4.718422340482781 11.008534468096675  4.7214280404794975 11.025592927617  4.7244137323580935 11.051069134938388  4.7273701459109825 11.084761046702384  4.7302882168012035 11.126370787028367  4.7374261704221254 11.248533781963548  4.7415841899523574 11.338102061783193  4.7456184168490569 11.443082308799378  4.7495156100745515 11.562239167344165  4.7532641606866841 11.694232202112918  4.7568542290123315 11.837619028808744  4.7677344545254838 12.32460748720943  4.774410008824626 12.705466204154275  4.7803160647868435 13.122033549360923  4.7854789213686475 13.56565425580648  4.7899301724285017 14.029692870547805  4.7937006529783881 14.509072463483303  4.7968166532518879 15.000000600062029 
 0 8 0.28766027620041174 6 0.41263231300675646 6 0.49999271710529525 6 0.58735312120504835 6 0.71719966196173868 6 1 8
7 0 0  7 38 7  3.5845036023544523 14.732857541935857  3.6634577209646366 14.752902926104914  3.7439813015050745 14.776357203978169  3.8264885454439526 14.802721932186021  3.9113798216073201 14.831262590699534  3.9990945727374942 14.860930306525702  4.0901098122344512 14.890223497540696  4.2262964206278619 14.928958965114081  4.2682942834398556 14.940261588786813  4.3109901864355598 14.950947838731695  4.3543399928835678 14.960826264748873  4.3983078952099879 14.969710110300705  4.4428652653548086 14.977426090565626  4.5195331361835809 14.988294982760525  4.5513325375944857 14.992119333699149  4.583333729702983 14.995239548143667  4.6154872105641109 14.997611257481285  4.6477458344447813 14.999203529793675  4.6800626903225959 15  4.744715270447232 15  4.7770321263246496 14.99920352979365  4.8092907502049025 14.997611257481294  4.8414442310660277 14.995239548143712  4.8734454231749469 14.992119333699163  4.9052448245862683 14.988294982760461  4.9836727554286666 14.977176574016609  5.0299393283335689 14.96910699431063  5.0755656926731465 14.959784133175528  5.1205223802360154 14.949402857044968  5.164771641938275 14.938172780506928  5.2082661534797268 14.926307849825816  5.3439063909224274 14.887244631199849  5.4331130495244278 14.858417890790957  5.519154159286833 14.829329645993852  5.6024835421100168 14.801383859112789  5.6835209939286431 14.775564858263886  5.7626518079716185 14.752564858934738  5.8402743584149288 14.732857541935857 
 0 8 0.28766027620041174 6 0.41263231300675646 6 0.49999271710529525 6 0.58735312120504835 6 0.71719966196173868 6 1 8
8 9.5999999999999996 15.0000006
1 5.3234865570990291 0 0 1 
8 9.5999999999999996 15.0000006
1 0.60609873671559455 -18 0 1 
7 0 0  5 22 6  5.3234865431559442 11.026288982215696  5.3273461610709534 11.046894249301902  5.3311847245556629 11.077468572566081  5.334994188126096 11.117761099486248  5.3387667248722668 11.167500207433381  5.3502725571294398 11.349264182574373  5.3578545107770532 11.511948795136348  5.3651841652761041 11.711947552455729  5.3722081581730894 11.94689926578511  5.3837387089765221 12.409869521788888  5.3884142022853014 12.622683844197294  5.3928791508317424 12.852097723398202  5.3971126413453199 13.097269259570059  5.4028464147030428 13.471925986667586  5.4045504496039358 13.589372645183616  5.4062033916869767 13.709630666587657  5.4078032642827285 13.832616498808431  5.411760949303134 14.154462877332566  5.4140397605554158 14.357148044937716  5.4161761108151891 14.565908090974144  5.4181621110521752 14.780335067247758  5.4199903042393096 15.0000006 
 0 6 0.15802826835020395 4 0.48772692436646048 4 0.72841065643944725 4 0.83441783779836642 4 1 6
7 0 0  5 22 6  4.7990829474330159 19.0000006  4.8330795472528028 18.833911573733666  4.8669013614490719 18.667584588703825  4.900558214094203 18.50139665190482  4.9340586015889238 18.335732266641475  5.0369909771904613 17.827263478155189  5.1059043856215958 17.487617463099301  5.1743267875512764 17.155043966430831  5.2424145938532423 16.832636042562036  5.3599026697506442 16.297999233769985  5.4093979874241569 16.079466319412909  5.4588782912284479 15.86923483913715  5.5084070878913138 15.668591113913983  5.579921615937538 15.39528910612837  5.6018101993062412 15.313843273412967  5.6237253514933343 15.234635872476897  5.6456713166581407 15.157786865062018  5.7019848487502767 14.967257318179254  5.7364067020431158 14.857133009114781  5.7709230424413009 14.753542933656545  5.8055421891750809 14.656961626483781  5.8402743579589558 14.567835449018759 
 0 6 0.15802826835020395 4 0.48772692436646048 4 0.72841065643944725 4 0.83441783779836642 4 1 6
8 -28.21320343559643 -14.21320343559643
1 -21.21320343559643 23.426406871192846 1 0 
8 -28.21320343559643 -14.21320343559643
1 21.21320343559643 -1 1 0 
8 -5.999999999062311e-07 19.0000006
1 -35.498203640917353 42.426406871192846 0 -1 
8 -5.999999999062311e-07 19.0000006
1 6.1398377382742204 0 0 1 
1 0 2 1 0 
2 0 0 1 0 -0 1 50
8 0 19.0000006
1 -6.9282032302755194 60 0 -1 
8 0 19.0000006
1 3.2849402224951585 0 0 1 
8 -7.0000000000000053 6.9999999999999947
1 -5.5109105961630888e-15 41 1 0 
8 -7.0000000000000053 6.9999999999999947
1 5.5109105961630888e-15 -1 1 0 
8 0 19.0000006
1 6.9282032302754981 60 0 -1 
8 0 19.0000006
1 6.1398377382742204 0 0 1 
8 -5.999999999062311e-07 19.0000006
1 35.498203640917332 42.42640687119286 0 -1 
8 -5.999999999062311e-07 19.0000006
1 3.2849402224951585 0 0 1 
8 14.213203435596419 28.213203435596419
1 21.213203435596419 23.42640687119286 1 0 
8 14.213203435596419 28.213203435596419
1 -21.213203435596419 -1 1 0 
8 14.213203435596427 28.213203435596427
1 21.213203435596427 -42.426406871192846 1 0 
8 14.213203435596427 28.213203435596427
1 -21.213203435596427 -3 1 0 
8 -5.999999999062311e-07 19.0000006
1 36.101851550856097 -42.426406871192846 0 -1 
8 -5.999999999062311e-07 19.0000006
1 3.5845036976634321 0 0 1 
8 -5.999999999062311e-07 19.0000006
1 48.750962191529609 -42.426406871192846 0 -1 
8 -5.999999999062311e-07 19.0000006
1 5.8402742631059468 0 0 1 
8 14.213203435596427 28.213203435596427
1 21.213203435596427 -61.426406871192846 1 0 
8 14.213203435596427 28.213203435596427
1 -21.213203435596427 -3 1 0 
8 -5.999999999062311e-07 19.000000599999993
1 6.3245553203367626 -60 0 -1 
8 -5.999999999062311e-07 19.000000599999993
1 5.8402742631059477 0 0 1 
8 -5.999999999062311e-07 19.0000006
1 -48.750962191529602 -42.426406871192853 0 -1 
8 -5.999999999062311e-07 19.0000006
1 3.5845036976634321 0 0 1 
8 -6.9999999999999982 7.0000000000000018
1 1.83697019872103e-15 -60 1 0 
8 -6.9999999999999982 7.0000000000000018
1 -1.83697019872103e-15 -3 1 0 
8 -28.213203435596423 -14.213203435596423
1 -21.213203435596423 -42.426406871192853 1 0 
8 -28.213203435596423 -14.213203435596423
1 21.213203435596423 -3 1 0 
8 -5.999999999062311e-07 19.000000599999993
1 -6.3245553203367555 -60 0 -1 
8 -5.999999999062311e-07 19.000000599999993
1 3.5845036976634317 0 0 1 
8 -5.999999999062311e-07 19.0000006
1 -36.10185155085609 -42.426406871192853 0 -1 
8 -5.999999999062311e-07 19.0000006
1 5.8402742631059468 0 0 1 
8 -28.213203435596423 -14.213203435596423
1 -21.213203435596423 -61.426406871192853 1 0 
8 -28.213203435596423 -14.213203435596423
1 21.213203435596423 -3 1 0 
8 -37 -23
1 -30 -7.3478807948841199e-15 1 0 
8 -37 -23
1 30 -3 1 0 
8 -5.9999999999999997e-07 19.0000006
1 -66.324555320336756 -7.3478807948841199e-15 0 -1 
8 -5.9999999999999997e-07 19.0000006
1 3.5845036976634321 0 0 1 
8 -5.9999999999999997e-07 19.0000006
1 -53.675444679663244 -7.3478807948841199e-15 0 -1 
8 -5.9999999999999997e-07 19.0000006
1 5.8402742631059468 0 0 1 
8 -37 -23
1 -30 -19.000000000000007 1 0 
8 -37 -23
1 30 -3 1 0 
8 23 37
1 30 0 1 0 
8 23 37
1 -30 -3 1 0 
8 -5.9999999999999997e-07 19.0000006
1 53.675444679663244 0 0 -1 
8 -5.9999999999999997e-07 19.0000006
1 3.5845036976634321 0 0 1 
8 -5.9999999999999997e-07 19.0000006
1 66.324555320336756 0 0 -1 
8 -5.9999999999999997e-07 19.0000006
1 5.8402742631059468 0 0 1 
8 23 37
1 30 -19 1 0 
8 23 37
1 -30 -3 1 0 
2 0 0 1 0 -0 1 50
1 0 0 1 0 
8 14.213203435596419 28.213203435596419
1 21.213203435596419 23.42640687119286 1 0 
8 14.213203435596419 28.213203435596419
1 -21.213203435596419 -3 1 0 
8 -5.999999999062311e-07 19.0000006
1 48.750962191529595 42.42640687119286 0 -1 
8 -5.999999999062311e-07 19.0000006
1 5.8402742631059468 0 0 1 
8 14.213203435596419 28.213203435596419
1 21.213203435596419 42.42640687119286 1 0 
8 14.213203435596419 28.213203435596419
1 -21.213203435596419 -3 1 0 
8 -5.999999999062311e-07 19.0000006
1 36.101851550856082 42.42640687119286 0 -1 
8 -5.999999999062311e-07 19.0000006
1 3.5845036976634321 0 0 1 
8 -5.999999999062311e-07 19.0000006
1 6.3245553203367484 60 0 -1 
8 -5.999999999062311e-07 19.0000006
1 5.8402742631059477 0 0 1 
8 -7.0000000000000053 6.9999999999999947
1 -5.5109105961630888e-15 60 1 0 
8 -7.0000000000000053 6.9999999999999947
1 5.5109105961630888e-15 -3 1 0 
8 -5.999999999062311e-07 19.0000006
1 -6.3245553203367697 60 0 -1 
8 -5.999999999062311e-07 19.0000006
1 3.5845036976634317 0 0 1 
8 -5.999999999062311e-07 19.0000006
1 -36.101851550856104 42.426406871192846 0 -1 
8 -5.999999999062311e-07 19.0000006
1 5.8402742631059468 0 0 1 
8 -28.21320343559643 -14.21320343559643
1 -21.21320343559643 42.426406871192846 1 0 
8 -28.21320343559643 -14.21320343559643
1 21.21320343559643 -3 1 0 
8 -5.999999999062311e-07 19.0000006
1 -48.750962191529617 42.426406871192846 0 -1 
8 -5.999999999062311e-07 19.0000006
1 3.5845036976634321 0 0 1 
8 -28.21320343559643 -14.21320343559643
1 -21.21320343559643 23.426406871192846 1 0 
8 -28.21320343559643 -14.21320343559643
1 21.21320343559643 -3 1 0 
7 0 0  5 6 2  1.709807673538664 2.0000005999999999  1.7086181791773696 1.5919222964029505  1.7068163702957917 1.186189607275657  1.7043951358658347 0.78433682826498163  1.7013391765368946 0.38813429030610708  1.6976271891204933 -5.9999999999999997e-07 
 0 6 1 6
7 0 0  5 6 2  3.2849401358949488 10.482326399556769  3.3438411647667565 10.474085340777444  3.4030294860473851 10.461689375393362  3.4627221270391315 10.445271170152859  3.5231342747144865 10.425089562036105  3.5845037921009184 10.401612893324334 
 0 6 1 6
7 0 0  5 10 3  2.3775384543544207 -5.9999999999999997e-07  2.3731776067609629 0.31802659450781007  2.3693540443676633 0.65030386573032217  2.3661252179174426 0.99483543183394951  2.3635350879474029 1.3490377524322352  2.3613028931573306 1.7676518524521754  2.3610122725144 1.8255141706897906  2.3607387731901577 1.8835347531720892  2.360482492719659 1.9417011223393927  2.360243516668572 2.0000005999999999 
 0 6 0.86218386561149518 4 1 6
7 0 0  5 10 3  5.8402741682347772 7.8336866247335095  5.8905586851235521 7.6762519510374254  5.9415971863139312 7.5390367829637794  5.9932485203566612 7.4237149116009196  6.0453755583420108 7.3314822703472897  6.1062197331706871 7.2521359927469531  6.1146133491482813 7.2418096628374355  6.1230146527632314 7.2320951728490313  6.1314230206204403 7.222995163335189  6.1398378252949879 7.2145119428291835 
 0 6 0.86218386561149518 4 1 6
7 0 0  6 7 2  0.78134913690936525 2.00000060000824  0.77990408901248298 1.6474734871460046  0.77785180235283913 1.2996617194391826  0.77520878380309288 0.95895468670941741  0.77200225551903245 0.62755237000089403  0.76826903810364855 0.30737849340973994  0.76405419921281448 -6.0161601564122581e-07 
 0 7 1 7
7 0 0  6 7 2  3.2849401358918628 7.2145119432500593  3.3358230411327345 7.2658085476393186  3.3864737898575958 7.3387493182344352  3.4367769292417529 7.4328868244574329  3.4866234465582213 7.5474844765611593  3.5359028883314831 7.681523136397356  3.5845037927947221 7.8336866255479123 
 0 7 1 7
7 0 0  5 6 2  1.4439654644693001 -5.9999999999999997e-07  1.4402534771741315 0.38813427762970104  1.4371975174889178 0.78433686092154975  1.4347762834641973 1.1861895743519275  1.4329744743745123 1.591922309409219  1.4317849800511295 2.0000005999999999 
 0 6 1 6
7 0 0  5 6 2  5.8402741686684623 10.401612893324334  5.9016436840505779 10.425089561269361  5.9620558387260649 10.445271171666004  6.0217484698235051 10.461689374272725  6.0809367978799163 10.474085341040103  6.139837824874431 10.482326399556769 
 0 6 1 6
1 6.2831853071795862 0 0 1 
1 0 0 0 1 
8 -6.0161601567187972e-07 2.0000006000082386
1 0.48762399839454551 0 0 1 
8 -6.0161601567187972e-07 2.0000006000082386
1 1.7460218723721681 -3 0 1 
8 -5.999999999062311e-07 2.0000005999999999
1 2.6539686551952482 0 0 1 
8 -5.999999999062311e-07 2.0000005999999999
1 -1.7460218723721539 -3 0 1 
Curves 57
2 0 0 0 0 1 0 1 0 0 0 0 -1 25
2 0 0 0 0 1 0 1 0 0 0 0 -1 75
2 0 17 0 0 1 0 1 0 0 0 0 -1 25
1 25 17 0 0 -1 0 
1 75 0 0 0 1 0 
2 0 15 0 0 1 0 1 0 0 0 0 -1 75
7 0 0  5 22 6  -48.750962476155458 15.000000600053053 56.994242320154434  -48.645141033103521 14.776909355171734 57.084758431771789  -48.529833237792104 14.559222459698677 57.182963557558089  -48.405411174411384 14.347387671832292 57.28839031535766  -48.272267739504642 14.141831118459711 57.400541643077233  -48.041726482620128 13.817677744630757 57.593454612553522  -47.949325493305196 13.695038947086974 57.670480884261167  -47.853720088103067 13.575130331894162 57.749853538409148  -47.755003939474747 13.458034964220809 57.831453001390024  -47.42267413697909 13.084972657861506 58.104897819820984  -47.176597713114468 12.840998962942043 58.305447763109946  -46.916040871421643 12.612732048295777 58.51550205488428  -46.641991266107738 12.401007255604959 58.733785095306594  -45.969395377965832 11.94485167560987 59.262600815487154  -45.560535797627551 11.714510652234047 59.578945903938731  -45.131349518078295 11.517816689079922 59.905082687324445  -44.684440318394302 11.356999492900808 60.238090422287002  -43.991136868683625 11.172917629842678 60.744235306168378  -43.755819370195283 11.121048859040746 60.914331463027494  -43.517274934606306 11.079128575926044 61.085001017676674  -43.275996050200213 11.047451252872264 61.255828710327044  -43.032504751434807 11.026288982215693 61.426407471195795 
 0 6 0.16816336337262847 4 0.27409697533194294 4 0.51420497496216055 4 0.83769942994828939 4 1 6
1 -43.03250560790844 0 61.426406871192853 0 1 0 
7 0 0  7 38 7  -6.3245556062636581 15.000000601424478 74.732857541935857  -6.0876932980256155 14.50065088793083 74.752902926104909  -5.8001262123533701 14.013192226803282 74.776357203978165  -5.4597296631778027 13.541657119129335 74.802721932186017  -5.0640197543975631 13.091446686676868 74.831262590699538  -4.6104579650759181 12.669621318153572 74.860930306525702  -4.0969467673485802 12.285396120846018 74.890223497540703  -3.2731477780200313 11.805658642467938 74.928958965114063  -3.0121088945054404 11.669720938964558 74.940261588786825  -2.740090883759732 11.544522119317881 74.950947838731707  -2.4577795239958027 11.431352429205585 74.960826264748874  -2.1659777665061064 11.331408836959625 74.96971011030071  -1.8655967037921874 11.245792230576459 74.977426090565615  -1.3423771731225329 11.12637078702763 74.988294982760536  -1.1235540886076065 11.084761046702539 74.992119333699165  -0.90184294433235535 11.051069134938871 74.995239548143658  -0.67792613979965954 11.025592927617099 74.997611257481267  -0.45250201147592761 11.008534468096434 74.999203529793675  -0.22628403043465833 11 75  0.22628403043779305 11 75  0.45250201147625579 11.008534468096675 74.999203529793633  0.67792613979710847 11.025592927617 74.997611257481282  0.9018429443298146 11.051069134938388 74.995239548143715  1.123554088607978 11.084761046702384 74.992119333699165  1.342377173125745 11.126370787028367 74.988294982760436  1.8776082252361757 11.248533781963548 74.977176574016624  2.1893593791339434 11.338102061783193 74.969106994310636  2.4917884090715998 11.443082308799378 74.959784133175546  2.7838989431349939 11.562239167344165 74.949402857044987  3.0648198666153954 11.694232202112918 74.938172780506918  3.3338153608131513 11.837619028808744 74.92630784982579  4.1488967481890491 12.32460748720943 74.887244631199849  4.6487564473123335 12.705466206497848 74.85841789079096  5.0907740592086341 13.122033541705779 74.829329645993852  5.4769890666289509 13.565654266628149 74.801383859112789  5.8098375811147989 14.029692863136974 74.775564858263891  6.0916880017235773 14.509072464845758 74.752564858934733  6.324555606263651 15.000000601424484 74.732857541935857 
 0 8 0.28766027620041174 6 0.41263231300675646 6 0.49999271710529525 6 0.58735312120504835 6 0.71719966196173868 6 1 8
1 43.032505607908448 0 61.426406871192846 0 1 0 
7 0 0  5 22 6  43.032504751434828 11.026288982215696 61.426407471195773  43.269587214165277 11.046894249301902 61.260318444929439  43.504575018122118 11.077468572566081 61.093991459895804  43.736984314138013 11.117761099486248 60.927803523095619  43.96635786167618 11.167500207433381 60.762139137834325  44.663581269733285 11.349264182574373 60.253670349348035  45.119686229193341 11.511948795136348 59.914024334292151  45.557437488663162 11.711947552455729 59.581450837623677  45.974076489658671 11.94689926578511 59.259042913754882  46.653802532253337 12.409869521788888 58.724406104962831  46.928050846302696 12.622683844197294 58.505873190605755  47.188715491427857 12.852097723398202 58.295641710329996  47.434800902849943 13.097269259570059 58.094997985106829  47.766816557906452 13.471925986667586 57.821695977321227  47.865305988841371 13.589372645183616 57.740250144605817  47.960673693738386 13.709630666587657 57.661042743669746  48.052825668854929 13.832616498808431 57.584193736254875  48.280431445514509 14.154462877332566 57.393664189372103  48.411135123974461 14.357148044865845 57.283539880307629  48.53337173728562 14.565908091099271 57.179949804849393  48.646765990572931 14.780335067199314 57.083368497676624  48.750962476088617 15.000000599951555 56.994242320211605 
 0 6 0.15802826835020395 4 0.48772692436646048 4 0.72841065643944725 4 0.83441783779836642 4 1 6
1 -21.21320343559643 17 -23.426406871192846 1 0 0 
1 -35.498203640917353 17 -42.426406871192846 0 0 1 
2 0 17 0 0 1 0 1 0 0 0 0 -1 50
1 -6.9282032302755194 17 -60 0 0 1 
1 -5.5109105961630888e-15 17 -41 1 0 0 
1 6.9282032302754981 17 -60 0 0 1 
1 35.498203640917332 17 -42.42640687119286 0 0 1 
1 21.213203435596419 17 -23.42640687119286 1 0 0 
1 21.213203435596427 15 42.426406871192846 1 0 0 
1 36.101851550856097 15 42.426406871192846 0 0 1 
1 48.750962191529609 15 42.426406871192846 0 0 1 
1 21.213203435596427 15 61.426406871192846 1 0 0 
1 6.3245553203367626 15 60 0 0 1 
1 -48.750962191529602 15 42.426406871192853 0 0 1 
1 1.83697019872103e-15 15 60 1 0 0 
1 -21.213203435596423 15 42.426406871192853 1 0 0 
1 -6.3245553203367555 15 60 0 0 1 
1 -36.10185155085609 15 42.426406871192853 0 0 1 
1 -21.213203435596423 15 61.426406871192853 1 0 0 
1 -30 15 7.3478807948841199e-15 1 0 0 
1 -66.324555320336756 15 7.3478807948841199e-15 0 0 1 
1 -53.675444679663244 15 7.3478807948841199e-15 0 0 1 
1 -30 15 19.000000000000007 1 0 0 
1 30 15 0 1 0 0 
1 53.675444679663244 15 0 0 0 1 
1 66.324555320336756 15 0 0 0 1 
1 30 15 19 1 0 0 
2 0 15 0 0 1 0 1 0 0 0 0 -1 50
1 21.213203435596419 15 -23.42640687119286 1 0 0 
1 48.750962191529595 15 -42.42640687119286 0 0 1 
1 21.213203435596419 15 -42.42640687119286 1 0 0 
1 36.101851550856082 15 -42.42640687119286 0 0 1 
1 6.3245553203367484 15 -60 0 0 1 
1 -5.5109105961630888e-15 15 -60 1 0 0 
1 -6.3245553203367697 15 -60 0 0 1 
1 -36.101851550856104 15 -42.426406871192846 0 0 1 
1 -21.21320343559643 15 -42.426406871192846 1 0 0 
1 -48.750962191529617 15 -42.426406871192846 0 0 1 
1 -21.21320343559643 15 -23.426406871192846 1 0 0 
7 0 0  5 6 2  -6.9282033168757051 17.000000599991928 -49.517673600443231  -6.8693023233435637 16.591922296394877 -49.525914659222558  -6.7800686576164759 16.186189609327485 -49.538310624606638  -6.6601253136204486 15.784336824709904 -49.554728829847143  -6.508663625838059 15.38813429166856 -49.574910437963894  -6.3245550370242789 14.999999401362453 -49.598387106675666 
 0 6 1 6
7 0 0  5 10 3  -36.101851835469638 14.999999399991024 -34.592720246459336  -35.950998254631699 15.318026594498834 -34.750154920155424  -35.817872406476582 15.65030386575507 -34.887370088229069  -35.704892101484852 15.994835431817961 -35.002691959591928  -35.613979377646054 16.349037752432235 -35.094924600845559  -35.535487962936926 16.767651852452172 -35.174270878445903  -35.525264566270074 16.825514169601711 -35.184597208355413  -35.515639940790379 16.883534752663518 -35.194311698343817  -35.506618353497892 16.941701123788174 -35.203411707857654  -35.498203553896602 17.000000601448782 -35.211894928363662 
 0 6 0.86218386561149518 4 1 6
7 0 0  6 7 2  35.498203554314067 17.000000600006736 -35.211894927942801  35.549086429024932 16.647473487144502 -35.160598323553543  35.621262350686493 16.299661719492811 -35.087657552958426  35.714009913084809 15.958954686589196 -34.993520046735426  35.826137359467857 15.627552370104073 -34.878922394631701  35.956049093618887 15.307378493386201 -34.744883734795501  36.101851836249978 14.999999398360446 -34.592720245644948 
 0 7 1 7
7 0 0  5 6 2  6.3245550370242682 14.999999401362457 -49.598387106675666  6.5086636198250991 15.388134278992158 -49.57491043873064  6.660125325274552 15.784336857366464 -49.554728828334  6.7800686491809312 16.186189576403759 -49.538310625727277  6.8693023252208372 16.591922309401149 -49.525914658959898  6.9282033168756865 17.000000599991928 -49.517673600443231 
 0 6 1 6
1 50 15 0 0 1 0 
1 44.172428743565007 15 -23.42640687119286 0 1 0 
1 -44.172428743565014 15 -23.426406871192846 0 1 0 
Polygon3D 0
PolygonOnTriangulations 0
Surfaces 29
1 0 0 0 0 1 0 -1 -0 -0 0 0 -1 
2 0 17 0 -0 -1 -0 1 -0 0 0 -0 -1 25
2 0 0 0 0 1 0 1 0 0 0 0 -1 75
1 0 17 0 0 1 0 1 0 0 0 0 -1 
1 0 15 0 0 1 0 1 0 0 0 0 -1 
2 -42.426406871192846 18 42.426406871192853 0 0 1 1 0 -0 -0 1 0 7
1 -42.426406871192846 18 61.426406871192853 0 0 1 1 0 -0 -0 1 0 
2 3.67394039744206e-15 18 60 0 0 1 1 0 -0 -0 1 0 7
1 42.426406871192853 18 61.426406871192846 0 0 1 1 0 -0 -0 1 0 
2 42.426406871192853 18 42.426406871192846 0 0 1 1 0 -0 -0 1 0 7
1 -42.42640687119286 18 -23.426406871192846 0 0 1 1 0 -0 -0 1 0 
2 -42.42640687119286 18 -42.426406871192846 0 0 1 1 0 -0 -0 1 0 7
2 0 15 0 0 1 0 1 0 0 0 0 -1 50
2 -1.1021821192326178e-14 18 -60 0 0 1 1 0 -0 -0 1 0 7
1 -1.1021821192326178e-14 18 -41 0 0 1 1 0 -0 -0 1 0 
2 42.426406871192839 18 -42.42640687119286 0 0 1 1 0 -0 -0 1 0 7
1 42.426406871192839 18 -23.42640687119286 0 0 1 1 0 -0 -0 1 0 
1 42.426406871192853 18 42.426406871192846 0 0 1 1 0 -0 -0 1 0 
1 3.67394039744206e-15 18 60 0 0 1 1 0 -0 -0 1 0 
1 -42.426406871192846 18 42.426406871192853 0 0 1 1 0 -0 -0 1 0 
1 -60 18 7.3478807948841199e-15 0 0 1 1 0 -0 -0 1 0 
2 -60 18 7.3478807948841199e-15 0 0 1 1 0 -0 -0 1 0 7
1 -60 18 19.000000000000007 0 0 1 1 0 -0 -0 1 0 
1 60 18 0 0 0 1 1 0 -0 -0 1 0 
2 60 18 0 0 0 1 1 0 -0 -0 1 0 7
1 60 18 19 0 0 1 1 0 -0 -0 1 0 
1 42.426406871192839 18 -42.42640687119286 0 0 1 1 0 -0 -0 1 0 
1 -1.1021821192326178e-14 18 -60 0 0 1 1 0 -0 -0 1 0 
1 -42.42640687119286 18 -42.426406871192846 0 0 1 1 0 -0 -0 1 0 
Triangulations 0

TShapes 145
Ve
1e-07
25 0 0
0 0

0101101
*
Ed
 1e-07 1 1 0
1  1 0 0 6.28318530717959
2  1 1 0 0 6.28318530717959
2  2 2 0 0 6.28318530717959
0

0101000
+145 0 -145 0 *
Wi

0101100
+144 0 *
Ve
1e-07
75 0 0
0 0

0101101
*
Ed
 1e-07 1 1 0
1  2 0 0 6.28318530717959
2  3 1 0 0 6.28318530717959
2  4 3 0 0 6.28318530717959
0

0101000
+142 0 -142 0 *
Wi

0101100
-141 0 *
Fa
0  1e-07 1 0

0101000
+143 0 +140 0 *
Ve
1e-07
25 17 0
0 0

0101101
*
Ed
 1e-07 1 1 0
1  3 0 0 6.28318530717959
2  5 4 0 0 6.28318530717959
2  6 2 0 0 6.28318530717959
0

0101000
+138 0 -138 0 *
Ed
 1e-07 1 1 0
1  4 0 0 17
3  7 8CN 2 0 0 17
0

0101000
+138 0 -145 0 *
Wi

0101100
+137 0 -144 0 -136 0 +136 0 *
Fa
0  1e-07 2 0

0101000
+135 0 *
Ve
1e-07
75 15 0
0 0

0101101
*
Ed
 1e-07 1 1 0
1  5 0 0 15
3  9 10CN 3 0 0 15
0

0101000
+142 0 -133 0 *
Ve
1.00004830429029e-07
-48.7509621915297 15 56.9942425636138
0 0

0101101
*
Ed
 1e-07 1 1 0
1  6 0 0 4.00478766152284
2  11 3 0 0 4.00478766152284
2  12 5 0 0 4.00478766152284
0

0101000
+133 0 -131 0 *
Ve
1.00002407702133e-07
-43.0325056079084 11.0262890566534 61.4264068711929
0 0

0101101
*
Ed
 1e-07 1 1 0
1  7 0 9.04621003395729e-08 0.999999885822666
2  13 3 0 9.04621003395729e-08 0.999999885822666
2  14 6 0 9.04621003395729e-08 0.999999885822666
0

0101000
+131 0 -129 0 *
Ve
1.50000028421709e-07
-43.0325056079085 15 61.4264068711928
0 0

0101101
*
Ed
 1e-07 1 1 0
1  8 0 11.0262890566534 15
2  15 3 0 11.0262890566534 15
2  16 7 0 11.0262890566534 15
0

0101000
+129 0 -127 0 *
Ve
1.00585619105419e-07
-6.32455532033674 15 74.7328575661335
0 0

0101101
*
Ed
 1e-07 1 1 0
1  6 0 4.10129140367035 4.62796131134348
2  11 3 0 4.10129140367035 4.62796131134348
2  12 5 0 4.10129140367035 4.62796131134348
0

0101000
+127 0 -125 0 *
Ve
1.00585574712048e-07
6.32455532033678 15 74.7328575661335
0 0

0101101
*
Ed
 1e-07 1 1 0
1  9 0 4.9515352955122e-08 0.99999995048614
2  17 3 0 4.9515352955122e-08 0.99999995048614
2  18 8 0 4.9515352955122e-08 0.99999995048614
0

0101000
+125 0 -123 0 *
Ve
1.50000007105427e-07
43.0325056079085 15 61.4264068711928
0 0

0101101
*
Ed
 1e-07 1 1 0
1  6 0 4.7968166494259 5.32348655709903
2  11 3 0 4.7968166494259 5.32348655709903
2  12 5 0 4.7968166494259 5.32348655709903
0

0101000
+123 0 -121 0 *
Ve
1.00002423234617e-07
43.0325056079085 11.0262890566534 61.4264068711928
0 0

0101101
*
Ed
 1e-07 1 1 0
1  10 0 11.0262890566534 15
2  19 3 0 11.0262890566534 15
2  20 9 0 11.0262890566534 15
0

0101000
+119 0 -121 0 *
Ve
1.00025664644336e-07
48.7509621915296 15 56.9942425636138
0 0

0101101
*
Ed
 1e-07 1 1 0
1  11 0 1.1417700481149e-07 0.999999909554287
2  21 3 0 1.1417700481149e-07 0.999999909554287
2  22 10 0 1.1417700481149e-07 0.999999909554287
0

0101000
+119 0 -117 0 *
Ed
 1e-07 1 1 0
1  6 0 5.41999029924654 6.28318530717959
2  11 3 0 5.41999029924654 6.28318530717959
2  12 5 0 5.41999029924654 6.28318530717959
0

0101000
+117 0 -133 0 *
Wi

0101100
-132 0 -130 0 -128 0 -126 0 -124 0 -122 0 -120 0 +118 0 -116 0 -115 0 
+132 0 +141 0 *
Fa
0  1e-07 3 0

0101000
+114 0 *
Ve
1.50000014210855e-07
-44.172428743565 17 -23.4264068711929
0 0

0101101
*
Ve
1.50000003552714e-07
-35.4982036409174 17 -23.4264068711928
0 0

0101101
*
Ed
 1.5e-07 1 1 0
1  12 0 -22.9592253079686 -14.2850002053209
2  23 4 0 -22.9592253079686 -14.2850002053209
2  24 11 0 -22.9592253079686 -14.2850002053209
0

0101000
+112 0 -111 0 *
Ve
1.00290955404399e-07
-35.4982036409174 17 -35.2118948406353
0 0

0101101
*
Ed
 1e-07 1 1 0
1  13 0 7.21451203055754 19
2  25 4 0 7.21451203055754 19
2  26 12 0 7.21451203055754 19
0

0101000
+109 0 -111 0 *
Ve
1.00001166053792e-07
-6.92820323027553 17 -49.5176736125598
0 0

0101101
*
Ed
 1e-07 1 1 0
1  14 0 1.70980767178979 2.36024351913992
2  27 13 0 1.70980767178979 2.36024351913992
2  28 4 0 1.70980767178979 2.36024351913992
0

0101000
+107 0 -109 0 *
Ve
1.5e-07
-6.92820323027552 17 -41
0 0

0101101
*
Ed
 1e-07 1 1 0
1  15 0 10.4823263874402 19
2  29 4 0 10.4823263874402 19
2  30 14 0 10.4823263874402 19
0

0101000
+107 0 -105 0 *
Ve
1.50000003552714e-07
6.9282032302755 17 -41
0 0

0101101
*
Ed
 1.5e-07 1 1 0
1  16 0 -6.92820323027551 6.9282032302755
2  31 4 0 -6.92820323027551 6.9282032302755
2  32 15 0 -6.92820323027551 6.9282032302755
0

0101000
+105 0 -103 0 *
Ve
1.00001160628998e-07
6.9282032302755 17 -49.5176736125598
0 0

0101101
*
Ed
 1e-07 1 1 0
1  17 0 10.4823263874402 19
2  33 4 0 10.4823263874402 19
2  34 14 0 10.4823263874402 19
0

0101000
+101 0 -103 0 *
Ve
1.00000295110562e-07
35.4982036409173 17 -35.2118948406354
0 0

0101101
*
Ed
 1e-07 1 1 0
1  14 0 0.781349134449876 1.4317849818
2  27 13 0 0.781349134449876 1.4317849818
2  28 4 0 0.781349134449876 1.4317849818
0

0101000
+99 0 -101 0 *
Ve
1.5e-07
35.4982036409173 17 -23.4264068711929
0 0

0101101
*
Ed
 1e-07 1 1 0
1  18 0 7.21451203055751 19
2  35 4 0 7.21451203055751 19
2  36 16 0 7.21451203055751 19
0

0101000
+99 0 -97 0 *
Ve
1.5e-07
44.172428743565 17 -23.4264068711929
0 0

0101101
*
Ed
 1.5e-07 1 1 0
1  19 0 14.2850002053209 22.9592253079686
2  37 4 0 14.2850002053209 22.9592253079686
2  38 17 0 14.2850002053209 22.9592253079686
0

0101000
+97 0 -95 0 *
Ve
1e-07
50 17 0
0 0

0101101
*
Ed
 1e-07 1 1 0
1  14 0 0 0.487623998394546
2  27 13 0 0 0.487623998394546
2  28 4 0 0 0.487623998394546
0

0101000
+93 0 -95 0 *
Ed
 1e-07 1 1 0
1  14 0 2.65396865519525 6.28318530717959
2  27 13 0 2.65396865519525 6.28318530717959
2  28 4 0 2.65396865519525 6.28318530717959
0

0101000
+112 0 -93 0 *
Wi

0101100
-110 0 +108 0 +106 0 -104 0 -102 0 +100 0 +98 0 -96 0 -94 0 +92 0 
+91 0 *
Wi

0101100
-137 0 *
Fa
0  1e-07 4 0

0101000
+90 0 +89 0 *
Ve
1.5e-07
36.1018515508561 15 42.4264068711928
0 0

0101101
*
Ve
1.5e-07
48.7509621915296 15 42.4264068711928
0 0

0101101
*
Ed
 1.5e-07 1 1 0
1  20 0 14.8886481152597 27.5377587559332
2  39 5 0 14.8886481152597 27.5377587559332
2  40 18 0 14.8886481152597 27.5377587559332
0

0101000
+87 0 -86 0 *
Ve
1.5e-07
36.1018515508561 15 61.4264068711928
0 0

0101101
*
Ed
 1e-07 1 1 0
1  21 0 0 19
2  41 5 0 0 19
2  42 10 0 0 19
0

0101000
+87 0 -84 0 *
Ed
 1e-07 1 1 0
1  22 0 0 14.567835692421
2  43 5 0 0 14.567835692421
2  44 10 0 0 14.567835692421
0

0101000
+86 0 -117 0 *
Ed
 1.5e-07 1 1 0
1  23 0 14.8886481152597 21.819302172312
2  45 5 0 14.8886481152597 21.819302172312
2  46 9 0 14.8886481152597 21.819302172312
0

0101000
+84 0 -121 0 *
Ve
1.5e-07
6.32455532033676 15 60
0 0

0101101
*
Ed
 1e-07 1 1 0
1  24 0 0 14.7328575661335
2  47 5 0 0 14.7328575661335
2  48 8 0 0 14.7328575661335
0

0101000
+80 0 -123 0 *
Ve
1.5e-07
-48.7509621915296 15 42.4264068711929
0 0

0101101
*
Ed
 1e-07 1 1 0
1  25 0 0 14.5678356924209
2  49 5 0 0 14.5678356924209
2  50 6 0 0 14.5678356924209
0

0101000
+78 0 -131 0 *
Ve
1.5e-07
-6.32455532033676 15 60
0 0

0101101
*
Ed
 1.5e-07 1 1 0
1  26 0 -6.32455532033676 6.32455532033676
2  51 5 0 -6.32455532033676 6.32455532033676
2  52 19 0 -6.32455532033676 6.32455532033676
0

0101000
+76 0 -80 0 *
Ve
1.5e-07
-36.1018515508561 15 42.4264068711929
0 0

0101101
*
Ed
 1.5e-07 1 1 0
1  27 0 -27.5377587559332 -14.8886481152597
2  53 5 0 -27.5377587559332 -14.8886481152597
2  54 20 0 -27.5377587559332 -14.8886481152597
0

0101000
+78 0 -74 0 *
Ed
 1e-07 1 1 0
1  28 0 0 14.7328575661335
2  55 5 0 0 14.7328575661335
2  56 8 0 0 14.7328575661335
0

0101000
+76 0 -125 0 *
Ve
1.5e-07
-36.1018515508561 15 61.4264068711929
0 0

0101101
*
Ed
 1e-07 1 1 0
1  29 0 0 19
2  57 5 0 0 19
2  58 6 0 0 19
0

0101000
+74 0 -71 0 *
Ed
 1.5e-07 1 1 0
1  30 0 -21.8193021723121 -14.8886481152597
2  59 5 0 -21.8193021723121 -14.8886481152597
2  60 7 0 -21.8193021723121 -14.8886481152597
0

0101000
+127 0 -71 0 *
Wi

0101100
+85 0 -83 0 +82 0 -81 0 +115 0 +120 0 +130 0 +79 0 -77 0 +75 0 
+73 0 -72 0 +70 0 +124 0 -69 0 *
Ve
1.5e-07
-66.3245553203368 15 7.34788079488412e-15
0 0

0101101
*
Ve
1.5e-07
-53.6754446796632 15 7.34788079488412e-15
0 0

0101101
*
Ed
 1.5e-07 1 1 0
1  31 0 -36.3245553203368 -23.6754446796632
2  61 5 0 -36.3245553203368 -23.6754446796632
2  62 21 0 -36.3245553203368 -23.6754446796632
0

0101000
+67 0 -66 0 *
Ve
1.5e-07
-66.3245553203368 15 19
0 0

0101101
*
Ed
 1e-07 1 1 0
1  32 0 0 19
2  63 5 0 0 19
2  64 22 0 0 19
0

0101000
+67 0 -64 0 *
Ve
1.5e-07
-53.6754446796632 15 19
0 0

0101101
*
Ed
 1e-07 1 1 0
1  33 0 0 19
2  65 5 0 0 19
2  66 22 0 0 19
0

0101000
+66 0 -62 0 *
Ed
 1.5e-07 1 1 0
1  34 0 -36.3245553203368 -23.6754446796632
2  67 5 0 -36.3245553203368 -23.6754446796632
2  68 23 0 -36.3245553203368 -23.6754446796632
0

0101000
+64 0 -62 0 *
Wi

0101100
+65 0 -63 0 +61 0 -60 0 *
Ve
1.5e-07
53.6754446796632 15 0
0 0

0101101
*
Ve
1.5e-07
66.3245553203368 15 0
0 0

0101101
*
Ed
 1.5e-07 1 1 0
1  35 0 23.6754446796632 36.3245553203368
2  69 5 0 23.6754446796632 36.3245553203368
2  70 24 0 23.6754446796632 36.3245553203368
0

0101000
+58 0 -57 0 *
Ve
1.5e-07
53.6754446796632 15 19
0 0

0101101
*
Ed
 1e-07 1 1 0
1  36 0 0 19
2  71 5 0 0 19
2  72 25 0 0 19
0

0101000
+58 0 -55 0 *
Ve
1.5e-07
66.3245553203368 15 19
0 0

0101101
*
Ed
 1e-07 1 1 0
1  37 0 0 19
2  73 5 0 0 19
2  74 25 0 0 19
0

0101000
+57 0 -53 0 *
Ed
 1.5e-07 1 1 0
1  38 0 23.6754446796632 36.3245553203368
2  75 5 0 23.6754446796632 36.3245553203368
2  76 26 0 23.6754446796632 36.3245553203368
0

0101000
+55 0 -53 0 *
Wi

0101100
+56 0 -54 0 +52 0 -51 0 *
Ve
1e-07
50 15 0
0 0

0101101
*
Ve
1.5e-07
44.172428743565 15 -23.4264068711929
0 0

0101101
*
Ed
 1e-07 1 1 0
1  39 0 0 0.487623998394546
2  77 5 0 0 0.487623998394546
2  78 13 0 0 0.487623998394546
0

0101000
+49 0 -48 0 *
Ve
1.5e-07
48.7509621915296 15 -23.4264068711929
0 0

0101101
*
Ed
 1.5e-07 1 1 0
1  40 0 22.9592253079686 27.5377587559332
2  79 5 0 22.9592253079686 27.5377587559332
2  80 17 0 22.9592253079686 27.5377587559332
0

0101000
+48 0 -46 0 *
Ve
1.5e-07
48.7509621915296 15 -42.4264068711929
0 0

0101101
*
Ed
 1e-07 1 1 0
1  41 0 0 19
2  81 5 0 0 19
2  82 16 0 0 19
0

0101000
+44 0 -46 0 *
Ve
1.5e-07
36.1018515508561 15 -42.4264068711929
0 0

0101101
*
Ed
 1.5e-07 1 1 0
1  42 0 14.8886481152597 27.5377587559332
2  83 5 0 14.8886481152597 27.5377587559332
2  84 27 0 14.8886481152597 27.5377587559332
0

0101000
+42 0 -44 0 *
Ve
1.00013292897327e-07
36.1018515508561 15 -34.5927205434893
0 0

0101101
*
Ed
 1e-07 1 1 0
1  43 0 0 7.83368632770352
2  85 5 0 0 7.83368632770352
2  86 16 0 0 7.83368632770352
0

0101000
+42 0 -40 0 *
Ve
1.00587760394774e-07
6.32455532033675 15 -49.598387070549
0 0

0101101
*
Ed
 1e-07 1 1 0
1  39 0 0.764054207462928 1.44396545875717
2  77 5 0 0.764054207462928 1.44396545875717
2  78 13 0 0.764054207462928 1.44396545875717
0

0101000
+40 0 -38 0 *
Ve
1.5e-07
6.32455532033675 15 -60
0 0

0101101
*
Ed
 1e-07 1 1 0
1  44 0 0 10.401612929451
2  87 5 0 0 10.401612929451
2  88 14 0 0 10.401612929451
0

0101000
+36 0 -38 0 *
Ve
1.5e-07
-6.32455532033677 15 -60
0 0

0101101
*
Ed
 1.5e-07 1 1 0
1  45 0 -6.32455532033676 6.32455532033675
2  89 5 0 -6.32455532033676 6.32455532033675
2  90 28 0 -6.32455532033676 6.32455532033675
0

0101000
+34 0 -36 0 *
Ve
1.00587756420559e-07
-6.32455532033677 15 -49.598387070549
0 0

0101101
*
Ed
 1e-07 1 1 0
1  46 0 0 10.401612929451
2  91 5 0 0 10.401612929451
2  92 14 0 0 10.401612929451
0

0101000
+34 0 -32 0 *
Ve
1.00005049191124e-07
-36.1018515508561 15 -34.5927205434893
0 0

0101101
*
Ed
 1e-07 1 1 0
1  39 0 1.69762719483262 2.37753844612687
2  77 5 0 1.69762719483262 2.37753844612687
2  78 13 0 1.69762719483262 2.37753844612687
0

0101000
+32 0 -30 0 *
Ve
1.5e-07
-36.1018515508561 15 -42.4264068711928
0 0

0101101
*
Ed
 1e-07 1 1 0
1  47 0 0 7.83368632770354
2  93 5 0 0 7.83368632770354
2  94 12 0 0 7.83368632770354
0

0101000
+28 0 -30 0 *
Ve
1.5e-07
-48.7509621915296 15 -42.4264068711928
0 0

0101101
*
Ed
 1.5e-07 1 1 0
1  48 0 -27.5377587559332 -14.8886481152597
2  95 5 0 -27.5377587559332 -14.8886481152597
2  96 29 0 -27.5377587559332 -14.8886481152597
0

0101000
+26 0 -28 0 *
Ve
1.5e-07
-48.7509621915296 15 -23.4264068711928
0 0

0101101
*
Ed
 1e-07 1 1 0
1  49 0 0 19
2  97 5 0 0 19
2  98 12 0 0 19
0

0101000
+26 0 -24 0 *
Ve
1.50000014210855e-07
-44.172428743565 15 -23.4264068711929
0 0

0101101
*
Ed
 1.5e-07 1 1 0
1  50 0 -27.5377587559332 -22.9592253079686
2  99 5 0 -27.5377587559332 -22.9592253079686
2  100 11 0 -27.5377587559332 -22.9592253079686
0

0101000
+24 0 -22 0 *
Ed
 1e-07 1 1 0
1  39 0 2.65396865519525 6.28318530717959
2  77 5 0 2.65396865519525 6.28318530717959
2  78 13 0 2.65396865519525 6.28318530717959
0

0101000
+22 0 -49 0 *
Wi

0101100
-47 0 -45 0 +43 0 +41 0 -39 0 -37 0 +35 0 +33 0 -31 0 -29 0 
+27 0 +25 0 -23 0 -21 0 -20 0 *
Fa
0  1e-07 5 0

0101000
+68 0 +59 0 +50 0 +19 0 *
Ed
 1e-07 1 1 0
1  51 0 2.94057173258507e-07 0.999999691661844
2  101 13 0 2.94057173258507e-07 0.999999691661844
2  102 14 0 2.94057173258507e-07 0.999999691661844
0

0101000
+107 0 -32 0 *
Ed
 1e-07 1 1 0
1  52 0 3.25330982677778e-07 0.999999715615297
2  103 13 0 3.25330982677778e-07 0.999999715615297
2  104 12 0 3.25330982677778e-07 0.999999715615297
0

0101000
+30 0 -109 0 *
Wi

0101100
+17 0 -106 0 +16 0 +29 0 *
Fa
0  1e-07 13 0

0101000
+15 0 *
Ed
 1e-07 1 1 0
1  53 0 2.83669283534213e-07 0.999999673775772
2  105 13 0 2.83669283534213e-07 0.999999673775772
2  106 16 0 2.83669283534213e-07 0.999999673775772
0

0101000
+99 0 -40 0 *
Ed
 1e-07 1 1 0
1  54 0 3.08338163486778e-07 0.999999705942818
2  107 13 0 3.08338163486778e-07 0.999999705942818
2  108 14 0 3.08338163486778e-07 0.999999705942818
0

0101000
+38 0 -101 0 *
Wi

0101100
+13 0 -98 0 +12 0 +37 0 *
Fa
0  1e-07 13 0

0101000
+11 0 *
Ed
 1e-07 1 1 0
1  55 0 0 2
3  109 110CN 13 0 0 2
0

0101000
+49 0 -93 0 *
Ed
 1e-07 1 1 0
1  56 0 0 2
2  111 13 0 0 2
2  112 17 0 0 2
0

0101000
+48 0 -95 0 *
Wi

0101100
-9 0 -92 0 +8 0 +47 0 *
Fa
0  1e-07 13 0

0101000
+7 0 *
Ed
 1e-07 1 1 0
1  57 0 0 2
2  113 13 0 0 2
2  114 11 0 0 2
0

0101000
+22 0 -112 0 *
Wi

0101100
+20 0 -5 0 -91 0 +9 0 *
Fa
0  1e-07 13 0

0101000
+4 0 *
Sh

0101000
+139 0 +134 0 +113 0 +88 0 +18 0 +14 0 +10 0 +6 0 +3 0 *
Co

1100000
+2 0 *

+1 0 