DBRep_DrawableShape

CASCADE Topology V3, (c) Open Cascade
Locations 0
Curve2ds 50
2 0 0 -1 0 0 1 75
1 0 0 1 0 
2 -42.426406871192839 -42.42640687119286 0.70710678118654768 -0.70710678118654735 -0.70710678118654735 -0.70710678118654768 7
1 1.0146536357569551e-17 1 1 0 
2 1.3322676295501878e-14 -60 1 2.2204460492503131e-16 2.2204460492503131e-16 -1 7
1 0 1 1 0 
2 42.42640687119286 -42.426406871192846 0.70710678118654746 0.70710678118654768 0.70710678118654768 -0.70710678118654746 7
1 0 1 1 0 
2 -60 0 0 -1 -1 -0 7
1 0 1 1 0 
2 -42.426406871192853 42.426406871192846 -0.70710678118654746 -0.70710678118654757 -0.70710678118654757 0.70710678118654746 7
1 -1.0146536357569526e-17 1 1 0 
2 0 0 -1 0 0 1 25
1 0 17 1 0 
2 60 7.3478807948841199e-15 -1.2246467991473532e-16 1 1 1.2246467991473532e-16 7
1 0 1 1 0 
2 -6.6613381477509392e-15 60 -1 -1.1102230246251565e-16 -1.1102230246251565e-16 1 7
1 0 1 1 0 
2 42.426406871192846 42.426406871192853 -0.70710678118654757 0.70710678118654746 0.70710678118654746 0.70710678118654757 7
1 1.0146536357569526e-17 1 1 0 
1 0 15 1 0 
2 0 0 1 0 -0 1 75
1 6.2831853071795862 0 0 1 
1 0 0 0 1 
2 0 0 1 0 -0 1 25
1 0 0 1 0 
1 6.2831853071795862 0 0 1 
1 0 0 0 1 
2 -42.42640687119286 -42.426406871192846 -0.70710678118654746 0.70710678118654768 -0.70710678118654768 -0.70710678118654746 7
1 0 16 1 0 
2 -1.3322676295501878e-14 -60 -1 2.2204460492503131e-16 -2.2204460492503131e-16 -1 7
1 0 16 1 0 
2 42.426406871192839 -42.42640687119286 -0.70710678118654768 -0.70710678118654735 0.70710678118654735 -0.70710678118654768 7
1 1.0146536357569551e-17 16 1 0 
2 -60 7.3478807948841199e-15 1.2246467991473532e-16 1 -1 1.2246467991473532e-16 7
1 0 16 1 0 
2 -42.426406871192846 42.426406871192853 0.70710678118654757 0.70710678118654746 -0.70710678118654746 0.70710678118654757 7
1 1.0146536357569526e-17 16 1 0 
2 0 0 1 0 -0 1 50
1 0 0 1 0 
2 60 0 0 -1 1 0 7
1 0 16 1 0 
2 6.6613381477509392e-15 60 1 -1.1102230246251565e-16 1.1102230246251565e-16 1 7
1 0 16 1 0 
2 42.426406871192853 42.426406871192846 0.70710678118654746 -0.70710678118654757 0.70710678118654757 0.70710678118654746 7
1 -1.0146536357569526e-17 16 1 0 
1 0 2 1 0 
2 0 0 1 0 -0 1 50
1 6.2831853071795862 0 0 1 
1 0 0 0 1 
Curves 25
2 0 0 0 0 1 0 1 0 0 0 0 -1 75
2 42.426406871192839 0 42.42640687119286 0 1 0 -0.70710678118654768 0 0.70710678118654735 0.70710678118654735 -0 0.70710678118654768 7
2 -1.3322676295501878e-14 0 60 0 1 0 -1 0 -2.2204460492503131e-16 -2.2204460492503131e-16 0 1 7
2 -42.42640687119286 0 42.426406871192846 0 1 0 -0.70710678118654746 0 -0.70710678118654768 -0.70710678118654768 0 0.70710678118654746 7
2 60 0 0 0 1 0 0 -0 1 1 0 -0 7
2 42.426406871192853 0 -42.426406871192846 0 1 0 0.70710678118654746 -0 0.70710678118654757 0.70710678118654757 0 -0.70710678118654746 7
2 0 0 0 0 1 0 1 0 0 0 0 -1 25
2 -60 0 -7.3478807948841199e-15 0 1 0 1.2246467991473532e-16 0 -1 -1 0 -1.2246467991473532e-16 7
2 6.6613381477509392e-15 0 -60 0 1 0 1 -0 1.1102230246251565e-16 1.1102230246251565e-16 0 -1 7
2 -42.426406871192846 0 -42.426406871192853 0 1 0 0.70710678118654757 0 -0.70710678118654746 -0.70710678118654746 0 -0.70710678118654757 7
2 0 15 0 0 1 0 1 0 0 0 0 -1 75
1 75 0 0 0 1 0 
2 0 17 0 0 1 0 1 0 0 0 0 -1 25
1 25 17 0 0 -1 0 
2 -42.42640687119286 15 42.426406871192846 0 1 0 -0.70710678118654746 0 -0.70710678118654768 -0.70710678118654768 0 0.70710678118654746 7
2 -1.3322676295501878e-14 15 60 0 1 0 -1 0 -2.2204460492503131e-16 -2.2204460492503131e-16 0 1 7
2 42.426406871192839 15 42.42640687119286 0 1 0 -0.70710678118654768 0 0.70710678118654735 0.70710678118654735 -0 0.70710678118654768 7
2 -60 15 -7.3478807948841199e-15 0 1 0 1.2246467991473532e-16 0 -1 -1 0 -1.2246467991473532e-16 7
2 -42.426406871192846 15 -42.426406871192853 0 1 0 0.70710678118654757 0 -0.70710678118654746 -0.70710678118654746 0 -0.70710678118654757 7
2 0 15 0 0 1 0 1 0 0 0 0 -1 50
2 60 15 0 0 1 0 0 -0 1 1 0 -0 7
2 6.6613381477509392e-15 15 -60 0 1 0 1 -0 1.1102230246251565e-16 1.1102230246251565e-16 0 -1 7
2 42.426406871192853 15 -42.426406871192846 0 1 0 0.70710678118654746 -0 0.70710678118654757 0.70710678118654757 0 -0.70710678118654746 7
2 0 17 0 0 1 0 1 0 0 0 0 -1 50
1 50 15 0 0 1 0 
Polygon3D 0
PolygonOnTriangulations 0
Surfaces 14
1 0 0 0 0 1 0 -1 -0 -0 0 0 -1 
2 0 0 0 0 1 0 1 0 0 0 0 -1 75
2 42.426406871192839 -1 42.42640687119286 0 1 0 -0.70710678118654768 0 0.70710678118654735 0.70710678118654735 0 0.70710678118654768 7
2 -1.3322676295501878e-14 -1 60 0 1 0 -1 0 -2.2204460492503131e-16 -2.2204460492503131e-16 0 1 7
2 -42.42640687119286 -1 42.426406871192846 0 1 0 -0.70710678118654746 0 -0.70710678118654768 -0.70710678118654768 0 0.70710678118654746 7
2 60 -1 0 0 1 0 0 0 1 1 0 0 7
2 42.426406871192853 -1 -42.426406871192846 0 1 0 0.70710678118654746 0 0.70710678118654757 0.70710678118654757 0 -0.70710678118654746 7
2 0 17 0 -0 -1 -0 1 -0 0 0 -0 -1 25
2 -60 -1 -7.3478807948841199e-15 0 1 0 1.2246467991473532e-16 0 -1 -1 0 -1.2246467991473532e-16 7
2 6.6613381477509392e-15 -1 -60 0 1 0 1 0 1.1102230246251565e-16 1.1102230246251565e-16 0 -1 7
2 -42.426406871192846 -1 -42.426406871192853 0 1 0 0.70710678118654757 0 -0.70710678118654746 -0.70710678118654746 0 -0.70710678118654757 7
1 0 15 0 0 1 0 1 0 0 0 0 -1 
1 0 17 0 0 1 0 1 0 0 0 0 -1 
2 0 15 0 0 1 0 1 0 0 0 0 -1 50
Triangulations 0

TShapes 80
Ve
1e-07
75 0 0
0 0

0101101
*
Ed
 1e-07 1 1 0
1  1 0 0 6.28318530717959
2  1 1 0 0 6.28318530717959
2  2 2 0 0 6.28318530717959
0

0101000
+80 0 -80 0 *
Wi

0101100
-79 0 *
Ve
1.00000007105427e-07
37.476659402887 0 47.3761543394987
0 0

0101101
*
Ed
 1e-07 1 1 0
1  2 0 2.78178084688463e-16 6.28318530717959
2  3 1 0 2.78178084688463e-16 6.28318530717959
2  4 3 0 2.78178084688463e-16 6.28318530717959
0

0101100
+77 0 -77 0 *
Wi

0101100
+76 0 *
Ve
1e-07
-7.00000000000001 0 60
0 0

0101101
*
Ed
 1e-07 1 1 0
1  3 0 0 6.28318530717959
2  5 1 0 0 6.28318530717959
2  6 4 0 0 6.28318530717959
0

0101100
+74 0 -74 0 *
Wi

0101100
+73 0 *
Ve
1e-07
-47.3761543394987 0 37.476659402887
0 0

0101101
*
Ed
 1e-07 1 1 0
1  4 0 0 6.28318530717959
2  7 1 0 0 6.28318530717959
2  8 5 0 0 6.28318530717959
0

0101100
+71 0 -71 0 *
Wi

0101100
+70 0 *
Ve
1e-07
60 0 7
0 0

0101101
*
Ed
 1e-07 1 1 0
1  5 0 0 6.28318530717959
2  9 1 0 0 6.28318530717959
2  10 6 0 0 6.28318530717959
0

0101100
+68 0 -68 0 *
Wi

0101100
+67 0 *
Ve
1.00000007105427e-07
47.3761543394987 0 -37.476659402887
0 0

0101101
*
Ed
 1e-07 1 1 0
1  6 0 1.00875766104946e-16 6.28318530717959
2  11 1 0 1.00875766104946e-16 6.28318530717959
2  12 7 0 1.00875766104946e-16 6.28318530717959
0

0101100
+65 0 -65 0 *
Wi

0101100
+64 0 *
Ve
1e-07
25 0 0
0 0

0101101
*
Ed
 1e-07 1 1 0
1  7 0 0 6.28318530717959
2  13 1 0 0 6.28318530717959
2  14 8 0 0 6.28318530717959
0

0101000
+62 0 -62 0 *
Wi

0101100
+61 0 *
Ve
1e-07
-60 0 -7.00000000000001
0 0

0101101
*
Ed
 1e-07 1 1 0
1  8 0 0 6.28318530717959
2  15 1 0 0 6.28318530717959
2  16 9 0 0 6.28318530717959
0

0101100
+59 0 -59 0 *
Wi

0101100
+58 0 *
Ve
1e-07
7.00000000000001 0 -60
0 0

0101101
*
Ed
 1e-07 1 1 0
1  9 0 0 6.28318530717959
2  17 1 0 0 6.28318530717959
2  18 10 0 0 6.28318530717959
0

0101100
+56 0 -56 0 *
Wi

0101100
+55 0 *
Ve
1.00000007105427e-07
-37.476659402887 0 -47.3761543394987
0 0

0101101
*
Ed
 1e-07 1 1 0
1  10 0 8.86511592917583e-17 6.28318530717959
2  19 1 0 8.86511592917583e-17 6.28318530717959
2  20 11 0 8.86511592917583e-17 6.28318530717959
0

0101100
+53 0 -53 0 *
Wi

0101100
+52 0 *
Fa
0  1e-07 1 0

0101000
+78 0 +75 0 +72 0 +69 0 +66 0 +63 0 +60 0 +57 0 +54 0 +51 0 
*
Ve
1e-07
75 15 0
0 0

0101101
*
Ed
 1e-07 1 1 0
1  11 0 0 6.28318530717959
2  21 2 0 0 6.28318530717959
2  22 12 0 0 6.28318530717959
0

0101000
+49 0 -49 0 *
Ed
 1e-07 1 1 0
1  12 0 0 15
3  23 24CN 2 0 0 15
0

0101000
+80 0 -49 0 *
Wi

0101100
+79 0 -48 0 -47 0 +47 0 *
Fa
0  1e-07 2 0

0101000
+46 0 *
Ve
1e-07
25 17 0
0 0

0101101
*
Ed
 1e-07 1 1 0
1  13 0 0 6.28318530717959
2  25 13 0 0 6.28318530717959
2  26 8 0 0 6.28318530717959
0

0101000
+44 0 -44 0 *
Ed
 1e-07 1 1 0
1  14 0 0 17
3  27 28CN 8 0 0 17
0

0101000
+44 0 -62 0 *
Wi

0101100
+43 0 -61 0 -42 0 +42 0 *
Fa
0  1e-07 8 0

0101000
+41 0 *
Wi

0101100
+48 0 *
Ve
1e-07
-47.3761543394987 15 37.476659402887
0 0

0101101
*
Ed
 1e-07 1 1 0
1  15 0 0 6.28318530717959
2  29 12 0 0 6.28318530717959
2  30 5 0 0 6.28318530717959
0

0101100
+38 0 -38 0 *
Wi

0101100
-37 0 *
Ve
1e-07
-7.00000000000001 15 60
0 0

0101101
*
Ed
 1e-07 1 1 0
1  16 0 0 6.28318530717959
2  31 12 0 0 6.28318530717959
2  32 4 0 0 6.28318530717959
0

0101100
+35 0 -35 0 *
Wi

0101100
-34 0 *
Ve
1.00000007105427e-07
37.476659402887 15 47.3761543394987
0 0

0101101
*
Ed
 1e-07 1 1 0
1  17 0 2.78178084688463e-16 6.28318530717959
2  33 12 0 2.78178084688463e-16 6.28318530717959
2  34 3 0 2.78178084688463e-16 6.28318530717959
0

0101100
+32 0 -32 0 *
Wi

0101100
-31 0 *
Ve
1e-07
-60 15 -7.00000000000001
0 0

0101101
*
Ed
 1e-07 1 1 0
1  18 0 0 6.28318530717959
2  35 12 0 0 6.28318530717959
2  36 9 0 0 6.28318530717959
0

0101100
+29 0 -29 0 *
Wi

0101100
-28 0 *
Ve
1.00000007105427e-07
-37.476659402887 15 -47.3761543394987
0 0

0101101
*
Ed
 1e-07 1 1 0
1  19 0 8.86511592917583e-17 6.28318530717959
2  37 12 0 8.86511592917583e-17 6.28318530717959
2  38 11 0 8.86511592917583e-17 6.28318530717959
0

0101100
+26 0 -26 0 *
Wi

0101100
-25 0 *
Ve
1e-07
50 15 0
0 0

0101101
*
Ed
 1e-07 1 1 0
1  20 0 0 6.28318530717959
2  39 12 0 0 6.28318530717959
2  40 14 0 0 6.28318530717959
0

0101000
+23 0 -23 0 *
Wi

0101100
-22 0 *
Ve
1e-07
60 15 7
0 0

0101101
*
Ed
 1e-07 1 1 0
1  21 0 0 6.28318530717959
2  41 12 0 0 6.28318530717959
2  42 6 0 0 6.28318530717959
0

0101100
+20 0 -20 0 *
Wi

0101100
-19 0 *
Ve
1e-07
7.00000000000001 15 -60
0 0

0101101
*
Ed
 1e-07 1 1 0
1  22 0 0 6.28318530717959
2  43 12 0 0 6.28318530717959
2  44 10 0 0 6.28318530717959
0

0101100
+17 0 -17 0 *
Wi

0101100
-16 0 *
Ve
1.00000007105427e-07
47.3761543394987 15 -37.476659402887
0 0

0101101
*
Ed
 1e-07 1 1 0
1  23 0 1.00875766104946e-16 6.28318530717959
2  45 12 0 1.00875766104946e-16 6.28318530717959
2  46 7 0 1.00875766104946e-16 6.28318530717959
0

0101100
+14 0 -14 0 *
Wi

0101100
-13 0 *
Fa
0  1e-07 12 0

0101000
+39 0 +36 0 +33 0 +30 0 +27 0 +24 0 +21 0 +18 0 +15 0 +12 0 
*
Ve
1e-07
50 17 0
0 0

0101101
*
Ed
 1e-07 1 1 0
1  24 0 0 6.28318530717959
2  47 14 0 0 6.28318530717959
2  48 13 0 0 6.28318530717959
0

0101000
+10 0 -10 0 *
Wi

0101100
+9 0 *
Wi

0101100
-43 0 *
Fa
0  1e-07 13 0

0101000
+8 0 +7 0 *
Ed
 1e-07 1 1 0
1  25 0 0 2
3  49 50CN 14 0 0 2
0

0101000
+23 0 -10 0 *
Wi

0101100
+22 0 -9 0 -5 0 +5 0 *
Fa
0  1e-07 14 0

0101000
+4 0 *
Sh

0101000
+50 0 +45 0 +40 0 +11 0 +6 0 +3 0 *
Co

1100000
+2 0 *

+1 0 