DBRep_DrawableShape

CASCADE Topology V3, (c) Open Cascade
Locations 0
Curve2ds 64
1 0 -1.4142135623730951 1 0 
2 0 0 -1 0 0 1 74
2 -42.426406871192839 -42.42640687119286 0.70710678118654768 -0.70710678118654735 -0.70710678118654735 -0.70710678118654768 7
1 1.0146536357569551e-17 1 1 0 
2 1.3322676295501878e-14 -60 1 2.2204460492503131e-16 2.2204460492503131e-16 -1 7
1 0 1 1 0 
2 42.42640687119286 -42.426406871192846 0.70710678118654746 0.70710678118654768 0.70710678118654768 -0.70710678118654746 7
1 0 1 1 0 
2 -60 0 0 -1 -1 -0 7
1 0 1 1 0 
2 -42.426406871192853 42.426406871192846 -0.70710678118654746 -0.70710678118654757 -0.70710678118654757 0.70710678118654746 7
1 -1.0146536357569526e-17 1 1 0 
2 0 0 -1 0 0 1 25
1 0 17 1 0 
2 60 7.3478807948841199e-15 -1.2246467991473532e-16 1 1 1.2246467991473532e-16 7
1 0 1 1 0 
2 -6.6613381477509392e-15 60 -1 -1.1102230246251565e-16 -1.1102230246251565e-16 1 7
1 0 1 1 0 
2 42.426406871192846 42.426406871192853 -0.70710678118654757 0.70710678118654746 0.70710678118654746 0.70710678118654757 7
1 1.0146536357569526e-17 1 1 0 
8 -1.4142135623730951 0
1 6.2831853071795862 0 0 1 
8 -1.4142135623730951 0
1 0 0 0 1 
1 0 0 1 0 
1 0 1 1 0 
2 42.426406871192839 -42.42640687119286 -0.70710678118654768 -0.70710678118654735 0.70710678118654735 -0.70710678118654768 7
1 1.0146536357569551e-17 16 1 0 
1 6.2831853071795862 -0 0 1 
1 0 -0 0 1 
2 -1.3322676295501878e-14 -60 -1 2.2204460492503131e-16 -2.2204460492503131e-16 -1 7
1 0 16 1 0 
2 -42.42640687119286 -42.426406871192846 -0.70710678118654746 0.70710678118654768 -0.70710678118654768 -0.70710678118654746 7
1 0 16 1 0 
2 60 0 0 -1 1 0 7
1 0 16 1 0 
2 42.426406871192853 42.426406871192846 0.70710678118654746 -0.70710678118654757 0.70710678118654757 0.70710678118654746 7
1 -1.0146536357569526e-17 16 1 0 
2 0 0 1 0 -0 1 25
1 0 0 1 0 
1 6.2831853071795862 0 0 1 
1 0 0 0 1 
2 -60 7.3478807948841199e-15 1.2246467991473532e-16 1 -1 1.2246467991473532e-16 7
1 0 16 1 0 
2 6.6613381477509392e-15 60 1 -1.1102230246251565e-16 1.1102230246251565e-16 1 7
1 0 16 1 0 
2 -42.426406871192846 42.426406871192853 0.70710678118654757 0.70710678118654746 -0.70710678118654746 0.70710678118654757 7
1 1.0146536357569526e-17 16 1 0 
1 6.2831853071795862 0 0 1 
1 0 0 0 1 
1 0 0 1 0 
1 0 14 1 0 
1 0 1.4142135623730951 1 0 
2 0 0 1 0 -0 1 74
2 0 0 1 0 -0 1 50
1 0 0 1 0 
1 0 -1.4142135623730951 1 0 
2 0 0 1 0 -0 1 49
8 0 1.4142135623730951
1 6.2831853071795862 0 0 1 
8 0 1.4142135623730951
1 0 0 0 1 
1 6.2831853071795862 0 0 1 
1 0 0 0 1 
1 0 0 1 0 
1 0 1 1 0 
8 -1.4142135623730951 0
1 6.2831853071795862 0 0 1 
8 -1.4142135623730951 0
1 0 0 0 1 
Curves 39
2 0 0 0 -0 1 -0 1 0 0 0 0 -1 74
2 42.426406871192839 0 42.42640687119286 0 1 0 -0.70710678118654768 0 0.70710678118654735 0.70710678118654735 -0 0.70710678118654768 7
2 -1.3322676295501878e-14 0 60 0 1 0 -1 0 -2.2204460492503131e-16 -2.2204460492503131e-16 0 1 7
2 -42.42640687119286 0 42.426406871192846 0 1 0 -0.70710678118654746 0 -0.70710678118654768 -0.70710678118654768 0 0.70710678118654746 7
2 60 0 0 0 1 0 0 -0 1 1 0 -0 7
2 42.426406871192853 0 -42.426406871192846 0 1 0 0.70710678118654746 -0 0.70710678118654757 0.70710678118654757 0 -0.70710678118654746 7
2 0 0 0 0 1 0 1 0 0 0 0 -1 25
2 -60 0 -7.3478807948841199e-15 0 1 0 1.2246467991473532e-16 0 -1 -1 0 -1.2246467991473532e-16 7
2 6.6613381477509392e-15 0 -60 0 1 0 1 -0 1.1102230246251565e-16 1.1102230246251565e-16 0 -1 7
2 -42.426406871192846 0 -42.426406871192853 0 1 0 0.70710678118654757 0 -0.70710678118654746 -0.70710678118654746 0 -0.70710678118654757 7
1 75 1 0 0.70710678118654757 0.70710678118654746 0 
2 0 1 0 -0 1 -0 1 0 0 0 0 -1 75
2 42.426406871192839 15 42.42640687119286 0 1 0 -0.70710678118654768 0 0.70710678118654735 0.70710678118654735 -0 0.70710678118654768 7
1 37.476659402887002 -1 47.37615433949869 0 1 0 
2 -1.3322676295501878e-14 15 60 0 1 0 -1 0 -2.2204460492503131e-16 -2.2204460492503131e-16 0 1 7
1 -7.0000000000000133 -1 60 0 1 0 
2 -42.42640687119286 15 42.426406871192846 0 1 0 -0.70710678118654746 0 -0.70710678118654768 -0.70710678118654768 0 0.70710678118654746 7
1 -47.37615433949869 -1 37.476659402887009 0 1 0 
2 60 15 0 0 1 0 0 -0 1 1 0 -0 7
1 60 -1 7 0 1 0 
2 42.426406871192853 15 -42.426406871192846 0 1 0 0.70710678118654746 -0 0.70710678118654757 0.70710678118654757 0 -0.70710678118654746 7
1 47.376154339498683 -1 -37.476659402887016 0 1 0 
2 0 17 0 0 1 0 1 0 0 0 0 -1 25
1 25 17 0 0 -1 0 
2 -60 15 -7.3478807948841199e-15 0 1 0 1.2246467991473532e-16 0 -1 -1 0 -1.2246467991473532e-16 7
1 -60 -1 -7.0000000000000071 0 1 0 
2 6.6613381477509392e-15 15 -60 0 1 0 1 -0 1.1102230246251565e-16 1.1102230246251565e-16 0 -1 7
1 7.0000000000000071 -1 -60 0 1 0 
2 -42.426406871192846 15 -42.426406871192853 0 1 0 0.70710678118654757 0 -0.70710678118654746 -0.70710678118654746 0 -0.70710678118654757 7
1 -37.476659402887016 -1 -47.376154339498683 0 1 0 
1 75 0 0 0 1 0 
2 0 14 0 -0 1 0 1 0 0 0 0 -1 75
2 0 15 0 -0 1 0 1 0 0 0 0 -1 74
2 0 15 0 0 1 0 1 0 0 0 0 -1 50
2 0 17 0 -0 1 0 1 0 0 0 0 -1 49
1 75 14 0 -0.70710678118654757 0.70710678118654746 0 
1 50 15 0 0 1 0 
2 0 16 0 -0 1 0 1 0 0 0 0 -1 50
1 50 16 0 0.70710678118654757 -0.70710678118654746 0 
Polygon3D 0
PolygonOnTriangulations 0
Surfaces 17
1 0 0 0 0 1 0 -1 -0 -0 0 0 -1 
3 0 1 0 -0 1 -0 1 0 0 0 0 -1 75
0.78539816339744839
2 42.426406871192839 -1 42.42640687119286 0 1 0 -0.70710678118654768 0 0.70710678118654735 0.70710678118654735 0 0.70710678118654768 7
2 -1.3322676295501878e-14 -1 60 0 1 0 -1 0 -2.2204460492503131e-16 -2.2204460492503131e-16 0 1 7
2 -42.42640687119286 -1 42.426406871192846 0 1 0 -0.70710678118654746 0 -0.70710678118654768 -0.70710678118654768 0 0.70710678118654746 7
2 60 -1 0 0 1 0 0 0 1 1 0 0 7
2 42.426406871192853 -1 -42.426406871192846 0 1 0 0.70710678118654746 0 0.70710678118654757 0.70710678118654757 0 -0.70710678118654746 7
2 0 17 0 -0 -1 -0 1 -0 0 0 -0 -1 25
2 -60 -1 -7.3478807948841199e-15 0 1 0 1.2246467991473532e-16 0 -1 -1 0 -1.2246467991473532e-16 7
2 6.6613381477509392e-15 -1 -60 0 1 0 1 0 1.1102230246251565e-16 1.1102230246251565e-16 0 -1 7
2 -42.426406871192846 -1 -42.426406871192853 0 1 0 0.70710678118654757 0 -0.70710678118654746 -0.70710678118654746 0 -0.70710678118654757 7
2 0 0 0 0 1 0 1 0 0 0 0 -1 75
1 0 15 0 0 1 0 1 0 0 0 0 -1 
1 0 17 0 0 1 0 1 0 0 0 0 -1 
3 0 14 0 -0 1 0 1 0 0 -0 0 -1 75
-0.78539816339744839
2 0 15 0 0 1 0 1 0 0 0 0 -1 50
3 0 16 0 0 -1 -0 1 0 0 -0 0 -1 50
0.78539816339744839
Triangulations 0

TShapes 120
Ve
1e-07
74 0 0
0 0

0101101
*
Ed
 1e-07 1 1 0
1  1 0 0 6.28318530717959
2  1 2 0 0 6.28318530717959
2  2 1 0 0 6.28318530717959
0

0101000
+120 0 -120 0 *
Wi

0101100
-119 0 *
Ve
1.00000007105427e-07
37.476659402887 0 47.3761543394987
0 0

0101101
*
Ed
 1e-07 1 1 0
1  2 0 2.78178084688463e-16 6.28318530717959
2  3 1 0 2.78178084688463e-16 6.28318530717959
2  4 3 0 2.78178084688463e-16 6.28318530717959
0

0101100
+117 0 -117 0 *
Wi

0101100
+116 0 *
Ve
1e-07
-7.00000000000001 0 60
0 0

0101101
*
Ed
 1e-07 1 1 0
1  3 0 0 6.28318530717959
2  5 1 0 0 6.28318530717959
2  6 4 0 0 6.28318530717959
0

0101100
+114 0 -114 0 *
Wi

0101100
+113 0 *
Ve
1e-07
-47.3761543394987 0 37.476659402887
0 0

0101101
*
Ed
 1e-07 1 1 0
1  4 0 0 6.28318530717959
2  7 1 0 0 6.28318530717959
2  8 5 0 0 6.28318530717959
0

0101100
+111 0 -111 0 *
Wi

0101100
+110 0 *
Ve
1e-07
60 0 7
0 0

0101101
*
Ed
 1e-07 1 1 0
1  5 0 0 6.28318530717959
2  9 1 0 0 6.28318530717959
2  10 6 0 0 6.28318530717959
0

0101100
+108 0 -108 0 *
Wi

0101100
+107 0 *
Ve
1.00000007105427e-07
47.3761543394987 0 -37.476659402887
0 0

0101101
*
Ed
 1e-07 1 1 0
1  6 0 1.00875766104946e-16 6.28318530717959
2  11 1 0 1.00875766104946e-16 6.28318530717959
2  12 7 0 1.00875766104946e-16 6.28318530717959
0

0101100
+105 0 -105 0 *
Wi

0101100
+104 0 *
Ve
1e-07
25 0 0
0 0

0101101
*
Ed
 1e-07 1 1 0
1  7 0 0 6.28318530717959
2  13 1 0 0 6.28318530717959
2  14 8 0 0 6.28318530717959
0

0101000
+102 0 -102 0 *
Wi

0101100
+101 0 *
Ve
1e-07
-60 0 -7.00000000000001
0 0

0101101
*
Ed
 1e-07 1 1 0
1  8 0 0 6.28318530717959
2  15 1 0 0 6.28318530717959
2  16 9 0 0 6.28318530717959
0

0101100
+99 0 -99 0 *
Wi

0101100
+98 0 *
Ve
1e-07
7.00000000000001 0 -60
0 0

0101101
*
Ed
 1e-07 1 1 0
1  9 0 0 6.28318530717959
2  17 1 0 0 6.28318530717959
2  18 10 0 0 6.28318530717959
0

0101100
+96 0 -96 0 *
Wi

0101100
+95 0 *
Ve
1.00000007105427e-07
-37.476659402887 0 -47.3761543394987
0 0

0101101
*
Ed
 1e-07 1 1 0
1  10 0 8.86511592917583e-17 6.28318530717959
2  19 1 0 8.86511592917583e-17 6.28318530717959
2  20 11 0 8.86511592917583e-17 6.28318530717959
0

0101100
+93 0 -93 0 *
Wi

0101100
+92 0 *
Fa
0  1e-07 1 0

0101000
+118 0 +115 0 +112 0 +109 0 +106 0 +103 0 +100 0 +97 0 +94 0 +91 0 
*
Ve
1e-07
75 1 0
0 0

0101101
*
Ed
 1e-07 1 1 0
1  11 0 -1.4142135623731 0
3  21 22CN 2 0 -1.4142135623731 0
0

0101000
+120 0 -89 0 *
Ed
 1e-07 1 1 0
1  12 0 0 6.28318530717959
2  23 2 0 0 6.28318530717959
2  24 12 0 0 6.28318530717959
0

0101000
+89 0 -89 0 *
Wi

0101100
-88 0 +119 0 -87 0 +88 0 *
Fa
0  0 2 0

0101000
+86 0 *
Ve
1.00000007105427e-07
37.476659402887 15 47.3761543394987
0 0

0101101
*
Ed
 1e-07 1 1 0
1  13 0 2.78178084688463e-16 6.28318530717959
2  25 13 0 2.78178084688463e-16 6.28318530717959
2  26 3 0 2.78178084688463e-16 6.28318530717959
0

0101100
+84 0 -84 0 *
Ed
 1e-07 1 1 0
1  14 0 1 16
3  27 28CN 3 0 1 16
0

0101000
+117 0 -84 0 *
Wi

0101100
-83 0 +82 0 +116 0 -82 0 *
Fa
0  1e-07 3 0

0101000
+81 0 *
Ve
1e-07
-7.00000000000001 15 60
0 0

0101101
*
Ed
 1e-07 1 1 0
1  15 0 0 6.28318530717959
2  29 13 0 0 6.28318530717959
2  30 4 0 0 6.28318530717959
0

0101100
+79 0 -79 0 *
Ed
 1e-07 1 1 0
1  16 0 1 16
3  27 28CN 4 0 1 16
0

0101000
+114 0 -79 0 *
Wi

0101100
-78 0 +77 0 +113 0 -77 0 *
Fa
0  1e-07 4 0

0101000
+76 0 *
Ve
1e-07
-47.3761543394987 15 37.476659402887
0 0

0101101
*
Ed
 1e-07 1 1 0
1  17 0 0 6.28318530717959
2  31 13 0 0 6.28318530717959
2  32 5 0 0 6.28318530717959
0

0101100
+74 0 -74 0 *
Ed
 1e-07 1 1 0
1  18 0 1 16
3  27 28CN 5 0 1 16
0

0101000
+111 0 -74 0 *
Wi

0101100
-73 0 +72 0 +110 0 -72 0 *
Fa
0  1e-07 5 0

0101000
+71 0 *
Ve
1e-07
60 15 7
0 0

0101101
*
Ed
 1e-07 1 1 0
1  19 0 0 6.28318530717959
2  33 13 0 0 6.28318530717959
2  34 6 0 0 6.28318530717959
0

0101100
+69 0 -69 0 *
Ed
 1e-07 1 1 0
1  20 0 1 16
3  27 28CN 6 0 1 16
0

0101000
+108 0 -69 0 *
Wi

0101100
-68 0 +67 0 +107 0 -67 0 *
Fa
0  1e-07 6 0

0101000
+66 0 *
Ve
1.00000007105427e-07
47.3761543394987 15 -37.476659402887
0 0

0101101
*
Ed
 1e-07 1 1 0
1  21 0 1.00875766104946e-16 6.28318530717959
2  35 13 0 1.00875766104946e-16 6.28318530717959
2  36 7 0 1.00875766104946e-16 6.28318530717959
0

0101100
+64 0 -64 0 *
Ed
 1e-07 1 1 0
1  22 0 1 16
3  27 28CN 7 0 1 16
0

0101000
+105 0 -64 0 *
Wi

0101100
-63 0 +62 0 +104 0 -62 0 *
Fa
0  1e-07 7 0

0101000
+61 0 *
Ve
1e-07
25 17 0
0 0

0101101
*
Ed
 1e-07 1 1 0
1  23 0 0 6.28318530717959
2  37 14 0 0 6.28318530717959
2  38 8 0 0 6.28318530717959
0

0101000
+59 0 -59 0 *
Ed
 1e-07 1 1 0
1  24 0 0 17
3  39 40CN 8 0 0 17
0

0101000
+59 0 -102 0 *
Wi

0101100
+58 0 -101 0 -57 0 +57 0 *
Fa
0  1e-07 8 0

0101000
+56 0 *
Ve
1e-07
-60 15 -7.00000000000001
0 0

0101101
*
Ed
 1e-07 1 1 0
1  25 0 0 6.28318530717959
2  41 13 0 0 6.28318530717959
2  42 9 0 0 6.28318530717959
0

0101100
+54 0 -54 0 *
Ed
 1e-07 1 1 0
1  26 0 1 16
3  27 28CN 9 0 1 16
0

0101000
+99 0 -54 0 *
Wi

0101100
-53 0 +52 0 +98 0 -52 0 *
Fa
0  1e-07 9 0

0101000
+51 0 *
Ve
1e-07
7.00000000000001 15 -60
0 0

0101101
*
Ed
 1e-07 1 1 0
1  27 0 0 6.28318530717959
2  43 13 0 0 6.28318530717959
2  44 10 0 0 6.28318530717959
0

0101100
+49 0 -49 0 *
Ed
 1e-07 1 1 0
1  28 0 1 16
3  27 28CN 10 0 1 16
0

0101000
+96 0 -49 0 *
Wi

0101100
-48 0 +47 0 +95 0 -47 0 *
Fa
0  1e-07 10 0

0101000
+46 0 *
Ve
1.00000007105427e-07
-37.476659402887 15 -47.3761543394987
0 0

0101101
*
Ed
 1e-07 1 1 0
1  29 0 8.86511592917583e-17 6.28318530717959
2  45 13 0 8.86511592917583e-17 6.28318530717959
2  46 11 0 8.86511592917583e-17 6.28318530717959
0

0101100
+44 0 -44 0 *
Ed
 1e-07 1 1 0
1  30 0 1 16
3  27 28CN 11 0 1 16
0

0101000
+93 0 -44 0 *
Wi

0101100
-43 0 +42 0 +92 0 -42 0 *
Fa
0  1e-07 11 0

0101000
+41 0 *
Ve
1e-07
75 14 0
0 0

0101101
*
Ed
 1e-07 1 1 0
1  31 0 1 14
3  47 48CN 12 0 1 14
0

0101000
+89 0 -39 0 *
Ed
 1e-07 1 1 0
1  32 0 0 6.28318530717959
2  49 15 0 0 6.28318530717959
2  50 12 0 0 6.28318530717959
0

0101000
+39 0 -39 0 *
Wi

0101100
-38 0 +87 0 -37 0 +38 0 *
Fa
0  1e-07 12 0

0101000
+36 0 *
Ve
1e-07
74 15 0
0 0

0101101
*
Ed
 1e-07 1 1 0
1  33 0 0 6.28318530717959
2  51 15 0 0 6.28318530717959
2  52 13 0 0 6.28318530717959
0

0101000
+34 0 -34 0 *
Wi

0101100
+33 0 *
Wi

0101100
-73 0 *
Wi

0101100
-78 0 *
Wi

0101100
-83 0 *
Wi

0101100
-53 0 *
Wi

0101100
-43 0 *
Ve
1e-07
50 15 0
0 0

0101101
*
Ed
 1e-07 1 1 0
1  34 0 0 6.28318530717959
2  53 13 0 0 6.28318530717959
2  54 16 0 0 6.28318530717959
0

0101000
+26 0 -26 0 *
Wi

0101100
-25 0 *
Wi

0101100
-68 0 *
Wi

0101100
-48 0 *
Wi

0101100
-63 0 *
Fa
0  1e-07 13 0

0101000
+32 0 +31 0 +30 0 +29 0 +28 0 +27 0 +24 0 +23 0 +22 0 +21 0 
*
Ve
1e-07
49 17 0
0 0

0101101
*
Ed
 1e-07 1 1 0
1  35 0 0 6.28318530717959
2  55 17 0 0 6.28318530717959
2  56 14 0 0 6.28318530717959
0

0101000
+19 0 -19 0 *
Wi

0101100
+18 0 *
Wi

0101100
-58 0 *
Fa
0  1e-07 14 0

0101000
+17 0 +16 0 *
Ed
 1e-07 1 1 0
1  36 0 0 1.4142135623731
3  57 58CN 15 0 0 1.4142135623731
0

0101000
+39 0 -34 0 *
Wi

0101100
-14 0 +37 0 -33 0 +14 0 *
Fa
0  0 15 0

0101000
+13 0 *
Ve
1e-07
50 16 0
0 0

0101101
*
Ed
 1e-07 1 1 0
1  37 0 0 1
3  59 60CN 16 0 0 1
0

0101000
-11 0 +26 0 *
Ed
 1e-07 1 1 0
1  38 0 0 6.28318530717959
2  61 17 0 0 6.28318530717959
2  62 16 0 0 6.28318530717959
0

0101000
+11 0 -11 0 *
Wi

0101100
-10 0 -9 0 +25 0 +10 0 *
Fa
0  1e-07 16 0

0101000
+8 0 *
Ed
 1e-07 1 1 0
1  39 0 -1.4142135623731 0
3  63 64CN 17 0 -1.4142135623731 0
0

0101000
+19 0 -11 0 *
Wi

0101100
-6 0 +18 0 -9 0 +6 0 *
Fa
0  0 17 0

0101000
+5 0 *
Sh

0101100
+90 0 +85 0 -80 0 -75 0 -70 0 -65 0 -60 0 +55 0 -50 0 -45 0 
-40 0 +35 0 +20 0 +15 0 +12 0 +7 0 -4 0 *
So

0100000
+3 0 *
Co

1100000
+2 0 *

+1 0 