DBRep_DrawableShape

CASCADE Topology V3, (c) Open Cascade
Locations 0
Curve2ds 126
1 0 0 0 1 
1 22 0 0 1 
1 0 1 1 0 
1 1 0 0 1 
1 1 0 0 1 
7 0 0  4 5 2  1 0.033381902028931265  0.750000000000004 0.033381902028931265  0.49999999999999423 0.033381902028931008  0.25000000000000455 0.033381902028931258  0 0.033381902028931258 
 0 5 1 5
7 0 0  4 5 2  -6.1704137073299989 -2.916947032022922  -6.2075610994510795 -3.1444414798612526  -6.2447084915721609 -3.3719359276995959  -6.2818558836932397 -3.5994303755379207  -6.3190032758143211 -3.8269248233762592 
 0 5 1 5
1 21 0 0 1 
1 21 0 0 1 
1 0 1 1 0 
7 0 0  4 5 2  22 0.033381902028931265  21.750000000000004 0.033381902028931265  21.499999999999996 0.033381902028931008  21.25 0.033381902028931258  21 0.033381902028931258 
 0 5 1 5
7 0 0  4 5 2  -6.3190032758143229 -3.8269248233762587  -6.1001866355119168 -3.8994019264187574  -5.8813699952095053 -3.9718790294612609  -5.6625533549070992 -4.0443561325037551  -5.4437367146046896 -4.1168332355462551 
 0 5 1 5
1 0 1 1 0 
1 0 1 1 0 
1 0 1 1 0 
1 0 1 1 0 
1 0 1 1 0 
1 0 1 1 0 
1 0 1 1 0 
1 0 1 1 0 
1 0 1 1 0 
1 0 1 1 0 
1 0 1 1 0 
1 0 1 1 0 
1 0 1 1 0 
1 0 1 1 0 
1 0 1 1 0 
1 0 1 1 0 
1 0 1 1 0 
1 0 1 1 0 
1 0 1 1 0 
1 0 1 1 0 
1 2 0 0 1 
1 2 0 0 1 
7 0 0  4 5 2  2 0.033381902028931265  1.7500000000000036 0.033381902028931265  1.4999999999999929 0.033381902028931008  1.2500000000000049 0.033381902028931258  1 0.033381902028931258 
 0 5 1 5
7 0 0  4 5 2  -4.9700928044559705 -1.526525118520492  -5.2701730301744734 -1.8741305968960946  -5.5702532558929931 -2.2217360752717163  -5.8703334816114863 -2.5693415536473077  -6.1704137073299989 -2.916947032022922 
 0 5 1 5
1 0 14 1 0 
2 0 0 1 0 -0 1 16.5
7 0 0  4 5 2  8 0.033381902028931265  7.75 0.033381902028931265  7.4999999999999982 0.033381902028931008  7.2500000000000018 0.033381902028931258  7 0.033381902028931258 
 0 5 1 5
7 0 0  4 5 2  14.240875773189217 9.4240860320204245  13.435582518818254 9.0464347475630014  12.630289264447287 8.6687834631055729  11.82499601007633 8.2911321786481551  11.01970275570536 7.9134808941907284 
 0 5 1 5
7 0 0  4 5 2  7 0.033381902028931265  6.7499999999999991 0.033381902028931265  6.5000000000000027 0.033381902028931008  6.2499999999999982 0.033381902028931258  6 0.033381902028931258 
 0 5 1 5
7 0 0  4 5 2  11.01970275570536 7.9134808941907284  10.11073869163511 7.4670400832011277  9.2017746275648786 7.0205992722115358  8.2928105634946192 6.5741584612219297  7.3838464994243802 6.1277176502323343 
 0 5 1 5
7 0 0  4 5 2  6 0.033381902028931265  5.75 0.033381902028931265  5.4999999999999991 0.033381902028931008  5.2500000000000009 0.033381902028931258  5 0.033381902028931258 
 0 5 1 5
7 0 0  4 5 2  7.3838464994243793 6.1277176502323343  6.4504963007870852 5.6393329486846415  5.5171461021497894 5.1509482471369505  4.5837959035125033 4.6625635455892587  3.6504457048752075 4.1741788440415641 
 0 5 1 5
7 0 0  4 5 2  5 0.033381902028931265  4.7500000000000027 0.033381902028931265  4.4999999999999956 0.033381902028931008  4.2500000000000027 0.033381902028931258  4 0.033381902028931258 
 0 5 1 5
7 0 0  4 5 2  3.6504457048752079 4.174178844041565  2.7754487395497467 3.6716516926757237  1.9004517742242515 3.1691245413098663  1.0254548088988058 2.6665973899440321  0.15045784357332689 2.1640702385781809 
 0 5 1 5
7 0 0  4 5 2  4 0.033381902028931265  3.7500000000000013 0.033381902028931265  3.4999999999999978 0.033381902028931008  3.2500000000000013 0.033381902028931258  3 0.033381902028931258 
 0 5 1 5
7 0 0  4 5 2  0.15045784357332703 2.1640702385781809  -0.58881818274393405 1.6774115657907642  -1.3280942090612093 1.1907528930033373  -2.0673702353784633 0.70409422021592549  -2.8066462616957319 0.21743554742850357 
 0 5 1 5
7 0 0  4 5 2  3 0.033381902028931265  2.7500000000000009 0.033381902028931265  2.4999999999999991 0.033381902028931001  2.25 0.033381902028931258  2 0.033381902028931258 
 0 5 1 5
7 0 0  4 5 2  -2.8066462616957319 0.21743554742850346  -3.347507897385789 -0.21855461905874352  -3.8883695330758528 -0.65454478554599593  -4.4292311687659112 -1.0905349520332432  -4.9700928044559705 -1.526525118520492 
 0 5 1 5
7 0 0  4 5 2  21 0.033381902028931265  20.75 0.033381902028931265  20.5 0.033381902028931008  20.25 0.033381902028931258  20 0.033381902028931258 
 0 5 1 5
7 0 0  4 5 2  -5.4437367146046878 -4.116833235546256  -4.9966615266829724 -4.0119452628860639  -4.5495863387612543 -3.9070572902258709  -4.1025111508395389 -3.8021693175656788  -3.655435962917823 -3.6972813449054862 
 0 5 1 5
7 0 0  4 5 2  20 0.033381902028931265  19.75 0.033381902028931265  19.499999999999996 0.033381902028931008  19.250000000000004 0.033381902028931258  19 0.033381902028931258 
 0 5 1 5
7 0 0  4 5 2  -3.6554359629178235 -3.6972813449054862  -3.0184808918597055 -3.4199602824377213  -2.3815258208015684 -3.1426392199699498  -1.7445707497434653 -2.8653181575021902  -1.1076156786853351 -2.58799709503442 
 0 5 1 5
7 0 0  4 5 2  19 0.033381902028931265  18.750000000000004 0.033381902028931265  18.499999999999993 0.033381902028931008  18.250000000000004 0.033381902028931258  18 0.033381902028931258 
 0 5 1 5
7 0 0  4 5 2  -1.1076156786853351 -2.58799709503442  -0.33383340998155464 -2.1583149944923288  0.43994885872227241 -1.7286328939502118  1.2137311274260369 -1.2989507934081301  1.9875133961298408 -0.86926869286602582 
 0 5 1 5
7 0 0  4 5 2  18 0.033381902028931265  17.75 0.033381902028931265  17.500000000000004 0.033381902028931008  17.25 0.033381902028931258  17 0.033381902028931258 
 0 5 1 5
7 0 0  4 5 2  1.9875133961298403 -0.86926869286602559  2.8382373295398695 -0.3266620062945903  3.6889612629498818 0.21594468027683567  4.539685196359919 0.75855136684827529  5.3904091297699406 1.3011580534197058 
 0 5 1 5
7 0 0  4 5 2  17 0.033381902028931265  16.749999999999996 0.033381902028931265  16.500000000000007 0.033381902028931008  16.249999999999996 0.033381902028931258  16 0.033381902028931258 
 0 5 1 5
7 0 0  4 5 2  5.3904091297699397 1.301158053419706  6.2556347896244047 1.9020297265176498  7.1208604494788261 2.5029013996155616  7.9860861093333142 3.1037730727135218  8.8513117691877561 3.7046447458114495 
 0 5 1 5
7 0 0  4 5 2  16 0.033381902028931265  15.750000000000002 0.033381902028931265  15.499999999999995 0.033381902028931008  15.250000000000004 0.033381902028931258  15 0.033381902028931258 
 0 5 1 5
7 0 0  4 5 2  8.8513117691877596 3.7046447458114486  9.6680686038529995 4.3033377727591198  10.484825438518273 4.902030799706818  11.301582273183492 5.5007238266544736  12.118339107848751 6.0994168536021593 
 0 5 1 5
7 0 0  4 5 2  15 0.033381902028931265  14.75 0.033381902028931265  14.500000000000002 0.033381902028931008  14.25 0.033381902028931258  14 0.033381902028931258 
 0 5 1 5
7 0 0  4 5 2  12.118339107848749 6.0994168536021593  12.826104148498846 6.6381063424742539  13.533869189148938 7.1767958313463485  14.241634229799041 7.7154853202184395  14.949399270449138 8.254174809090534 
 0 5 1 5
1 20 0 0 1 
1 20 0 0 1 
1 3 0 0 1 
1 3 0 0 1 
1 4 0 0 1 
1 4 0 0 1 
1 5 0 0 1 
1 5 0 0 1 
1 6 0 0 1 
1 6 0 0 1 
1 7 0 0 1 
1 7 0 0 1 
7 0 0  4 5 2  7.7656976939753859 0  7.7830323589614006 0.0083460441711644597  7.80053813472525 0.016691710641362753  7.8182191011805626 0.025036999543638003  7.8360790574390187 0.033381911953005182 
 0 5 1 5
7 0 0  4 5 2  0.60602921901209561 12.000000000000004  0.60195813313574997 12.500004560321589  0.59788713579691311 13.000006256474785  0.59381622831787684 13.50000497448498  0.58974541151302995 14.0000006 
 0 5 1 5
1 8 0 0 1 
1 8 0 0 1 
1 0 0 1 0 
7 0 0  1 2 2  21.232564797049843 -1.0498005410144438  24.823766098774193 -0.6630041079169785 
 7 2 8 2
1 0 0 1 0 
7 0 0  1 2 2  24.823766098774193 -0.6630041079169785  27.61923004519134 -0.3215308940545174 
 8 2 9 2
1 9 0 0 1 
1 9 0 0 1 
1 0 0 1 0 
7 0 0  1 2 2  27.61923004519134 -0.3215308940545174  29.39252499111063 -0.084964459992369651 
 9 2 10 2
1 10 0 0 1 
1 10 0 0 1 
1 0 0 1 0 
7 0 0  1 2 2  29.39252499111063 -0.084964459992369651  30.000023813990552 3.1004765013150931e-15 
 10 2 11 2
1 11 0 0 1 
1 11 0 0 1 
1 0 0 1 0 
7 0 0  1 2 2  30.000023813990552 3.1004765013150931e-15  29.392217554014184 0.15903323559922913 
 11 2 12 2
1 12 0 0 1 
1 12 0 0 1 
1 0 0 1 0 
7 0 0  1 2 2  29.392217554014184 0.15903323559922913  27.618332092184673 0.39113022234761713 
 12 2 13 2
1 13 0 0 1 
1 13 0 0 1 
1 0 0 1 0 
7 0 0  1 2 2  27.618332092184673 0.39113022234761713  24.822016510777772 0.7255577940050173 
 13 2 14 2
1 14 0 0 1 
1 14 0 0 1 
1 15 0 0 1 
1 15 0 0 1 
7 0 0  4 5 2  14.234302306024613 0  14.216967633603 0.0083460477511491729  14.199461855242488 0.016691715411100063  14.181780891144232 0.025037003117539924  14.163920942560983 0.033381911953005203 
 0 5 1 5
7 0 0  4 5 2  0.51098150226427519 12.000000000000004  0.50807124125108116 12.500004774795492  0.50516092390883671 13.000006542242742  0.50225055240277339 13.500005188619681  0.49934012839224601 14.0000006 
 0 5 1 5
1 0 0 1 0 
7 0 0  1 2 2  24.822016510777772 0.7255577940050173  21.229851886353764 1.1033031860355349 
 14 2 15 2
1 16 0 0 1 
1 16 0 0 1 
1 17 0 0 1 
1 17 0 0 1 
1 18 0 0 1 
1 18 0 0 1 
1 19 0 0 1 
1 19 0 0 1 
1 6.2831853071795862 -0 0 1 
1 0 -0 0 1 
1 0 0 1 0 
2 0 0 1 0 -0 1 16.5
2 7.4999940465070898 0.0094499924985998445 0.84737972523373328 0.53098738333674456 0.53098738333674456 -0.84737972523373328 16.5
1 0 12 1 0 
Curves 74
7 1 0  5 6 2  -6.360360721173195 -3.9743944817490369 0  1 -6.1212471179771368 -3.0852054170440009 11.981833550536562  0.99999999999998546 -5.7516118475116498 -2.2799771194552081 23.974310591955742  1.0000000000000313 -5.2711297723697577 -1.582560439757049 35.975887494697368  0.99999999999997047 -4.7059666412742356 -1.0107914549455301 47.984984231141361  1.0000000000000122 -4.0848557835589778 -0.57408904146026996 60  1
 0 6 1 6
7 0 0  1 2 2  -4.0848557835589778 -0.57408904146026996 60  -3.8084306133235382 -0.13975260875310691 60 
 0 2 1 2
7 1 0  5 6 2  -6.2224217829153066 -3.0485429890371476 0  1 -5.9182577495442334 -2.2540928202975432 11.981833550536562  0.99999999999998546 -5.5021175983331512 -1.5491934934586291 23.974310591955742  1.0000000000000313 -4.9943467151955767 -0.95389562104169789 35.975887494697368  0.99999999999997047 -4.4206844604455897 -0.48210606086859781 47.984984231141361  1.0000000000000122 -3.8084306133235382 -0.13975260875310691 60  1
 0 6 1 6
7 0 0  4 5 2  -6.1704137073299989 -2.916947032022922 2  -6.2075610994510795 -3.1444414798612526 2  -6.2447084915721609 -3.3719359276995959 2  -6.2818558836932397 -3.5994303755379207 2  -6.3190032758143211 -3.8269248233762592 2 
 0 5 1 5
7 1 0  5 6 2  -5.4677424612155736 -4.2562823659065083 0  1 -5.3324224123296924 -3.41642802485894 11.981833550536562  0.99999999999998546 -5.0691833252249046 -2.6413403721071638 23.974310591955742  1.0000000000000313 -4.6938416584607374 -1.9548059885129998 35.975887494697368  0.99999999999997047 -4.2287499624733371 -1.3757002244795158 47.984984231141361  1.0000000000000122 -3.6994195097720306 -0.91540691436719657 60  1
 0 6 1 6
7 0 0  1 2 2  -3.6994195097720306 -0.91540691436719657 60  -4.0848557835589778 -0.57408904146026996 60 
 21 2 22 2
7 0 0  4 5 2  -6.3190032758143229 -3.8269248233762587 2  -6.1001866355119168 -3.8994019264187574 2  -5.8813699952095053 -3.9718790294612609 2  -5.6625533549070992 -4.0443561325037551 2  -5.4437367146046896 -4.1168332355462551 2 
 0 5 1 5
7 0 0  1 2 2  -3.8084306133235382 -0.13975260875310691 60  -2.8865508404257971 0.30981188116184644 60 
 1 2 2 2
7 0 0  1 2 2  -2.8865508404257971 0.30981188116184644 60  -1.3926059929012475 0.7289640840061764 60 
 2 2 3 2
7 0 0  1 2 2  -1.3926059929012475 0.7289640840061764 60  0.55324370306694215 1.0775542710507897 60 
 3 2 4 2
7 0 0  1 2 2  0.55324370306694215 1.0775542710507897 60  2.7916759074070274 1.339303885443748 60 
 4 2 5 2
7 0 0  1 2 2  2.7916759074070274 1.339303885443748 60  5.1374574213273565 1.5206773107357956 60 
 5 2 6 2
7 0 0  1 2 2  5.1374574213273565 1.5206773107357956 60  7.396271671366863 1.6374011342788242 60 
 6 2 7 2
7 0 0  1 2 2  7.396271671366863 1.6374011342788242 60  9.3817351762520236 1.704124424767316 60 
 7 2 8 2
7 0 0  1 2 2  9.3817351762520236 1.704124424767316 60  10.930379084144102 1.7340725896296616 60 
 8 2 9 2
7 0 0  1 2 2  10.930379084144102 1.7340725896296616 60  11.914298194374187 1.7422042570932854 60 
 9 2 10 2
7 0 0  1 2 2  11.914298194374187 1.7422042570932854 60  12.251673941907972 1.7428547975299467 60 
 10 2 11 2
7 0 0  1 2 2  12.251673941907972 1.7428547975299467 60  11.932975062957293 1.6093114318680981 60 
 11 2 12 2
7 0 0  1 2 2  11.932975062957293 1.6093114318680981 60  10.984929919073343 1.3459232304433522 60 
 12 2 13 2
7 0 0  1 2 2  10.984929919073343 1.3459232304433522 60  9.4880230167942319 0.94784714231569445 60 
 13 2 14 2
7 0 0  1 2 2  9.4880230167942319 0.94784714231569445 60  7.5610815695030258 0.46471777513154977 60 
 14 2 15 2
7 0 0  1 2 2  7.5610815695030258 0.46471777513154977 60  5.3575965066181563 -0.045693671455721452 60 
 15 2 16 2
7 0 0  1 2 2  5.3575965066181563 -0.045693671455721452 60  3.0526932988833719 -0.51793135888274233 60 
 16 2 17 2
7 0 0  1 2 2  3.0526932988833719 -0.51793135888274233 60  0.82882619029907834 -0.88331701462008416 60 
 17 2 18 2
7 0 0  1 2 2  0.82882619029907834 -0.88331701462008416 60  -1.1377290659090962 -1.0845794852481068 60 
 18 2 19 2
7 0 0  1 2 2  -1.1377290659090962 -1.0845794852481068 60  -2.6893350285557398 -1.0934515353937808 60 
 19 2 20 2
7 0 0  1 2 2  -2.6893350285557398 -1.0934515353937808 60  -3.6994195097720306 -0.91540691436719657 60 
 20 2 21 2
7 1 0  5 6 2  -5.0236495510076118 -1.6200704766241898 0  1 -4.7077220393887185 -1.0542637977714684 11.981833550536562  0.99999999999998546 -4.3171340159275351 -0.56817987660823599 23.974310591955742  1.0000000000000313 -3.8694104340425546 -0.17471765161361236 35.975887494697368  0.99999999999997047 -3.3854732003994639 0.11844396575861219 47.984984231141361  1.0000000000000122 -2.8865508404257971 0.30981188116184644 60  1
 0 6 1 6
7 0 0  4 5 2  -4.9700928044559705 -1.526525118520492 2  -5.2701730301744734 -1.8741305968960946 2  -5.5702532558929931 -2.2217360752717163 2  -5.8703334816114863 -2.5693415536473077 2  -6.1704137073299989 -2.916947032022922 2 
 0 5 1 5
2 0 0 2 0 0 1 1 0 -0 -0 1 0 16.5
7 0 0  4 5 2  14.240875773189217 9.4240860320204245 2  13.435582518818254 9.0464347475630014 2  12.630289264447287 8.6687834631055729 2  11.82499601007633 8.2911321786481551 2  11.01970275570536 7.9134808941907284 2 
 0 5 1 5
7 0 0  4 5 2  11.01970275570536 7.9134808941907284 2  10.11073869163511 7.4670400832011277 2  9.2017746275648786 7.0205992722115358 2  8.2928105634946192 6.5741584612219297 2  7.3838464994243802 6.1277176502323343 2 
 0 5 1 5
7 0 0  4 5 2  7.3838464994243793 6.1277176502323343 2  6.4504963007870852 5.6393329486846415 2  5.5171461021497894 5.1509482471369505 2  4.5837959035125033 4.6625635455892587 2  3.6504457048752075 4.1741788440415641 2 
 0 5 1 5
7 0 0  4 5 2  3.6504457048752079 4.174178844041565 2  2.7754487395497467 3.6716516926757237 2  1.9004517742242515 3.1691245413098663 2  1.0254548088988058 2.6665973899440321 2  0.15045784357332689 2.1640702385781809 2 
 0 5 1 5
7 0 0  4 5 2  0.15045784357332703 2.1640702385781809 2  -0.58881818274393405 1.6774115657907642 2  -1.3280942090612093 1.1907528930033373 2  -2.0673702353784633 0.70409422021592549 2  -2.8066462616957319 0.21743554742850357 2 
 0 5 1 5
7 0 0  4 5 2  -2.8066462616957319 0.21743554742850346 2  -3.347507897385789 -0.21855461905874352 2  -3.8883695330758528 -0.65454478554599593 2  -4.4292311687659112 -1.0905349520332432 2  -4.9700928044559705 -1.526525118520492 2 
 0 5 1 5
7 0 0  4 5 2  -5.4437367146046878 -4.116833235546256 2  -4.9966615266829724 -4.0119452628860639 2  -4.5495863387612543 -3.9070572902258709 2  -4.1025111508395389 -3.8021693175656788 2  -3.655435962917823 -3.6972813449054862 2 
 0 5 1 5
7 0 0  4 5 2  -3.6554359629178235 -3.6972813449054862 2  -3.0184808918597055 -3.4199602824377213 2  -2.3815258208015684 -3.1426392199699498 2  -1.7445707497434653 -2.8653181575021902 2  -1.1076156786853351 -2.58799709503442 2 
 0 5 1 5
7 0 0  4 5 2  -1.1076156786853351 -2.58799709503442 2  -0.33383340998155464 -2.1583149944923288 2  0.43994885872227241 -1.7286328939502118 2  1.2137311274260369 -1.2989507934081301 2  1.9875133961298408 -0.86926869286602582 2 
 0 5 1 5
7 0 0  4 5 2  1.9875133961298403 -0.86926869286602559 2  2.8382373295398695 -0.3266620062945903 2  3.6889612629498818 0.21594468027683567 2  4.539685196359919 0.75855136684827529 2  5.3904091297699406 1.3011580534197058 2 
 0 5 1 5
7 0 0  4 5 2  5.3904091297699397 1.301158053419706 2  6.2556347896244047 1.9020297265176498 2  7.1208604494788261 2.5029013996155616 2  7.9860861093333142 3.1037730727135218 2  8.8513117691877561 3.7046447458114495 2 
 0 5 1 5
7 0 0  4 5 2  8.8513117691877596 3.7046447458114486 2  9.6680686038529995 4.3033377727591198 2  10.484825438518273 4.902030799706818 2  11.301582273183492 5.5007238266544736 2  12.118339107848751 6.0994168536021593 2 
 0 5 1 5
7 0 0  4 5 2  12.118339107848749 6.0994168536021593 2  12.826104148498846 6.6381063424742539 2  13.533869189148938 7.1767958313463485 2  14.241634229799041 7.7154853202184395 2  14.949399270449138 8.254174809090534 2 
 0 5 1 5
7 1 0  5 6 2  -3.6583327137165162 -3.8050341544222519 0  1 -3.647866777980969 -3.1570851945332414 11.981833550536562  0.99999999999998546 -3.5338974338202309 -2.5440211105450237 23.974310591955742  1.0000000000000313 -3.3257561932889859 -1.9854997123303719 35.975887494697368  0.99999999999997047 -3.0382377664824802 -1.4981885855814796 47.984984231141361  1.0000000000000122 -2.6893350285557398 -1.0934515353937808 60  1
 0 6 1 6
7 1 0  5 6 2  -2.8521914246405391 0.18094171099735767 0  1 -2.5807472463321997 0.40326330852435144 11.981833550536562  0.99999999999998546 -2.2875156352741586 0.57060675912004943 23.974310591955742  1.0000000000000313 -1.9838848211334785 0.67995244291615264 35.975887494697368  0.99999999999997047 -1.6819182180539485 0.73158451613757736 47.984984231141361  1.0000000000000122 -1.3926059929012475 0.7289640840061764 60  1
 0 6 1 6
7 1 0  5 6 2  0.12205902721270523 2.1989441750365559 0  1 0.29502885372758725 1.9911287068389838 11.981833550536562  0.99999999999998546 0.42576630504889884 1.7661894344653086 23.974310591955742  1.0000000000000313 0.51187516277692857 1.5328835111277475 35.975887494697368  0.99999999999997047 0.55350092070399204 1.3005084952221555 47.984984231141361  1.0000000000000122 0.55324370306694215 1.0775542710507897 60  1
 0 6 1 6
7 1 0  5 6 2  3.6465070509058357 4.2890761237900819 0  1 3.6775932267676361 3.598618528899018 11.981833550536562  0.99999999999998546 3.5962211228941392 2.9385522494454901 23.974310591955742  1.0000000000000313 3.4110434952399777 2.3304121982105048 35.975887494697368  0.99999999999997047 3.1367238364260102 1.7929060821460163 47.984984231141361  1.0000000000000122 2.7916759074070274 1.339303885443748 60  1
 0 6 1 6
7 1 0  5 6 2  7.4087012845739313 6.3250909731970859 0  1 7.2720122224648351 5.1369672902534109 11.981833550536562  0.99999999999998546 6.9515534356009914 4.031677306026781 23.974310591955742  1.0000000000000313 6.4680269355534996 3.0436327738143838 35.975887494697368  0.99999999999997047 5.8516263256617966 2.2007631814050859 47.984984231141361  1.0000000000000122 5.1374574213273565 1.5206773107357956 60  1
 0 6 1 6
7 1 0  5 6 2  11.074253360259579 8.1894092353593777 0  1 10.764111516502902 6.527132743642782 11.981833550536562  0.99999999999998546 10.202954926325484 4.9998390179462193 23.974310591955742  1.0000000000000313 9.4233813591548099 3.6540190489207487 35.975887494697368  0.99999999999997047 8.4707356564510565 2.5260835029305158 47.984984231141361  1.0000000000000122 7.396271671366863 1.6374011342788242 60  1
 0 6 1 6
7 0 0  4 5 2  13.561618642418031 9.3985371094452628 3.5527136788005017e-15  13.599880894102604 9.3433265953297298 0.50000456032158846  13.63784262463218 9.2879095899994564 1.0000062564747865  13.675502160013913 9.2322885720463628 1.5000049744849808  13.712857872133734 9.1764660397486306 2.0000005999999995 
 0 5 1 5
7 1 0  5 6 2  14.322748558468192 9.7685283623979817 0  1 13.852775738498599 7.6926143370892257 11.981833550536562  0.99999999999998546 13.073561900610606 5.7985437941552957 23.974310591955742  1.0000000000000313 12.028342603379803 4.1432268747445153 35.975887494697368  0.99999999999997047 10.77590233724395 2.7702821348409499 47.984984231141361  1.0000000000000122 9.3817351762520236 1.704124424767316 60  1
 0 6 1 6
7 0 0  1 2 2  11.074253360259579 8.1894092353593777 0  14.322748558468192 9.7685283623979817 0 
 7 2 8 2
7 0 0  1 2 2  14.322748558468192 9.7685283623979817 0  16.872885997592377 10.96352697038078 0 
 8 2 9 2
7 1 0  5 6 2  16.872885997592377 10.96352697038078 0  1 16.27370813249447 8.566910548088547 11.981833550536562  0.99999999999998546 15.320415931288139 6.3893182907606558 23.974310591955742  1.0000000000000313 14.064654179403002 4.4956650421667472 35.975887494697368  0.99999999999997047 12.575765276752819 2.9350393599714715 47.984984231141361  1.0000000000000122 10.930379084144102 1.7340725896296616 60  1
 0 6 1 6
7 0 0  1 2 2  16.872885997592377 10.96352697038078 0  18.501153973431798 11.704662613703631 0 
 9 2 10 2
7 1 0  5 6 2  18.501153973431798 11.704662613703631 0  1 17.817648742908307 9.1052426817682655 11.981833550536562  0.99999999999998546 16.75178684981913 6.7487799150752492 23.974310591955742  1.0000000000000313 15.360610971104176 4.7052146535292199 35.975887494697368  0.99999999999997047 13.72020842857418 3.0270357810635731 47.984984231141361  1.0000000000000122 11.914298194374187 1.7422042570932854 60  1
 0 6 1 6
7 0 0  1 2 2  18.501153973431798 11.704662613703631 0  19.06105121533157 11.955239663281823 0 
 10 2 11 2
7 1 0  5 6 2  19.06105121533157 11.955239663281823 0  1 18.348191918629428 9.286467336606778 11.981833550536562  0.99999999999998546 17.243344457853112 6.8689194820766941 23.974310591955742  1.0000000000000313 15.805413212492699 4.7742478133242683 35.975887494697368  0.99999999999997047 14.112805534889864 3.0560924367084552 47.984984231141361  1.0000000000000122 12.251673941907972 1.7428547975299467 60  1
 0 6 1 6
7 0 0  1 2 2  19.06105121533157 11.955239663281823 0  18.630453155391862 11.497740668236174 0 
 11 2 12 2
7 1 0  5 6 2  18.630453155391862 11.497740668236174 0  1 17.91801989087422 8.90609983156439 11.981833550536562  0.99999999999998546 16.825961463785312 6.5616624283109815 23.974310591955742  1.0000000000000313 15.412096492031463 4.5337287150540737 35.975887494697368  0.99999999999997047 13.753092559441551 2.873936324066495 47.984984231141361  1.0000000000000122 11.932975062957293 1.6093114318680981 60  1
 0 6 1 6
7 0 0  1 2 2  18.630453155391862 11.497740668236174 0  17.250539151824526 10.359155587661803 0 
 12 2 13 2
7 1 0  5 6 2  17.250539151824526 10.359155587661803 0  1 16.56686915678403 7.9852601123922682 11.981833550536562  0.99999999999998546 15.53706290850557 5.8427911742131853 23.974310591955742  1.0000000000000313 14.215031537408251 3.9947940808056899 35.975887494697368  0.99999999999997047 12.671812255225779 2.4878710796334049 47.984984231141361  1.0000000000000122 10.984929919073343 1.3459232304433522 60  1
 0 6 1 6
7 0 0  1 2 2  17.250539151824526 10.359155587661803 0  15.058574843975165 8.590960150325154 0 
 13 2 14 2
7 1 0  5 6 2  15.058574843975165 8.590960150325154 0  1 14.423976018811549 6.5593160321084572 11.981833550536562  0.99999999999998546 13.495680817732236 4.733680404054537 23.974310591955742  1.0000000000000313 12.321340587179295 3.1673207691380565 35.975887494697368  0.99999999999997047 10.963042019812042 1.8990113112550444 47.984984231141361  1.0000000000000122 9.4880230167942319 0.94784714231569445 60  1
 0 6 1 6
7 1 0  5 6 2  12.21522540881821 6.363472269380301 0  1 11.649814523860252 4.7698406841845786 11.981833550536562  0.99999999999998546 10.857492410361347 3.3486621198540059 23.974310591955742  1.0000000000000313 9.8777039572790741 2.1407792932252661 35.975887494697368  0.99999999999997047 8.7609143999829726 1.1750911885540656 47.984984231141361  1.0000000000000122 7.5610815695030258 0.46471777513154977 60  1
 0 6 1 6
7 0 0  4 5 2  14.392371514484113 8.0690546031778982 3.5527136788005017e-15  14.415854569509076 8.02716904547189 0.50000477479549321  14.439175548538334 7.9851915546400658 1.000006542242744  14.462333889476938 7.9431230998957574 1.5000051886196795  14.485329046736691 7.9009646504566913 2.0000005999999981 
 0 5 1 5
7 0 0  1 2 2  15.058574843975165 8.590960150325154 0  12.21522540881821 6.363472269380301 0 
 14 2 15 2
7 1 0  5 6 2  8.9327149873465306 3.8861592219183914 0  1 8.4550591879923527 2.7897255837006347 11.981833550536562  0.99999999999998546 7.825829098979642 1.8261752329715701 23.974310591955742  1.0000000000000313 7.0748725334752027 1.022375437866905 35.975887494697368  0.99999999999997047 6.2392224827763565 0.39622221824021525 47.984984231141361  1.0000000000000122 5.3575965066181563 -0.045693671455721452 60  1
 0 6 1 6
7 1 0  5 6 2  5.4535195618664822 1.3972516080905895 0  1 5.0803238346837336 0.8155102653230748 11.981833550536562  0.99999999999998546 4.6328437325718195 0.32350368937666574 23.974310591955742  1.0000000000000313 4.1305761252103608 -0.066178650863269115 35.975887494697368  0.99999999999997047 3.5962939202327817 -0.34672566200933591 47.984984231141361  1.0000000000000122 3.0526932988833719 -0.51793135888274233 60  1
 0 6 1 6
7 1 0  5 6 2  2.0299050884022827 -0.85424775278008946 0  1 1.7760335778177732 -0.94728046649028641 11.981833550536562  0.99999999999998546 1.5202337483109387 -0.99478209444483401 23.974310591955742  1.0000000000000313 1.2715586102681717 -0.99744009424544211 35.975887494697368  0.99999999999997047 1.0387155879589411 -0.95851736692466438 47.984984231141361  1.0000000000000122 0.82882619029907834 -0.88331701462008416 60  1
 0 6 1 6
7 1 0  5 6 2  -1.087689093110036 -2.6428522967243451 0  1 -1.2110160390694071 -2.3143720095459965 11.981833550536562  0.99999999999998546 -1.2752796930220336 -1.9829224795091356 23.974310591955742  1.0000000000000313 -1.2812792799466357 -1.6602583277704273 35.975887494697368  0.99999999999997047 -1.2331595739050696 -1.3577121424514955 47.984984231141361  1.0000000000000122 -1.1377290659090962 -1.0845794852481068 60  1
 0 6 1 6
1 16.5 -4.0413344371862654e-15 -12 0 0 1 
2 0 0 -12 0 0 1 1 0 -0 -0 1 0 16.5
2 0 0 0 0 0 1 1 0 -0 -0 1 0 16.5
Polygon3D 0
PolygonOnTriangulations 0
Surfaces 27
9 1 0 0 0 1 5 2 6 2 2 -6.360360721173195 -3.9743944817490369 0  1 -6.1212471179771368 -3.0852054170440009 11.981833550536562  0.99999999999998546 -5.7516118475116498 -2.2799771194552081 23.974310591955742  1.0000000000000313 -5.2711297723697577 -1.582560439757049 35.975887494697368  0.99999999999997047 -4.7059666412742356 -1.0107914549455301 47.984984231141361  1.0000000000000122 -4.0848557835589778 -0.57408904146026996 60  1 
-6.2224217829153066 -3.0485429890371476 0  1 -5.9182577495442334 -2.2540928202975432 11.981833550536562  0.99999999999998546 -5.5021175983331512 -1.5491934934586291 23.974310591955742  1.0000000000000313 -4.9943467151955767 -0.95389562104169789 35.975887494697368  0.99999999999997047 -4.4206844604455897 -0.48210606086859781 47.984984231141361  1.0000000000000122 -3.8084306133235382 -0.13975260875310691 60  1 

0 2
1 2

0 6
1 6

9 1 0 0 0 1 5 2 6 2 2 -5.4677424612155736 -4.2562823659065083 0  1 -5.3324224123296924 -3.41642802485894 11.981833550536562  0.99999999999998546 -5.0691833252249046 -2.6413403721071638 23.974310591955742  1.0000000000000313 -4.6938416584607374 -1.9548059885129998 35.975887494697368  0.99999999999997047 -4.2287499624733371 -1.3757002244795158 47.984984231141361  1.0000000000000122 -3.6994195097720306 -0.91540691436719657 60  1 
-6.360360721173195 -3.9743944817490369 0  1 -6.1212471179771368 -3.0852054170440009 11.981833550536562  0.99999999999998546 -5.7516118475116498 -2.2799771194552081 23.974310591955742  1.0000000000000313 -5.2711297723697577 -1.582560439757049 35.975887494697368  0.99999999999997047 -4.7059666412742356 -1.0107914549455301 47.984984231141361  1.0000000000000122 -4.0848557835589778 -0.57408904146026996 60  1 

21 2
22 2

0 6
1 6

1 -4.0848557835589778 -0.57408904146026996 60 0 0 -1 0.99009192469970275 0.14042072726075075 0 0.14042072726075075 -0.99009192469970275 0 
9 1 0 0 0 1 5 2 6 2 2 -6.2224217829153066 -3.0485429890371476 0  1 -5.9182577495442334 -2.2540928202975432 11.981833550536562  0.99999999999998546 -5.5021175983331512 -1.5491934934586291 23.974310591955742  1.0000000000000313 -4.9943467151955767 -0.95389562104169789 35.975887494697368  0.99999999999997047 -4.4206844604455897 -0.48210606086859781 47.984984231141361  1.0000000000000122 -3.8084306133235382 -0.13975260875310691 60  1 
-5.0236495510076118 -1.6200704766241898 0  1 -4.7077220393887185 -1.0542637977714684 11.981833550536562  0.99999999999998546 -4.3171340159275351 -0.56817987660823599 23.974310591955742  1.0000000000000313 -3.8694104340425546 -0.17471765161361236 35.975887494697368  0.99999999999997047 -3.3854732003994639 0.11844396575861219 47.984984231141361  1.0000000000000122 -2.8865508404257971 0.30981188116184644 60  1 

1 2
2 2

0 6
1 6

1 0 0 2 0 0 1 1 0 -0 -0 1 0 
9 1 0 0 0 1 5 2 6 2 2 -3.6583327137165162 -3.8050341544222519 0  1 -3.647866777980969 -3.1570851945332414 11.981833550536562  0.99999999999998546 -3.5338974338202309 -2.5440211105450237 23.974310591955742  1.0000000000000313 -3.3257561932889859 -1.9854997123303719 35.975887494697368  0.99999999999997047 -3.0382377664824802 -1.4981885855814796 47.984984231141361  1.0000000000000122 -2.6893350285557398 -1.0934515353937808 60  1 
-5.4677424612155736 -4.2562823659065083 0  1 -5.3324224123296924 -3.41642802485894 11.981833550536562  0.99999999999998546 -5.0691833252249046 -2.6413403721071638 23.974310591955742  1.0000000000000313 -4.6938416584607374 -1.9548059885129998 35.975887494697368  0.99999999999997047 -4.2287499624733371 -1.3757002244795158 47.984984231141361  1.0000000000000122 -3.6994195097720306 -0.91540691436719657 60  1 

20 2
21 2

0 6
1 6

9 1 0 0 0 1 5 2 6 2 2 -5.0236495510076118 -1.6200704766241898 0  1 -4.7077220393887185 -1.0542637977714684 11.981833550536562  0.99999999999998546 -4.3171340159275351 -0.56817987660823599 23.974310591955742  1.0000000000000313 -3.8694104340425546 -0.17471765161361236 35.975887494697368  0.99999999999997047 -3.3854732003994639 0.11844396575861219 47.984984231141361  1.0000000000000122 -2.8865508404257971 0.30981188116184644 60  1 
-2.8521914246405391 0.18094171099735767 0  1 -2.5807472463321997 0.40326330852435144 11.981833550536562  0.99999999999998546 -2.2875156352741586 0.57060675912004943 23.974310591955742  1.0000000000000313 -1.9838848211334785 0.67995244291615264 35.975887494697368  0.99999999999997047 -1.6819182180539485 0.73158451613757736 47.984984231141361  1.0000000000000122 -1.3926059929012475 0.7289640840061764 60  1 

2 2
3 2

0 6
1 6

9 1 0 0 0 1 5 2 6 2 2 -2.8521914246405391 0.18094171099735767 0  1 -2.5807472463321997 0.40326330852435144 11.981833550536562  0.99999999999998546 -2.2875156352741586 0.57060675912004943 23.974310591955742  1.0000000000000313 -1.9838848211334785 0.67995244291615264 35.975887494697368  0.99999999999997047 -1.6819182180539485 0.73158451613757736 47.984984231141361  1.0000000000000122 -1.3926059929012475 0.7289640840061764 60  1 
0.12205902721270523 2.1989441750365559 0  1 0.29502885372758725 1.9911287068389838 11.981833550536562  0.99999999999998546 0.42576630504889884 1.7661894344653086 23.974310591955742  1.0000000000000313 0.51187516277692857 1.5328835111277475 35.975887494697368  0.99999999999997047 0.55350092070399204 1.3005084952221555 47.984984231141361  1.0000000000000122 0.55324370306694215 1.0775542710507897 60  1 

3 2
4 2

0 6
1 6

9 1 0 0 0 1 5 2 6 2 2 0.12205902721270523 2.1989441750365559 0  1 0.29502885372758725 1.9911287068389838 11.981833550536562  0.99999999999998546 0.42576630504889884 1.7661894344653086 23.974310591955742  1.0000000000000313 0.51187516277692857 1.5328835111277475 35.975887494697368  0.99999999999997047 0.55350092070399204 1.3005084952221555 47.984984231141361  1.0000000000000122 0.55324370306694215 1.0775542710507897 60  1 
3.6465070509058357 4.2890761237900819 0  1 3.6775932267676361 3.598618528899018 11.981833550536562  0.99999999999998546 3.5962211228941392 2.9385522494454901 23.974310591955742  1.0000000000000313 3.4110434952399777 2.3304121982105048 35.975887494697368  0.99999999999997047 3.1367238364260102 1.7929060821460163 47.984984231141361  1.0000000000000122 2.7916759074070274 1.339303885443748 60  1 

4 2
5 2

0 6
1 6

9 1 0 0 0 1 5 2 6 2 2 3.6465070509058357 4.2890761237900819 0  1 3.6775932267676361 3.598618528899018 11.981833550536562  0.99999999999998546 3.5962211228941392 2.9385522494454901 23.974310591955742  1.0000000000000313 3.4110434952399777 2.3304121982105048 35.975887494697368  0.99999999999997047 3.1367238364260102 1.7929060821460163 47.984984231141361  1.0000000000000122 2.7916759074070274 1.339303885443748 60  1 
7.4087012845739313 6.3250909731970859 0  1 7.2720122224648351 5.1369672902534109 11.981833550536562  0.99999999999998546 6.9515534356009914 4.031677306026781 23.974310591955742  1.0000000000000313 6.4680269355534996 3.0436327738143838 35.975887494697368  0.99999999999997047 5.8516263256617966 2.2007631814050859 47.984984231141361  1.0000000000000122 5.1374574213273565 1.5206773107357956 60  1 

5 2
6 2

0 6
1 6

9 1 0 0 0 1 5 2 6 2 2 7.4087012845739313 6.3250909731970859 0  1 7.2720122224648351 5.1369672902534109 11.981833550536562  0.99999999999998546 6.9515534356009914 4.031677306026781 23.974310591955742  1.0000000000000313 6.4680269355534996 3.0436327738143838 35.975887494697368  0.99999999999997047 5.8516263256617966 2.2007631814050859 47.984984231141361  1.0000000000000122 5.1374574213273565 1.5206773107357956 60  1 
11.074253360259579 8.1894092353593777 0  1 10.764111516502902 6.527132743642782 11.981833550536562  0.99999999999998546 10.202954926325484 4.9998390179462193 23.974310591955742  1.0000000000000313 9.4233813591548099 3.6540190489207487 35.975887494697368  0.99999999999997047 8.4707356564510565 2.5260835029305158 47.984984231141361  1.0000000000000122 7.396271671366863 1.6374011342788242 60  1 

6 2
7 2

0 6
1 6

9 1 0 0 0 1 5 2 6 2 2 11.074253360259579 8.1894092353593777 0  1 10.764111516502902 6.527132743642782 11.981833550536562  0.99999999999998546 10.202954926325484 4.9998390179462193 23.974310591955742  1.0000000000000313 9.4233813591548099 3.6540190489207487 35.975887494697368  0.99999999999997047 8.4707356564510565 2.5260835029305158 47.984984231141361  1.0000000000000122 7.396271671366863 1.6374011342788242 60  1 
14.322748558468192 9.7685283623979817 0  1 13.852775738498599 7.6926143370892257 11.981833550536562  0.99999999999998546 13.073561900610606 5.7985437941552957 23.974310591955742  1.0000000000000313 12.028342603379803 4.1432268747445153 35.975887494697368  0.99999999999997047 10.77590233724395 2.7702821348409499 47.984984231141361  1.0000000000000122 9.3817351762520236 1.704124424767316 60  1 

7 2
8 2

0 6
1 6

9 1 0 0 0 1 5 2 6 2 2 14.322748558468192 9.7685283623979817 0  1 13.852775738498599 7.6926143370892257 11.981833550536562  0.99999999999998546 13.073561900610606 5.7985437941552957 23.974310591955742  1.0000000000000313 12.028342603379803 4.1432268747445153 35.975887494697368  0.99999999999997047 10.77590233724395 2.7702821348409499 47.984984231141361  1.0000000000000122 9.3817351762520236 1.704124424767316 60  1 
16.872885997592377 10.96352697038078 0  1 16.27370813249447 8.566910548088547 11.981833550536562  0.99999999999998546 15.320415931288139 6.3893182907606558 23.974310591955742  1.0000000000000313 14.064654179403002 4.4956650421667472 35.975887494697368  0.99999999999997047 12.575765276752819 2.9350393599714715 47.984984231141361  1.0000000000000122 10.930379084144102 1.7340725896296616 60  1 

8 2
9 2

0 6
1 6

9 1 0 0 0 1 5 2 6 2 2 16.872885997592377 10.96352697038078 0  1 16.27370813249447 8.566910548088547 11.981833550536562  0.99999999999998546 15.320415931288139 6.3893182907606558 23.974310591955742  1.0000000000000313 14.064654179403002 4.4956650421667472 35.975887494697368  0.99999999999997047 12.575765276752819 2.9350393599714715 47.984984231141361  1.0000000000000122 10.930379084144102 1.7340725896296616 60  1 
18.501153973431798 11.704662613703631 0  1 17.817648742908307 9.1052426817682655 11.981833550536562  0.99999999999998546 16.75178684981913 6.7487799150752492 23.974310591955742  1.0000000000000313 15.360610971104176 4.7052146535292199 35.975887494697368  0.99999999999997047 13.72020842857418 3.0270357810635731 47.984984231141361  1.0000000000000122 11.914298194374187 1.7422042570932854 60  1 

9 2
10 2

0 6
1 6

9 1 0 0 0 1 5 2 6 2 2 18.501153973431798 11.704662613703631 0  1 17.817648742908307 9.1052426817682655 11.981833550536562  0.99999999999998546 16.75178684981913 6.7487799150752492 23.974310591955742  1.0000000000000313 15.360610971104176 4.7052146535292199 35.975887494697368  0.99999999999997047 13.72020842857418 3.0270357810635731 47.984984231141361  1.0000000000000122 11.914298194374187 1.7422042570932854 60  1 
19.06105121533157 11.955239663281823 0  1 18.348191918629428 9.286467336606778 11.981833550536562  0.99999999999998546 17.243344457853112 6.8689194820766941 23.974310591955742  1.0000000000000313 15.805413212492699 4.7742478133242683 35.975887494697368  0.99999999999997047 14.112805534889864 3.0560924367084552 47.984984231141361  1.0000000000000122 12.251673941907972 1.7428547975299467 60  1 

10 2
11 2

0 6
1 6

9 1 0 0 0 1 5 2 6 2 2 19.06105121533157 11.955239663281823 0  1 18.348191918629428 9.286467336606778 11.981833550536562  0.99999999999998546 17.243344457853112 6.8689194820766941 23.974310591955742  1.0000000000000313 15.805413212492699 4.7742478133242683 35.975887494697368  0.99999999999997047 14.112805534889864 3.0560924367084552 47.984984231141361  1.0000000000000122 12.251673941907972 1.7428547975299467 60  1 
18.630453155391862 11.497740668236174 0  1 17.91801989087422 8.90609983156439 11.981833550536562  0.99999999999998546 16.825961463785312 6.5616624283109815 23.974310591955742  1.0000000000000313 15.412096492031463 4.5337287150540737 35.975887494697368  0.99999999999997047 13.753092559441551 2.873936324066495 47.984984231141361  1.0000000000000122 11.932975062957293 1.6093114318680981 60  1 

11 2
12 2

0 6
1 6

9 1 0 0 0 1 5 2 6 2 2 18.630453155391862 11.497740668236174 0  1 17.91801989087422 8.90609983156439 11.981833550536562  0.99999999999998546 16.825961463785312 6.5616624283109815 23.974310591955742  1.0000000000000313 15.412096492031463 4.5337287150540737 35.975887494697368  0.99999999999997047 13.753092559441551 2.873936324066495 47.984984231141361  1.0000000000000122 11.932975062957293 1.6093114318680981 60  1 
17.250539151824526 10.359155587661803 0  1 16.56686915678403 7.9852601123922682 11.981833550536562  0.99999999999998546 15.53706290850557 5.8427911742131853 23.974310591955742  1.0000000000000313 14.215031537408251 3.9947940808056899 35.975887494697368  0.99999999999997047 12.671812255225779 2.4878710796334049 47.984984231141361  1.0000000000000122 10.984929919073343 1.3459232304433522 60  1 

12 2
13 2

0 6
1 6

9 1 0 0 0 1 5 2 6 2 2 17.250539151824526 10.359155587661803 0  1 16.56686915678403 7.9852601123922682 11.981833550536562  0.99999999999998546 15.53706290850557 5.8427911742131853 23.974310591955742  1.0000000000000313 14.215031537408251 3.9947940808056899 35.975887494697368  0.99999999999997047 12.671812255225779 2.4878710796334049 47.984984231141361  1.0000000000000122 10.984929919073343 1.3459232304433522 60  1 
15.058574843975165 8.590960150325154 0  1 14.423976018811549 6.5593160321084572 11.981833550536562  0.99999999999998546 13.495680817732236 4.733680404054537 23.974310591955742  1.0000000000000313 12.321340587179295 3.1673207691380565 35.975887494697368  0.99999999999997047 10.963042019812042 1.8990113112550444 47.984984231141361  1.0000000000000122 9.4880230167942319 0.94784714231569445 60  1 

13 2
14 2

0 6
1 6

9 1 0 0 0 1 5 2 6 2 2 15.058574843975165 8.590960150325154 0  1 14.423976018811549 6.5593160321084572 11.981833550536562  0.99999999999998546 13.495680817732236 4.733680404054537 23.974310591955742  1.0000000000000313 12.321340587179295 3.1673207691380565 35.975887494697368  0.99999999999997047 10.963042019812042 1.8990113112550444 47.984984231141361  1.0000000000000122 9.4880230167942319 0.94784714231569445 60  1 
12.21522540881821 6.363472269380301 0  1 11.649814523860252 4.7698406841845786 11.981833550536562  0.99999999999998546 10.857492410361347 3.3486621198540059 23.974310591955742  1.0000000000000313 9.8777039572790741 2.1407792932252661 35.975887494697368  0.99999999999997047 8.7609143999829726 1.1750911885540656 47.984984231141361  1.0000000000000122 7.5610815695030258 0.46471777513154977 60  1 

14 2
15 2

0 6
1 6

9 1 0 0 0 1 5 2 6 2 2 12.21522540881821 6.363472269380301 0  1 11.649814523860252 4.7698406841845786 11.981833550536562  0.99999999999998546 10.857492410361347 3.3486621198540059 23.974310591955742  1.0000000000000313 9.8777039572790741 2.1407792932252661 35.975887494697368  0.99999999999997047 8.7609143999829726 1.1750911885540656 47.984984231141361  1.0000000000000122 7.5610815695030258 0.46471777513154977 60  1 
8.9327149873465306 3.8861592219183914 0  1 8.4550591879923527 2.7897255837006347 11.981833550536562  0.99999999999998546 7.825829098979642 1.8261752329715701 23.974310591955742  1.0000000000000313 7.0748725334752027 1.022375437866905 35.975887494697368  0.99999999999997047 6.2392224827763565 0.39622221824021525 47.984984231141361  1.0000000000000122 5.3575965066181563 -0.045693671455721452 60  1 

15 2
16 2

0 6
1 6

9 1 0 0 0 1 5 2 6 2 2 8.9327149873465306 3.8861592219183914 0  1 8.4550591879923527 2.7897255837006347 11.981833550536562  0.99999999999998546 7.825829098979642 1.8261752329715701 23.974310591955742  1.0000000000000313 7.0748725334752027 1.022375437866905 35.975887494697368  0.99999999999997047 6.2392224827763565 0.39622221824021525 47.984984231141361  1.0000000000000122 5.3575965066181563 -0.045693671455721452 60  1 
5.4535195618664822 1.3972516080905895 0  1 5.0803238346837336 0.8155102653230748 11.981833550536562  0.99999999999998546 4.6328437325718195 0.32350368937666574 23.974310591955742  1.0000000000000313 4.1305761252103608 -0.066178650863269115 35.975887494697368  0.99999999999997047 3.5962939202327817 -0.34672566200933591 47.984984231141361  1.0000000000000122 3.0526932988833719 -0.51793135888274233 60  1 

16 2
17 2

0 6
1 6

9 1 0 0 0 1 5 2 6 2 2 5.4535195618664822 1.3972516080905895 0  1 5.0803238346837336 0.8155102653230748 11.981833550536562  0.99999999999998546 4.6328437325718195 0.32350368937666574 23.974310591955742  1.0000000000000313 4.1305761252103608 -0.066178650863269115 35.975887494697368  0.99999999999997047 3.5962939202327817 -0.34672566200933591 47.984984231141361  1.0000000000000122 3.0526932988833719 -0.51793135888274233 60  1 
2.0299050884022827 -0.85424775278008946 0  1 1.7760335778177732 -0.94728046649028641 11.981833550536562  0.99999999999998546 1.5202337483109387 -0.99478209444483401 23.974310591955742  1.0000000000000313 1.2715586102681717 -0.99744009424544211 35.975887494697368  0.99999999999997047 1.0387155879589411 -0.95851736692466438 47.984984231141361  1.0000000000000122 0.82882619029907834 -0.88331701462008416 60  1 

17 2
18 2

0 6
1 6

9 1 0 0 0 1 5 2 6 2 2 2.0299050884022827 -0.85424775278008946 0  1 1.7760335778177732 -0.94728046649028641 11.981833550536562  0.99999999999998546 1.5202337483109387 -0.99478209444483401 23.974310591955742  1.0000000000000313 1.2715586102681717 -0.99744009424544211 35.975887494697368  0.99999999999997047 1.0387155879589411 -0.95851736692466438 47.984984231141361  1.0000000000000122 0.82882619029907834 -0.88331701462008416 60  1 
-1.087689093110036 -2.6428522967243451 0  1 -1.2110160390694071 -2.3143720095459965 11.981833550536562  0.99999999999998546 -1.2752796930220336 -1.9829224795091356 23.974310591955742  1.0000000000000313 -1.2812792799466357 -1.6602583277704273 35.975887494697368  0.99999999999997047 -1.2331595739050696 -1.3577121424514955 47.984984231141361  1.0000000000000122 -1.1377290659090962 -1.0845794852481068 60  1 

18 2
19 2

0 6
1 6

9 1 0 0 0 1 5 2 6 2 2 -1.087689093110036 -2.6428522967243451 0  1 -1.2110160390694071 -2.3143720095459965 11.981833550536562  0.99999999999998546 -1.2752796930220336 -1.9829224795091356 23.974310591955742  1.0000000000000313 -1.2812792799466357 -1.6602583277704273 35.975887494697368  0.99999999999997047 -1.2331595739050696 -1.3577121424514955 47.984984231141361  1.0000000000000122 -1.1377290659090962 -1.0845794852481068 60  1 
-3.6583327137165162 -3.8050341544222519 0  1 -3.647866777980969 -3.1570851945332414 11.981833550536562  0.99999999999998546 -3.5338974338202309 -2.5440211105450237 23.974310591955742  1.0000000000000313 -3.3257561932889859 -1.9854997123303719 35.975887494697368  0.99999999999997047 -3.0382377664824802 -1.4981885855814796 47.984984231141361  1.0000000000000122 -2.6893350285557398 -1.0934515353937808 60  1 

19 2
20 2

0 6
1 6

2 0 0 -12 0 0 1 1 0 -0 -0 1 0 16.5
1 -6.360360721173195 -3.9743944817490369 0 0 0 -1 0.84737972523373328 0.53098738333674456 0 0.53098738333674456 -0.84737972523373328 0 
1 0 0 -12 0 0 1 1 0 -0 -0 1 0 
Triangulations 0

TShapes 182
Ve
5.000001e-06
-6.31900327581432 -3.82692482337626 2
0 0

0101101
*
Ve
1e-07
-4.08485578355898 -0.57408904146027 60
0 0

0101101
*
Ed
 1e-07 1 1 0
1  1 0 0.0333819020289312 1
2  1 1 0 0.0333819020289312 1
2  2 2 0 0.0333819020289312 1
4 C0 1 0 2 0
0

0101000
+182 0 -181 0 *
Ve
1e-07
-3.80843061332354 -0.139752608753107 60
0 0

0101101
*
Ed
 1e-07 1 1 0
1  2 0 0 1
2  3 1 0 0 1
4 C0 1 0 3 0
0

0101000
+181 0 -179 0 *
Ve
5.000001e-06
-6.17041370733 -2.91694703202292 2
0 0

0101101
*
Ed
 1e-07 1 1 0
1  3 0 0.0333819020289312 1
2  4 1 0 0.0333819020289312 1
2  5 4 0 0.0333819020289312 1
4 C0 1 0 4 0
0

0101000
+177 0 -179 0 *
Ed
 5e-06 1 1 0
1  4 0 0 1
2  6 1 0 0 1
2  7 5 0 0 1
0

0101000
+177 0 -182 0 *
Wi

0101100
-180 0 -178 0 +176 0 -175 0 *
Fa
0  1e-07 1 0

0101000
+174 0 *
Ve
5.000001e-06
-5.44373671460469 -4.11683323554626 2
0 0

0101101
*
Ve
1e-07
-3.69941950977203 -0.915406914367197 60
0 0

0101101
*
Ed
 1e-07 1 1 0
1  5 0 0.0333819020289312 1
2  8 6 0 0.0333819020289312 1
2  9 2 0 0.0333819020289312 1
4 C0 6 0 2 0
0

0101000
+172 0 -171 0 *
Ed
 1e-07 1 1 0
1  6 0 21 22
2  10 2 0 21 22
4 C0 2 0 3 0
0

0101000
+171 0 -181 0 *
Ed
 5e-06 1 1 0
1  7 0 0 1
2  11 2 0 0 1
2  12 5 0 0 1
0

0101000
+182 0 -172 0 *
Wi

0101100
-170 0 -169 0 +180 0 -168 0 *
Fa
0  1e-07 2 0

0101000
+167 0 *
Ve
1e-07
-2.8865508404258 0.309811881161846 60
0 0

0101101
*
Ed
 1e-07 1 1 0
1  8 0 1 2
2  13 4 0 1 2
4 C0 4 0 3 0
0

0101000
+179 0 -165 0 *
Ve
1e-07
-1.39260599290125 0.728964084006176 60
0 0

0101101
*
Ed
 1e-07 1 1 0
1  9 0 2 3
2  14 7 0 2 3
4 C0 7 0 3 0
0

0101000
+165 0 -163 0 *
Ve
1e-07
0.553243703066942 1.07755427105079 60
0 0

0101101
*
Ed
 1e-07 1 1 0
1  10 0 3 4
2  15 8 0 3 4
4 C0 8 0 3 0
0

0101000
+163 0 -161 0 *
Ve
1e-07
2.79167590740703 1.33930388544375 60
0 0

0101101
*
Ed
 1e-07 1 1 0
1  11 0 4 5
2  16 9 0 4 5
4 C0 9 0 3 0
0

0101000
+161 0 -159 0 *
Ve
1e-07
5.13745742132736 1.5206773107358 60
0 0

0101101
*
Ed
 1e-07 1 1 0
1  12 0 5 6
2  17 10 0 5 6
4 C0 10 0 3 0
0

0101000
+159 0 -157 0 *
Ve
1e-07
7.39627167136686 1.63740113427882 60
0 0

0101101
*
Ed
 1e-07 1 1 0
1  13 0 6 7
2  18 11 0 6 7
4 C0 11 0 3 0
0

0101000
+157 0 -155 0 *
Ve
1e-07
9.38173517625202 1.70412442476732 60
0 0

0101101
*
Ed
 1e-07 1 1 0
1  14 0 7 8
2  19 12 0 7 8
4 C0 12 0 3 0
0

0101000
+155 0 -153 0 *
Ve
1e-07
10.9303790841441 1.73407258962966 60
0 0

0101101
*
Ed
 1e-07 1 1 0
1  15 0 8 9
2  20 13 0 8 9
4 C0 13 0 3 0
0

0101000
+153 0 -151 0 *
Ve
1e-07
11.9142981943742 1.74220425709329 60
0 0

0101101
*
Ed
 1e-07 1 1 0
1  16 0 9 10
2  21 14 0 9 10
4 C0 14 0 3 0
0

0101000
+151 0 -149 0 *
Ve
1e-07
12.251673941908 1.74285479752995 60
0 0

0101101
*
Ed
 1e-07 1 1 0
1  17 0 10 11
2  22 15 0 10 11
4 C0 15 0 3 0
0

0101000
+149 0 -147 0 *
Ve
1e-07
11.9329750629573 1.6093114318681 60
0 0

0101101
*
Ed
 1e-07 1 1 0
1  18 0 11 12
2  23 16 0 11 12
4 C0 16 0 3 0
0

0101000
+147 0 -145 0 *
Ve
1e-07
10.9849299190733 1.34592323044335 60
0 0

0101101
*
Ed
 1e-07 1 1 0
1  19 0 12 13
2  24 17 0 12 13
4 C0 17 0 3 0
0

0101000
+145 0 -143 0 *
Ve
1e-07
9.48802301679423 0.947847142315694 60
0 0

0101101
*
Ed
 1e-07 1 1 0
1  20 0 13 14
2  25 18 0 13 14
4 C0 18 0 3 0
0

0101000
+143 0 -141 0 *
Ve
1e-07
7.56108156950303 0.46471777513155 60
0 0

0101101
*
Ed
 1e-07 1 1 0
1  21 0 14 15
2  26 19 0 14 15
4 C0 19 0 3 0
0

0101000
+141 0 -139 0 *
Ve
1e-07
5.35759650661816 -0.0456936714557215 60
0 0

0101101
*
Ed
 1e-07 1 1 0
1  22 0 15 16
2  27 20 0 15 16
4 C0 20 0 3 0
0

0101000
+139 0 -137 0 *
Ve
1e-07
3.05269329888337 -0.517931358882742 60
0 0

0101101
*
Ed
 1e-07 1 1 0
1  23 0 16 17
2  28 21 0 16 17
4 C0 21 0 3 0
0

0101000
+137 0 -135 0 *
Ve
1e-07
0.828826190299078 -0.883317014620084 60
0 0

0101101
*
Ed
 1e-07 1 1 0
1  24 0 17 18
2  29 22 0 17 18
4 C0 22 0 3 0
0

0101000
+135 0 -133 0 *
Ve
1e-07
-1.1377290659091 -1.08457948524811 60
0 0

0101101
*
Ed
 1e-07 1 1 0
1  25 0 18 19
2  30 23 0 18 19
4 C0 23 0 3 0
0

0101000
+133 0 -131 0 *
Ve
1e-07
-2.68933502855574 -1.09345153539378 60
0 0

0101101
*
Ed
 1e-07 1 1 0
1  26 0 19 20
2  31 24 0 19 20
4 C0 24 0 3 0
0

0101000
+131 0 -129 0 *
Ed
 1e-07 1 1 0
1  27 0 20 21
2  32 6 0 20 21
4 C0 6 0 3 0
0

0101000
+129 0 -171 0 *
Wi

0101000
+178 0 +164 0 +162 0 +160 0 +158 0 +156 0 +154 0 +152 0 +150 0 +148 0 
+146 0 +144 0 +142 0 +140 0 +138 0 +136 0 +134 0 +132 0 +130 0 +128 0 
+127 0 +169 0 *
Fa
0  1e-07 3 0

0101000
+126 0 *
Ve
5.000001e-06
-4.97009280445597 -1.52652511852049 2
0 0

0101101
*
Ed
 1e-07 1 1 0
1  28 0 0.0333819020289312 1
2  33 4 0 0.0333819020289312 1
2  34 7 0 0.0333819020289312 1
4 C0 4 0 7 0
0

0101000
+124 0 -165 0 *
Ed
 5e-06 1 1 0
1  29 0 0 1
2  35 4 0 0 1
2  36 5 0 0 1
0

0101000
+124 0 -177 0 *
Wi

0101100
-176 0 -164 0 +123 0 -122 0 *
Fa
0  1e-07 4 0

0101000
+121 0 *
Ve
5.000001e-06
13.7128578273065 9.17646610673625 2
0 0

0101101
*
Ve
1e-07
16.5 -4.04133443718627e-15 2
0 0

0101101
*
Ed
 1e-07 1 1 0
1  30 0 0.589745416398053 6.28318530717959
2  37 25 0 0.589745416398053 6.28318530717959
2  38 5 0 0.589745416398053 6.28318530717959
0

0101000
+119 0 -118 0 *
Ve
5.000001e-06
11.0197027557054 7.91348089419073 2
0 0

0101101
*
Ed
 5e-06 1 1 0
1  31 0 0.163921013561444 1
2  39 12 0 0.163921013561444 1
2  40 5 0 0.163921013561444 1
0

0101000
+119 0 -116 0 *
Ve
5.000001e-06
7.38384649942438 6.12771765023233 2
0 0

0101101
*
Ed
 5e-06 1 1 0
1  32 0 0 1
2  41 11 0 0 1
2  42 5 0 0 1
0

0101000
+116 0 -114 0 *
Ve
5.000001e-06
3.65044570487521 4.17417884404157 2
0 0

0101101
*
Ed
 5e-06 1 1 0
1  33 0 0 1
2  43 10 0 0 1
2  44 5 0 0 1
0

0101000
+114 0 -112 0 *
Ve
5.000001e-06
0.150457843573327 2.16407023857818 2
0 0

0101101
*
Ed
 5e-06 1 1 0
1  34 0 0 1
2  45 9 0 0 1
2  46 5 0 0 1
0

0101000
+112 0 -110 0 *
Ve
5.000001e-06
-2.80664626169573 0.217435547428503 2
0 0

0101101
*
Ed
 5e-06 1 1 0
1  35 0 0 1
2  47 8 0 0 1
2  48 5 0 0 1
0

0101000
+110 0 -108 0 *
Ed
 5e-06 1 1 0
1  36 0 0 1
2  49 7 0 0 1
2  50 5 0 0 1
0

0101000
+108 0 -124 0 *
Ve
5.000001e-06
-3.65543596291782 -3.69728134490549 2
0 0

0101101
*
Ed
 5e-06 1 1 0
1  37 0 0 1
2  51 6 0 0 1
2  52 5 0 0 1
0

0101000
+172 0 -105 0 *
Ve
5.000001e-06
-1.10761567868533 -2.58799709503442 2
0 0

0101101
*
Ed
 5e-06 1 1 0
1  38 0 0 1
2  53 24 0 0 1
2  54 5 0 0 1
0

0101000
+105 0 -103 0 *
Ve
5.000001e-06
1.98751339612984 -0.869268692866025 2
0 0

0101101
*
Ed
 5e-06 1 1 0
1  39 0 0 1
2  55 23 0 0 1
2  56 5 0 0 1
0

0101000
+103 0 -101 0 *
Ve
5.000001e-06
5.39040912976994 1.30115805341971 2
0 0

0101101
*
Ed
 5e-06 1 1 0
1  40 0 0 1
2  57 22 0 0 1
2  58 5 0 0 1
0

0101000
+101 0 -99 0 *
Ve
5.000001e-06
8.85131176918775 3.70464474581145 2
0 0

0101101
*
Ed
 5e-06 1 1 0
1  41 0 0 1
2  59 21 0 0 1
2  60 5 0 0 1
0

0101000
+99 0 -97 0 *
Ve
5.000001e-06
12.1183391078487 6.09941685360216 2
0 0

0101101
*
Ed
 5e-06 1 1 0
1  42 0 0 1
2  61 20 0 0 1
2  62 5 0 0 1
0

0101000
+97 0 -95 0 *
Ve
5.000001e-06
14.4853290191423 7.9009647010473 2
0 0

0101101
*
Ed
 5e-06 1 1 0
1  43 0 0 0.836078986438555
2  63 19 0 0 0.836078986438555
2  64 5 0 0 0.836078986438555
0

0101000
+95 0 -93 0 *
Ed
 1e-07 1 1 0
1  30 0 0 0.499340131884787
2  37 25 0 0 0.499340131884787
2  38 5 0 0 0.499340131884787
0

0101000
+118 0 -93 0 *
Wi

0101100
+117 0 -115 0 -113 0 -111 0 -109 0 -107 0 -106 0 -122 0 -175 0 -168 0 
-104 0 -102 0 -100 0 -98 0 -96 0 -94 0 -92 0 +91 0 *
Fa
0  1e-07 5 0

0101000
+90 0 *
Ed
 1e-07 1 1 0
1  44 0 0.0333819020289312 1
2  65 24 0 0.0333819020289312 1
2  66 6 0 0.0333819020289312 1
4 C0 24 0 6 0
0

0101000
+105 0 -129 0 *
Wi

0101100
-88 0 -127 0 +170 0 -104 0 *
Fa
0  1e-07 6 0

0101000
+87 0 *
Ed
 1e-07 1 1 0
1  45 0 0.0333819020289312 1
2  67 7 0 0.0333819020289312 1
2  68 8 0 0.0333819020289312 1
4 C0 7 0 8 0
0

0101000
+108 0 -163 0 *
Wi

0101100
-123 0 -162 0 +85 0 -106 0 *
Fa
0  1e-07 7 0

0101000
+84 0 *
Ed
 1e-07 1 1 0
1  46 0 0.0333819020289312 1
2  69 8 0 0.0333819020289312 1
2  70 9 0 0.0333819020289312 1
4 C0 8 0 9 0
0

0101000
+110 0 -161 0 *
Wi

0101100
-85 0 -160 0 +82 0 -107 0 *
Fa
0  1e-07 8 0

0101000
+81 0 *
Ed
 1e-07 1 1 0
1  47 0 0.0333819020289312 1
2  71 9 0 0.0333819020289312 1
2  72 10 0 0.0333819020289312 1
4 C0 9 0 10 0
0

0101000
+112 0 -159 0 *
Wi

0101100
-82 0 -158 0 +79 0 -109 0 *
Fa
0  1e-07 9 0

0101000
+78 0 *
Ed
 1e-07 1 1 0
1  48 0 0.0333819020289312 1
2  73 10 0 0.0333819020289312 1
2  74 11 0 0.0333819020289312 1
4 C0 10 0 11 0
0

0101000
+114 0 -157 0 *
Wi

0101100
-79 0 -156 0 +76 0 -111 0 *
Fa
0  1e-07 10 0

0101000
+75 0 *
Ed
 1e-07 1 1 0
1  49 0 0.0333819020289312 1
2  75 11 0 0.0333819020289312 1
2  76 12 0 0.0333819020289312 1
4 C0 11 0 12 0
0

0101000
+116 0 -155 0 *
Wi

0101100
-76 0 -154 0 +73 0 -113 0 *
Fa
0  1e-07 11 0

0101000
+72 0 *
Ve
5.00000000355271e-06
13.561618642418 9.39853710944526 0
0 0

0101101
*
Ed
 5e-06 1 1 0
1  50 0 0 0.999999699997376
2  77 12 0 0 0.999999699997376
2  78 25 0 0 0.999999699997376
0

0101000
+70 0 -119 0 *
Ve
1e-07
14.3227485584682 9.76852836239798 0
0 0

0101101
*
Ed
 1e-07 1 1 0
1  51 0 0 1
2  79 12 0 0 1
2  80 13 0 0 1
4 C0 12 0 13 0
0

0101000
+68 0 -153 0 *
Ed
 1e-07 1 1 0
1  52 0 7.76569769397539 8
2  81 12 0 7.76569769397539 8
4 C0 12 0 26 0
2  82 26 0 7.76569769397539 8
0

0101000
+70 0 -68 0 *
Wi

0101100
-69 0 -115 0 -73 0 -152 0 +67 0 +66 0 *
Fa
0  1e-07 12 0

0101000
+65 0 *
Ve
1e-07
16.8728859975924 10.9635269703808 0
0 0

0101101
*
Ed
 1e-07 1 1 0
1  53 0 8 9
2  83 13 0 8 9
4 C0 13 0 26 0
2  84 26 0 8 9
0

0101000
+68 0 -63 0 *
Ed
 1e-07 1 1 0
1  54 0 0 1
2  85 13 0 0 1
2  86 14 0 0 1
4 C0 13 0 14 0
0

0101000
+63 0 -151 0 *
Wi

0101000
+62 0 +61 0 -150 0 -67 0 *
Fa
0  1e-07 13 0

0101000
+60 0 *
Ve
1e-07
18.5011539734318 11.7046626137036 0
0 0

0101101
*
Ed
 1e-07 1 1 0
1  55 0 9 10
2  87 14 0 9 10
4 C0 14 0 26 0
2  88 26 0 9 10
0

0101000
+63 0 -58 0 *
Ed
 1e-07 1 1 0
1  56 0 0 1
2  89 14 0 0 1
2  90 15 0 0 1
4 C0 14 0 15 0
0

0101000
+58 0 -149 0 *
Wi

0101000
+57 0 +56 0 -148 0 -61 0 *
Fa
0  1e-07 14 0

0101000
+55 0 *
Ve
1e-07
19.0610512153316 11.9552396632818 0
0 0

0101101
*
Ed
 1e-07 1 1 0
1  57 0 10 11
2  91 15 0 10 11
4 C0 15 0 26 0
2  92 26 0 10 11
0

0101000
+58 0 -53 0 *
Ed
 1e-07 1 1 0
1  58 0 0 1
2  93 15 0 0 1
2  94 16 0 0 1
4 C0 15 0 16 0
0

0101000
+53 0 -147 0 *
Wi

0101000
+52 0 +51 0 -146 0 -56 0 *
Fa
0  1e-07 15 0

0101000
+50 0 *
Ve
1e-07
18.6304531553919 11.4977406682362 0
0 0

0101101
*
Ed
 1e-07 1 1 0
1  59 0 11 12
2  95 16 0 11 12
4 C0 16 0 26 0
2  96 26 0 11 12
0

0101000
+53 0 -48 0 *
Ed
 1e-07 1 1 0
1  60 0 0 1
2  97 16 0 0 1
2  98 17 0 0 1
4 C0 16 0 17 0
0

0101000
+48 0 -145 0 *
Wi

0101000
+47 0 +46 0 -144 0 -51 0 *
Fa
0  1e-07 16 0

0101000
+45 0 *
Ve
1e-07
17.2505391518245 10.3591555876618 0
0 0

0101101
*
Ed
 1e-07 1 1 0
1  61 0 12 13
2  99 17 0 12 13
4 C0 17 0 26 0
2  100 26 0 12 13
0

0101000
+48 0 -43 0 *
Ed
 1e-07 1 1 0
1  62 0 0 1
2  101 17 0 0 1
2  102 18 0 0 1
4 C0 17 0 18 0
0

0101000
+43 0 -143 0 *
Wi

0101000
+42 0 +41 0 -142 0 -46 0 *
Fa
0  1e-07 17 0

0101000
+40 0 *
Ve
1e-07
15.0585748439752 8.59096015032515 0
0 0

0101101
*
Ed
 1e-07 1 1 0
1  63 0 13 14
2  103 18 0 13 14
4 C0 18 0 26 0
2  104 26 0 13 14
0

0101000
+43 0 -38 0 *
Ed
 1e-07 1 1 0
1  64 0 0 1
2  105 18 0 0 1
2  106 19 0 0 1
4 C0 18 0 19 0
0

0101000
+38 0 -141 0 *
Wi

0101000
+37 0 +36 0 -140 0 -41 0 *
Fa
0  1e-07 18 0

0101000
+35 0 *
Ed
 1e-07 1 1 0
1  65 0 0.0333819020289312 1
2  107 19 0 0.0333819020289312 1
2  108 20 0 0.0333819020289312 1
4 C0 19 0 20 0
0

0101000
+95 0 -139 0 *
Ve
5.00000000532907e-06
14.3923715144841 8.0690546031779 0
0 0

0101101
*
Ed
 5e-06 1 1 0
1  66 0 0 0.999999699997248
2  109 19 0 0 0.999999699997248
2  110 25 0 0 0.999999699997248
0

0101000
+32 0 -93 0 *
Ed
 1e-07 1 1 0
1  67 0 14 14.2343023060246
2  111 19 0 14 14.2343023060246
4 C0 19 0 26 0
2  112 26 0 14 14.2343023060246
0

0101000
+38 0 -32 0 *
Wi

0101100
-36 0 -138 0 +33 0 -92 0 +31 0 +30 0 *
Fa
0  1e-07 19 0

0101000
+29 0 *
Ed
 1e-07 1 1 0
1  68 0 0.0333819020289312 1
2  113 20 0 0.0333819020289312 1
2  114 21 0 0.0333819020289312 1
4 C0 20 0 21 0
0

0101000
+97 0 -137 0 *
Wi

0101100
-33 0 -136 0 +27 0 -94 0 *
Fa
0  1e-07 20 0

0101000
+26 0 *
Ed
 1e-07 1 1 0
1  69 0 0.0333819020289312 1
2  115 21 0 0.0333819020289312 1
2  116 22 0 0.0333819020289312 1
4 C0 21 0 22 0
0

0101000
+99 0 -135 0 *
Wi

0101100
-27 0 -134 0 +24 0 -96 0 *
Fa
0  1e-07 21 0

0101000
+23 0 *
Ed
 1e-07 1 1 0
1  70 0 0.0333819020289312 1
2  117 22 0 0.0333819020289312 1
2  118 23 0 0.0333819020289312 1
4 C0 22 0 23 0
0

0101000
+101 0 -133 0 *
Wi

0101100
-24 0 -132 0 +21 0 -98 0 *
Fa
0  1e-07 22 0

0101000
+20 0 *
Ed
 1e-07 1 1 0
1  71 0 0.0333819020289312 1
2  119 23 0 0.0333819020289312 1
2  120 24 0 0.0333819020289312 1
4 C0 23 0 24 0
0

0101000
+103 0 -131 0 *
Wi

0101100
-21 0 -130 0 +18 0 -100 0 *
Fa
0  1e-07 23 0

0101000
+17 0 *
Wi

0101100
-18 0 -128 0 +88 0 -102 0 *
Fa
0  1e-07 24 0

0101000
+15 0 *
Ve
1e-07
16.5 -4.04133443718627e-15 -12
0 0

0101101
*
Ed
 1e-07 1 1 0
1  72 0 0 14
3  121 122CN 25 0 0 14
0

0101000
-118 0 +13 0 *
Ed
 1e-07 1 1 0
1  73 0 0 6.28318530717959
2  123 25 0 0 6.28318530717959
2  124 27 0 0 6.28318530717959
0

0101000
+13 0 -13 0 *
Ed
 1e-07 1 1 0
1  74 0 0.510981502264275 0.606029219012096
2  125 26 0 0.510981502264275 0.606029219012096
2  126 25 0 0.510981502264275 0.606029219012096
0

0101000
+32 0 -70 0 *
Wi

0101100
+12 0 +11 0 -12 0 -91 0 +31 0 -10 0 -69 0 -117 0 *
Fa
0  1e-07 25 0

0101000
+9 0 *
Wi

0101100
+10 0 +30 0 +37 0 +42 0 +47 0 +52 0 +57 0 +62 0 +66 0 *
Fa
0  1e-07 26 0

0101000
+7 0 *
Wi

0101100
-11 0 *
Fa
0  1e-07 27 0

0111000
-5 0 *
Sh

0101100
-173 0 -166 0 -125 0 -120 0 +89 0 -86 0 -83 0 -80 0 -77 0 -74 0 
-71 0 -64 0 -59 0 -54 0 -49 0 -44 0 -39 0 -34 0 -28 0 -25 0 
-22 0 -19 0 -16 0 -14 0 +8 0 +6 0 -4 0 *
So

0100000
+3 0 *
Co

1100000
+2 0 *

+1 0 